<svg width="51" height="51" viewBox="0 0 51 51" fill="none" xmlns="http://www.w3.org/2000/svg">
    <g clip-path="url(#liplbjhnfa)">
        <path d="M17.89 28.954c2.367 2.83 5.217 5.057 8.47 6.634 1.238.587 2.893 1.283 4.739 1.402.114.005.223.01.338.01 1.238 0 2.233-.428 3.043-1.308.005-.005.015-.015.02-.025.288-.348.617-.661.96-.994.234-.224.472-.458.701-.697 1.06-1.104 1.06-2.506-.01-3.575l-2.989-2.99c-.507-.526-1.114-.805-1.75-.805-.637 0-1.248.279-1.77.801l-1.781 1.78c-.164-.094-.333-.179-.492-.258a6.118 6.118 0 0 1-.547-.299c-1.622-1.03-3.094-2.372-4.501-4.098-.711-.9-1.189-1.655-1.522-2.426a29.88 29.88 0 0 0 1.328-1.298c.15-.154.303-.309.458-.463.537-.537.825-1.159.825-1.79 0-.632-.283-1.253-.825-1.79l-1.482-1.482c-.174-.174-.338-.343-.508-.518a27.362 27.362 0 0 0-1.01-1c-.511-.501-1.113-.765-1.75-.765-.631 0-1.238.264-1.77.77l-1.86 1.86a3.821 3.821 0 0 0-1.139 2.447c-.094 1.19.124 2.452.691 3.979.87 2.362 2.184 4.555 4.133 6.898zm-3.61-10.772a2.63 2.63 0 0 1 .79-1.69l1.85-1.85c.289-.28.607-.424.915-.424.304 0 .612.145.895.433.334.308.647.632.985.975.17.174.343.348.517.527l1.482 1.482c.309.308.468.621.468.93 0 .308-.16.621-.468.93-.154.154-.308.313-.462.467-.463.468-.895.91-1.373 1.333l-.025.025c-.412.413-.348.806-.248 1.104l.015.04c.383.92.915 1.795 1.745 2.84 1.492 1.84 3.064 3.267 4.794 4.366.214.139.443.248.657.358.199.1.383.194.547.298l.054.03c.165.084.324.124.483.124.398 0 .656-.253.74-.338l1.86-1.86c.29-.288.602-.442.91-.442.379 0 .687.233.881.442l2.999 2.994c.597.597.592 1.243-.015 1.875-.209.224-.428.438-.662.661-.348.338-.71.687-1.039 1.08-.572.616-1.253.904-2.133.904-.085 0-.174-.005-.259-.01-1.631-.104-3.148-.74-4.287-1.282-3.093-1.497-5.808-3.62-8.061-6.316-1.855-2.233-3.103-4.312-3.929-6.54-.512-1.367-.706-2.466-.626-3.466z" fill="#fff"/>
    </g>
    <path d="M25.054 1.567A23.486 23.486 0 1 1 1.568 25.052 23.516 23.516 0 0 1 25.054 1.567zm0-1.567a25.055 25.055 0 1 0 .002 50.11A25.055 25.055 0 0 0 25.054 0z" fill="#fff"/>
    <defs>
        <clipPath id="liplbjhnfa">
            <path fill="#fff" transform="translate(13 13)" d="M0 0h24v24H0z"/>
        </clipPath>
    </defs>
</svg>
