<svg width="27" height="27" viewBox="0 0 27 27" fill="none" xmlns="http://www.w3.org/2000/svg">
    <g clip-path="url(#101tbiow1a)">
        <path d="M15.75 14.625H18v2.25h-2.25v-2.25zm4.5 2.25h2.25v-2.25h-2.25v2.25zm-4.5 4.5H18v-2.25h-2.25v2.25zm4.5 0h2.25v-2.25h-2.25v2.25zm-4.5-13.5H18v-2.25h-2.25v2.25zm4.5 0h2.25v-2.25h-2.25v2.25zm-4.5 4.5H18v-2.25h-2.25v2.25zm4.5 0h2.25v-2.25h-2.25v2.25zm6.75-9V27H0V9.933c0-.902.351-1.75.989-2.388L4.034 4.5c1.45-1.451 3.982-1.451 5.432 0l1.784 1.784V3.375A3.38 3.38 0 0 1 14.625 0h9A3.38 3.38 0 0 1 27 3.375zM11.25 9.933c0-.3-.117-.584-.33-.797L7.875 6.091c-.592-.592-1.658-.592-2.25 0L2.58 9.136c-.213.213-.33.495-.33.797V24.75h9V9.933zm13.5-6.558c0-.62-.505-1.125-1.125-1.125h-9c-.62 0-1.125.505-1.125 1.125V24.75h11.25V3.375zm-19.125 13.5h2.25v-2.25h-2.25v2.25zm0-4.5h2.25v-2.25h-2.25v2.25zm0 9h2.25v-2.25h-2.25v2.25z" fill="#2C64F6"/>
    </g>
    <defs>
        <clipPath id="101tbiow1a">
            <path fill="#fff" d="M0 0h27v27H0z"/>
        </clipPath>
    </defs>
</svg>
