<svg width="41" height="41" viewBox="0 0 41 41" fill="none" xmlns="http://www.w3.org/2000/svg">
    <path d="M20.055 0a20.055 20.055 0 1 0 0 40.11 20.055 20.055 0 0 0 0-40.11zm0 38.773a18.718 18.718 0 1 1 0-37.435 18.718 18.718 0 0 1 0 37.435z" fill="#fff"/>
    <path d="M29.59 11.882H10.519a.681.681 0 0 0-.681.681v14.984a.681.681 0 0 0 .68.681H29.59a.68.68 0 0 0 .68-.68V12.562a.681.681 0 0 0-.68-.68zm-1.84 1.362-7.7 6.6-7.7-6.6h15.4zM11.2 26.866V14.044l8.41 7.21a.68.68 0 0 0 .886 0l8.412-7.21v12.823H11.2z" fill="#fff"/>
</svg>
