<svg width="16" height="16" viewBox="0 0 16 16" fill="none" xmlns="http://www.w3.org/2000/svg">
    <g clip-path="url(#ubcgppnhsa)">
        <path d="M12.667.667H3.333A3.337 3.337 0 0 0 0 4v8a3.337 3.337 0 0 0 3.333 3.333h9.334A3.337 3.337 0 0 0 16 12V4A3.338 3.338 0 0 0 12.667.667zM3.333 2h9.334a2 2 0 0 1 1.853 1.258L9.415 8.364a2.005 2.005 0 0 1-2.83 0L1.48 3.258A2 2 0 0 1 3.333 2zm9.334 12H3.333a2 2 0 0 1-2-2V5l4.31 4.307a3.338 3.338 0 0 0 4.714 0L14.667 5v7a2 2 0 0 1-2 2z" fill="#000"/>
    </g>
    <defs>
        <clipPath id="ubcgppnhsa">
            <path fill="#fff" d="M0 0h16v16H0z"/>
        </clipPath>
    </defs>
</svg>
