<svg width="70" height="70" viewBox="0 0 70 70" fill="none" xmlns="http://www.w3.org/2000/svg">
    <path d="M35.001 12.834a22.168 22.168 0 1 0 0 44.335 22.168 22.168 0 0 0 0-44.335zm0 42a19.836 19.836 0 1 1 0-39.672 19.836 19.836 0 0 1 0 39.671z" fill="#2C64F6"/>
    <path d="M68.833 29.166h-5.261a28.466 28.466 0 0 0-4.247-10.246l3.722-3.721a1.22 1.22 0 0 0 .339-.829 1.206 1.206 0 0 0-.34-.828l-6.59-6.589a1.22 1.22 0 0 0-1.658 0l-3.721 3.728a28.467 28.467 0 0 0-10.243-4.247V1.167A1.167 1.167 0 0 0 39.671 0h-9.338a1.167 1.167 0 0 0-1.167 1.167v5.261a28.467 28.467 0 0 0-10.246 4.253l-3.718-3.728a1.176 1.176 0 0 0-1.657 0l-6.592 6.592a1.176 1.176 0 0 0 0 1.657l3.728 3.718a28.467 28.467 0 0 0-4.247 10.243H1.167A1.168 1.168 0 0 0 0 30.333v9.338a1.167 1.167 0 0 0 1.167 1.168h5.261a28.468 28.468 0 0 0 4.253 10.238l-3.728 3.721a1.176 1.176 0 0 0 0 1.657l6.592 6.592a1.176 1.176 0 0 0 1.657 0l3.718-3.722a28.467 28.467 0 0 0 10.243 4.247v5.26A1.167 1.167 0 0 0 30.33 70h9.341a1.167 1.167 0 0 0 1.168-1.167v-5.261c3.66-.73 7.14-2.174 10.242-4.247l3.722 3.722a1.183 1.183 0 0 0 1.657 0l6.587-6.592c.215-.222.336-.519.339-.828a1.22 1.22 0 0 0-.34-.829l-3.72-3.721a28.468 28.468 0 0 0 4.246-10.243h5.26A1.167 1.167 0 0 0 70 39.671v-9.338a1.167 1.167 0 0 0-1.167-1.167zm-1.168 9.333h-5.062a1.167 1.167 0 0 0-1.155.97 26.214 26.214 0 0 1-4.578 11.07 1.168 1.168 0 0 0 .116 1.505l3.589 3.583-4.948 4.948-3.581-3.595a1.168 1.168 0 0 0-1.505-.116 26.214 26.214 0 0 1-11.071 4.578 1.167 1.167 0 0 0-.969 1.155v5.062h-7v-5.056a1.167 1.167 0 0 0-.97-1.155 26.215 26.215 0 0 1-11.07-4.578 1.168 1.168 0 0 0-1.505.116l-3.583 3.589-4.946-4.948 3.593-3.581a1.168 1.168 0 0 0 .116-1.505A26.214 26.214 0 0 1 8.558 39.47a1.167 1.167 0 0 0-1.155-.969h-5.07v-7h5.064a1.167 1.167 0 0 0 1.148-.97 26.215 26.215 0 0 1 4.577-11.07 1.167 1.167 0 0 0-.116-1.505l-3.58-3.583 4.947-4.946 3.581 3.593a1.168 1.168 0 0 0 1.505.116A26.214 26.214 0 0 1 30.53 8.558a1.167 1.167 0 0 0 .969-1.155v-5.07h7v5.064a1.167 1.167 0 0 0 .97 1.155 26.214 26.214 0 0 1 11.07 4.578 1.168 1.168 0 0 0 1.505-.116l3.581-3.594 4.95 4.953-3.593 3.581a1.167 1.167 0 0 0-.116 1.505 26.215 26.215 0 0 1 4.577 11.071 1.167 1.167 0 0 0 1.155.969h5.063l.004 7z" fill="#242933"/>
    <path d="m40.776 34.172.314-.314a7.02 7.02 0 0 0 8.342-9.321 1.167 1.167 0 0 0-1.913-.41l-2.45 2.451-1.237-.409-.409-1.236 2.45-2.45a1.167 1.167 0 0 0 .062-1.582 1.148 1.148 0 0 0-.47-.327 7.019 7.019 0 0 0-9.321 8.336l-2.788 2.788-3.78-3.78a1.196 1.196 0 0 0 .27-1.22l-.889-2.518a1.193 1.193 0 0 0-.502-.618l-4.072-2.416a1.167 1.167 0 0 0-1.412.176l-1.657 1.657a1.168 1.168 0 0 0-.175 1.411l2.417 4.062c.142.233.36.41.618.502l2.53.886c.124.046.254.07.385.07.312-.003.61-.128.829-.349l3.78 3.78-2.788 2.803a7.02 7.02 0 0 0-8.342 9.32 1.148 1.148 0 0 0 .84.724 1.179 1.179 0 0 0 1.069-.314l2.45-2.45 1.236.408.41 1.236-2.445 2.457a1.167 1.167 0 0 0-.061 1.581c.126.147.288.26.47.328a7.173 7.173 0 0 0 2.543.477 7.02 7.02 0 0 0 6.778-8.82l.314-.315 7.082 7.081a4.669 4.669 0 1 0 6.603-6.603l-7.081-7.082zm-13.989-6.767-1.446-.512-1.727-2.918.361-.361 2.918 1.727.512 1.446-.618.618zM31.7 39.948a1.196 1.196 0 0 0-.256 1.248 4.716 4.716 0 0 1-1.05 5.017 4.658 4.658 0 0 1-3.01 1.353l1.367-1.353a1.198 1.198 0 0 0 .28-1.203l-.828-2.473a1.154 1.154 0 0 0-.736-.736l-2.473-.828a1.381 1.381 0 0 0-.374-.058c-.31 0-.608.12-.828.339l-1.354 1.365a4.659 4.659 0 0 1 1.354-3.01 4.717 4.717 0 0 1 5.017-1.05 1.196 1.196 0 0 0 1.248-.256L33.358 35l1.644 1.645-3.303 3.302zm6.604-9.894a1.198 1.198 0 0 0 .256-1.248 4.717 4.717 0 0 1 1.05-5.017 4.659 4.659 0 0 1 3.01-1.353l-1.365 1.353a1.2 1.2 0 0 0-.281 1.202l.828 2.474a1.154 1.154 0 0 0 .736.735l2.473.829a1.2 1.2 0 0 0 1.203-.281l1.353-1.364a4.658 4.658 0 0 1-1.354 3.01 4.717 4.717 0 0 1-5.016 1.05 1.197 1.197 0 0 0-1.248.257L36.645 35 35 33.344l3.302-3.29zm7.91 16.159a2.405 2.405 0 0 1-3.302 0l-7.082-7.08 1.645-1.657 1.659-1.647 7.081 7.082a2.351 2.351 0 0 1-.002 3.302z" fill="#2C64F6"/>
</svg>
