<svg width="71" height="71" viewBox="0 0 71 71" fill="none" xmlns="http://www.w3.org/2000/svg">
    <path d="M26.08 22.713h-1.166a1.165 1.165 0 1 0 0 2.328h1.166a1.165 1.165 0 1 0 0-2.328zM30.744 22.713h-1.166a1.166 1.166 0 1 0 0 2.328h1.166a1.166 1.166 0 1 0 0-2.328zM35.412 22.713h-1.166a1.166 1.166 0 1 0 0 2.328h1.166a1.166 1.166 0 1 0 0-2.328zM44.23 38.074l-3.5-2.329a1.166 1.166 0 0 0-1.827 1.196 1.168 1.168 0 0 0 .533.745l2.047 1.363-2.043 1.363a1.166 1.166 0 0 0-.032 1.974 1.165 1.165 0 0 0 1.327-.034l3.499-2.328a1.166 1.166 0 0 0 0-1.94l-.005-.01zM31.72 36.063a1.167 1.167 0 0 0-1.618-.323l-3.499 2.33a1.165 1.165 0 0 0 0 1.94l3.5 2.328a1.168 1.168 0 0 0 1.294-1.94l-2.054-1.354 2.043-1.363a1.165 1.165 0 0 0 .326-1.618h.008zM36.866 33.248a1.165 1.165 0 0 0-1.415.847l-2.328 9.331a1.165 1.165 0 1 0 2.262.567l2.328-9.331a1.165 1.165 0 0 0-.847-1.414z" fill="#2C64F6"/>
    <path d="M56.412 13.382a14.13 14.13 0 0 0-3.977.571 17.506 17.506 0 0 0-34.038 0A13.991 13.991 0 0 0 5.088 37.796v17.579a3.51 3.51 0 0 0 3.5 3.5h19.83v4.667h-5.833a3.51 3.51 0 0 0-3.5 3.499v2.329a1.166 1.166 0 0 0 1.167 1.165H50.58a1.166 1.166 0 0 0 1.166-1.165V67.04a3.51 3.51 0 0 0-3.499-3.5h-5.832v-4.665h19.831a3.51 3.51 0 0 0 3.5-3.5v-17.59a13.971 13.971 0 0 0-9.334-24.404zm-8.165 52.492a1.166 1.166 0 0 1 1.166 1.165v1.166H21.419V67.04a1.165 1.165 0 0 1 1.166-1.165h25.662zM30.75 63.545v-4.67h9.332v4.667l-9.332.003zm32.662-8.165a1.166 1.166 0 0 1-1.166 1.165H8.587a1.166 1.166 0 0 1-1.166-1.165v-3.504h55.991v3.504zM48.247 28.547v20.996H22.585V28.547h25.662zm-25.662-2.329v-3.505a1.166 1.166 0 0 1 1.166-1.166h23.33a1.166 1.166 0 0 1 1.166 1.166v3.5l-25.662.005zM57.58 38.987V32.53l1.504 1.517a1.172 1.172 0 0 0 1.656-1.656l-3.502-3.507a1.175 1.175 0 0 0-1.656 0l-3.5 3.499a1.17 1.17 0 1 0 1.657 1.656l1.505-1.516v7.687a1.166 1.166 0 0 0 1.165 1.166 13.96 13.96 0 0 0 7-1.89v10.055H50.58V22.713a3.51 3.51 0 0 0-3.499-3.499H23.752a3.51 3.51 0 0 0-3.499 3.5v26.829H7.421V39.488a13.88 13.88 0 0 0 5.833 1.843v4.24l-1.5-1.522a1.172 1.172 0 0 0-1.656 1.656l3.499 3.5a1.183 1.183 0 0 0 1.656 0l3.487-3.5a1.171 1.171 0 0 0-1.657-1.656l-1.496 1.521v-5.358a1.166 1.166 0 0 0-1.166-1.166 11.664 11.664 0 1 1 4.421-22.466 1.166 1.166 0 0 0 1.598-.899 15.165 15.165 0 0 1 29.96 0 1.164 1.164 0 0 0 1.598.899 11.665 11.665 0 1 1 5.588 22.408l-.006-.001z" fill="#242933"/>
    <path d="M36.584 53.042h-2.329a1.165 1.165 0 1 0 0 2.328h2.329a1.166 1.166 0 1 0 0-2.328z" fill="#2C64F6"/>
</svg>
