<svg width="70" height="71" viewBox="0 0 70 71" fill="none" xmlns="http://www.w3.org/2000/svg">
    <path d="m69.877 33.953-4.662-9.423a1.147 1.147 0 0 0-1.038-.648h-.887l-1.167-1.178h2.053c.309 0 .606-.124.825-.345.218-.221.341-.52.341-.833V16.82a1.187 1.187 0 0 0-.337-.841 1.168 1.168 0 0 0-.83-.35h-2.057l1.46-1.46a1.193 1.193 0 0 0 0-1.673L60.274 9.17a1.17 1.17 0 0 0-1.656 0l-1.447 1.473V8.57c0-.313-.123-.612-.342-.833a1.161 1.161 0 0 0-.825-.345h-4.662c-.309 0-.606.124-.825.345-.218.22-.342.52-.342.833v2.072L48.73 9.169a1.17 1.17 0 0 0-1.657 0l-3.308 3.333a1.193 1.193 0 0 0 0 1.673l1.46 1.46H43.17c-.31 0-.606.124-.825.345-.219.221-.342.52-.342.833v4.707c0 .312.123.612.342.833.219.22.516.345.825.345h2.048l-1.167 1.178h-6.714v-2.433a3.513 3.513 0 0 1 1.143-2.603 10.608 10.608 0 0 0 2.937-4.422c.59-1.702.74-3.528.436-5.306a10.649 10.649 0 0 0-2.173-4.85 10.509 10.509 0 0 0-4.234-3.174 1.157 1.157 0 0 0-1.096.114 1.174 1.174 0 0 0-.514.985v8.108l-2.334 1.57-2.332-1.57v-8.11a1.186 1.186 0 0 0-.514-.984 1.16 1.16 0 0 0-1.096-.114 10.51 10.51 0 0 0-4.235 3.173 10.649 10.649 0 0 0-2.172 4.851 10.697 10.697 0 0 0 .437 5.306 10.607 10.607 0 0 0 2.936 4.422c.362.328.65.73.848 1.178.197.448.298.934.296 1.424v2.438h-1.167a1.133 1.133 0 0 0-1.038.648l-4.661 9.423a1.187 1.187 0 0 0 .47 1.557c.173.099.369.15.568.151h3.5v14.395l-2.33.588v-2.023c0-.313-.123-.612-.342-.833a1.161 1.161 0 0 0-.825-.345H10.5c-.31 0-.606.124-.825.345-.219.22-.342.52-.342.833v1.178H1.167c-.31 0-.606.124-.825.345-.22.22-.342.52-.342.833v16.49c0 .313.123.613.342.834.219.22.515.345.825.345h8.167v1.178c0 .312.123.612.342.833.219.22.516.345.825.345h9.334c.31 0 .607-.124.825-.345.22-.221.342-.52.342-.833v-1.627l1.506.754a8.173 8.173 0 0 0 3.652.873h17.465a8.021 8.021 0 0 0 4.084-1.108L67.31 57.288a4.692 4.692 0 0 0 1.935-2.191c.398-.92.493-1.944.273-2.923a4.714 4.714 0 0 0-1.497-2.517 4.639 4.639 0 0 0-2.683-1.132V35.662h3.498a1.16 1.16 0 0 0 .99-.562 1.186 1.186 0 0 0 .048-1.147h.002zM9.334 66.286H2.331V52.152h7.003v14.134zm9.334 2.353h-7V49.796h7v18.843zm25.669-48.291v-2.353h2.746c.25-.001.494-.082.696-.233.201-.15.35-.362.424-.604a2.81 2.81 0 0 1 .199-.483 1.189 1.189 0 0 0-.21-1.379L46.24 13.34l1.656-1.673 1.937 1.968a1.163 1.163 0 0 0 1.365.211c.153-.082.314-.149.479-.2.24-.075.449-.225.598-.429.149-.203.23-.45.23-.702V9.745h2.331v2.77c0 .252.081.498.23.702.15.203.359.353.598.428.166.052.326.12.479.2a1.157 1.157 0 0 0 1.366-.21l1.936-1.968L61.1 13.34l-1.948 1.955a1.182 1.182 0 0 0-.21 1.379c.081.154.148.316.199.483.074.242.223.453.424.604.202.15.446.231.696.232h2.743v2.353h-2.741c-.25 0-.495.082-.696.233-.202.15-.35.362-.425.603a2.799 2.799 0 0 1-.199.484 1.188 1.188 0 0 0 .21 1.378l.841.837H47.347l.84-.837a1.182 1.182 0 0 0 .21-1.378 2.815 2.815 0 0 1-.199-.484 1.187 1.187 0 0 0-.424-.603 1.17 1.17 0 0 0-.696-.233l-2.741.002zm1.167 9.706 2.461 4.958a1.147 1.147 0 0 0 1.038.648h14v13.287c-.116.06-.245.118-.361.177l-11.376 6.631a4.649 4.649 0 0 0-2.642-1.92L45.498 53l.006-22.946zm-22.17-19.131a8.286 8.286 0 0 1 .925-3.82 8.2 8.2 0 0 1 2.577-2.95v6.77a1.188 1.188 0 0 0 .525.977l3.5 2.353a1.116 1.116 0 0 0 1.284 0l3.501-2.353a1.174 1.174 0 0 0 .525-.977v-6.77a8.218 8.218 0 0 1 2.459 2.73 8.304 8.304 0 0 1 .431 7.18 8.245 8.245 0 0 1-2.113 3.01 5.794 5.794 0 0 0-1.436 1.975 5.842 5.842 0 0 0-.5 2.396v2.438h-2.33v-3.534a1.187 1.187 0 0 0-.32-.872 1.168 1.168 0 0 0-.846-.367 1.158 1.158 0 0 0-.846.367 1.18 1.18 0 0 0-.32.872v3.534h-2.33v-2.44a5.872 5.872 0 0 0-.498-2.393 5.821 5.821 0 0 0-1.428-1.977 8.19 8.19 0 0 1-2.036-2.774 8.261 8.261 0 0 1-.723-3.375zm-1.61 22.382 3.502-7.067h17.221l-3.5 7.067H21.725zm21.445-3.25v22.309L31.22 49.137a8.046 8.046 0 0 0-4.096-.036l-1.46.365V35.662h14.001a1.133 1.133 0 0 0 1.038-.648l2.465-4.959zm23.814 21.978c.31.539.397 1.18.24 1.783a2.351 2.351 0 0 1-1.08 1.433L46.542 66.675a5.771 5.771 0 0 1-2.917.785H26.158a5.736 5.736 0 0 1-2.614-.628l-2.543-1.283v-12.48l6.681-1.684a5.738 5.738 0 0 1 2.93.023l17.403 4.707c.448.117.85.367 1.157.717a2.356 2.356 0 0 1 .337 2.6 2.337 2.337 0 0 1-.934.994 2.26 2.26 0 0 1-1.763.235l-13.92-3.765c-.3-.081-.62-.039-.889.118s-.465.416-.545.719c-.08.303-.038.626.117.898.155.271.411.47.712.55l13.92 3.766a4.535 4.535 0 0 0 3.535-.47c.532-.31.998-.721 1.371-1.212a4.703 4.703 0 0 0 .804-1.652c.13-.52.173-1.057.129-1.59l11.749-6.845a2.344 2.344 0 0 1 1.766-.227c.596.16 1.106.548 1.422 1.082zM49.724 33.305l-3.5-7.067h17.224l3.501 7.067H49.724z" fill="#242933"/>
    <path d="M58.338 19.165c0-.93-.273-1.84-.786-2.615a4.671 4.671 0 0 0-2.092-1.733 4.62 4.62 0 0 0-2.693-.268 4.648 4.648 0 0 0-2.387 1.288 4.72 4.72 0 0 0-1.276 2.41c-.18.913-.087 1.859.266 2.719.352.86.95 1.595 1.716 2.112a4.63 4.63 0 0 0 5.887-.585 4.73 4.73 0 0 0 1.365-3.328zm-4.662 2.353c-.46 0-.911-.138-1.295-.397a2.348 2.348 0 0 1-.858-1.056 2.373 2.373 0 0 1 .505-2.564 2.311 2.311 0 0 1 2.54-.51c.426.178.79.48 1.046.867s.393.841.393 1.307a2.37 2.37 0 0 1-.684 1.673 2.33 2.33 0 0 1-1.658.688l.011-.008z" fill="#2C64F6"/>
</svg>
