<svg width="70" height="70" viewBox="0 0 70 70" fill="none" xmlns="http://www.w3.org/2000/svg">
    <path d="M64.355 54.194h-26.08a3.395 3.395 0 0 0-.698-1.369l-6.236-7.269a1.13 1.13 0 0 0-.857-.395h-12.42v-1.129a1.129 1.129 0 0 0-1.128-1.129H1.129A1.129 1.129 0 0 0 0 44.033V68.87A1.129 1.129 0 0 0 1.129 70h9.032a1.13 1.13 0 0 0 1.13-1.13v-1.128h5.645a1.129 1.129 0 0 0 1.128-1.13v-1.128h7.565l6.49 4.326a1.129 1.129 0 0 0 .864.164l36.13-7.903A1.13 1.13 0 0 0 70 60.968v-1.13a5.652 5.652 0 0 0-5.645-5.645zM9.032 67.742H2.258v-22.58h6.774v22.58zm6.774-2.258H11.29V45.16h4.517v20.323zm51.936-5.42-34.774 7.602-6.375-4.25a1.136 1.136 0 0 0-.625-.19h-7.904V47.419h11.9l5.893 6.875c.175.205.272.465.272.735v1.423A1.129 1.129 0 0 1 35 57.58h-1.322a1.129 1.129 0 0 1-.8-.331l-4.983-4.984-1.596 1.597 4.983 4.983a3.363 3.363 0 0 0 2.396.993H35a3.387 3.387 0 0 0 3.387-3.387h25.968a3.387 3.387 0 0 1 3.387 3.387v.226zM68.871 33.871h-2.258V9.032a3.387 3.387 0 0 0-3.387-3.387h-7.964a.869.869 0 0 0-.053-.08l-3.193-3.194a1.129 1.129 0 0 0-1.597 0l-1.172 1.172a11.228 11.228 0 0 0-1.828-.759V1.13A1.13 1.13 0 0 0 46.29 0h-4.516a1.13 1.13 0 0 0-1.129 1.129v1.655a11.22 11.22 0 0 0-1.828.759L37.645 2.37a1.129 1.129 0 0 0-1.596 0l-3.194 3.194a.906.906 0 0 0-.052.08h-7.964a3.387 3.387 0 0 0-3.387 3.387v6.774H1.129A1.13 1.13 0 0 0 0 16.936v13.548a1.129 1.129 0 0 0 1.129 1.129h20.323v2.258h-2.259A1.129 1.129 0 0 0 18.064 35v4.516a3.387 3.387 0 0 0 3.388 3.387h45.16A3.387 3.387 0 0 0 70 39.516V35a1.13 1.13 0 0 0-1.129-1.129zM64.355 9.032v24.839h-2.258v-22.58a1.13 1.13 0 0 0-1.13-1.13h-6.17a11.22 11.22 0 0 0-.76-1.828l.43-.43h8.759a1.13 1.13 0 0 1 1.129 1.13zm-35 21.452V16.935a1.13 1.13 0 0 0-1.13-1.128v-3.388h2.259v3.387a1.129 1.129 0 0 0 1.129 1.13h1.655c.199.63.453 1.242.759 1.827l-1.172 1.172a1.13 1.13 0 0 0 0 1.597l3.194 3.194a1.129 1.129 0 0 0 1.596 0l1.172-1.172c.586.306 1.198.56 1.828.759v1.655a1.13 1.13 0 0 0 1.13 1.129h4.515a1.13 1.13 0 0 0 1.13-1.13v-1.654c.63-.2 1.241-.454 1.827-.76l1.172 1.173a1.129 1.129 0 0 0 1.597 0l3.194-3.194a1.13 1.13 0 0 0 0-1.597l-1.171-1.172c.306-.585.56-1.197.758-1.828h1.655a1.13 1.13 0 0 0 1.129-1.128v-3.388h2.258v21.452H28.226v-2.258a1.13 1.13 0 0 0 1.129-1.13zm5.878-18.943a8.938 8.938 0 0 1 1.16-2.792 1.13 1.13 0 0 0-.158-1.401l-.984-.985 1.596-1.596.985.984a1.129 1.129 0 0 0 1.4.157 8.94 8.94 0 0 1 2.793-1.16 1.13 1.13 0 0 0 .878-1.101V2.258h2.258v1.389a1.129 1.129 0 0 0 .879 1.102c.99.225 1.934.617 2.792 1.16a1.129 1.129 0 0 0 1.4-.158l.985-.984 1.597 1.596-.985.985a1.129 1.129 0 0 0-.157 1.4 8.936 8.936 0 0 1 1.16 2.793 1.13 1.13 0 0 0 1.102.878h1.389v2.258h-1.39a1.13 1.13 0 0 0-1.101.879 8.935 8.935 0 0 1-1.16 2.792 1.13 1.13 0 0 0 .157 1.401l.985.985-1.597 1.596-.984-.984a1.129 1.129 0 0 0-1.4-.157 8.955 8.955 0 0 1-2.792 1.16 1.128 1.128 0 0 0-.88 1.1v1.39h-2.258v-1.39a1.129 1.129 0 0 0-.88-1.1 8.955 8.955 0 0 1-2.791-1.16 1.13 1.13 0 0 0-1.4.157l-.985.984-1.596-1.596.984-.985a1.13 1.13 0 0 0 .157-1.401 8.938 8.938 0 0 1-1.16-2.792 1.13 1.13 0 0 0-1.101-.879h-1.39V12.42h1.39a1.13 1.13 0 0 0 1.102-.878zM23.71 9.032a1.129 1.129 0 0 1 1.129-1.129h8.758l.43.43a11.21 11.21 0 0 0-.759 1.828h-6.171a1.129 1.129 0 0 0-1.13 1.13v4.515H23.71V9.032zM2.258 18.064h24.839v11.29H2.258v-11.29zM23.71 31.613h2.258v2.258H23.71v-2.258zm44.032 7.903a1.13 1.13 0 0 1-1.13 1.13h-45.16a1.13 1.13 0 0 1-1.13-1.13V36.13h47.42v3.387z" fill="#000"/>
    <path d="M44.032 20.323a6.774 6.774 0 1 0-6.774-6.774 6.781 6.781 0 0 0 6.774 6.774zm0-11.29a4.516 4.516 0 1 1 0 9.031 4.516 4.516 0 0 1 0-9.032zM8.234 19.524l-3.387 3.387a1.129 1.129 0 0 0 0 1.597l3.387 3.387 1.597-1.596-2.59-2.59 2.59-2.588-1.597-1.597zM21.12 19.524l-1.596 1.597 2.59 2.589-2.59 2.588 1.597 1.597 3.387-3.387a1.13 1.13 0 0 0 0-1.597l-3.387-3.387zM15.926 18.689 11.41 27.72l2.02 1.01 4.516-9.033-2.02-1.01z" fill="#2C64F6"/>
</svg>
