<svg width="115" height="21" viewBox="0 0 115 21" fill="none" xmlns="http://www.w3.org/2000/svg">
    <path d="M0 10.5h44M71 10.5h44" stroke="#2C64F6" stroke-width="2"/>
    <path d="M62.495 1.979A7.29 7.29 0 0 0 54.892.486a7.732 7.732 0 0 0-4.825 6.28 7.9 7.9 0 0 0 2.327 6.712 5.5 5.5 0 0 1 1.776 3.949v.139a3.138 3.138 0 0 0 3.074 3.191h.517a3.138 3.138 0 0 0 3.074-3.191v-.474a4.673 4.673 0 0 1 1.61-3.459 7.976 7.976 0 0 0 .05-11.656v.002zm-4.735 17.05h-.517a1.438 1.438 0 0 1-1.408-1.462l-.007-.268h3.34v.268a1.437 1.437 0 0 1-1.409 1.462h.001zm3.582-6.695a6.667 6.667 0 0 0-1.969 3.235h-1.038V9.356a2.59 2.59 0 0 0 1.67-2.436.834.834 0 1 0-1.666 0 .834.834 0 1 1-1.666 0 .834.834 0 0 0-1.668 0 2.59 2.59 0 0 0 1.664 2.436v6.213h-1.1a7.51 7.51 0 0 0-2.04-3.357 6.211 6.211 0 0 1-1.568-6.31 5.888 5.888 0 0 1 4.858-4.131c.23-.027.46-.04.69-.04 1.441 0 2.828.55 3.876 1.538a6.2 6.2 0 0 1-.04 9.064l-.003.001z" fill="#2C64F6"/>
</svg>
