<svg width="40" height="40" viewBox="0 0 40 40" fill="none" xmlns="http://www.w3.org/2000/svg">
    <path d="M23.57 14.228A6.234 6.234 0 0 0 17.342 8a6.234 6.234 0 0 0-6.228 6.228 6.234 6.234 0 0 0 6.228 6.228 6.234 6.234 0 0 0 6.228-6.228zm-6.228 4.152a4.156 4.156 0 0 1-4.152-4.152 4.156 4.156 0 0 1 4.152-4.152 4.156 4.156 0 0 1 4.152 4.152 4.156 4.156 0 0 1-4.152 4.152zm13.495 7.266a5.16 5.16 0 0 0-.266-1.639l1.889-1.088-1.036-1.8-1.892 1.09a5.199 5.199 0 0 0-2.848-1.649v-2.18h-2.076v2.18a5.195 5.195 0 0 0-2.847 1.65l-1.892-1.09-1.036 1.799 1.889 1.088a5.16 5.16 0 0 0-.266 1.64c0 .572.094 1.123.266 1.638l-1.89 1.09 1.037 1.798 1.892-1.09a5.199 5.199 0 0 0 2.847 1.65v2.18h2.076v-2.18a5.195 5.195 0 0 0 2.848-1.65l1.892 1.09 1.036-1.799-1.89-1.089a5.16 5.16 0 0 0 .267-1.639zm-5.19 3.114a3.118 3.118 0 0 1-3.115-3.114 3.118 3.118 0 0 1 3.114-3.114 3.118 3.118 0 0 1 3.114 3.114 3.118 3.118 0 0 1-3.114 3.114zM13.19 22.532h3.114v2.076H13.19a3.118 3.118 0 0 0-3.114 3.114v5.19H8v-5.19a5.196 5.196 0 0 1 5.19-5.19z" fill="#000"/>
</svg>
