<svg width="40" height="40" viewBox="0 0 40 40" fill="none" xmlns="http://www.w3.org/2000/svg">
    <path d="M33 19.98a4.327 4.327 0 0 0-2.824-4.046l-.041-.1a10.909 10.909 0 0 0-5.735-5.87l-.357-.156a4.313 4.313 0 0 0-8.083 0l-.453.204a11.04 11.04 0 0 0-5.671 5.918 4.311 4.311 0 0 0-.033 8.09l.139.325a10.941 10.941 0 0 0 5.592 5.664l.426.19a4.313 4.313 0 0 0 8.081 0l.398-.176a11.042 11.042 0 0 0 5.75-5.995A4.334 4.334 0 0 0 33 19.98zM20 9.165a2.167 2.167 0 1 1 0 4.333 2.167 2.167 0 0 1 0-4.333zm-8.68 8.65.09.034.01-.027a2.071 2.071 0 1 1-.1-.007zM20 30.831a2.166 2.166 0 1 1 0-4.333 2.166 2.166 0 0 1 0 4.333zm4.218-3.126a4.323 4.323 0 0 0-8.436 0 8.767 8.767 0 0 1-3.5-3.504 4.324 4.324 0 0 0 .027-8.428 8.872 8.872 0 0 1 3.473-3.466 4.324 4.324 0 0 0 8.433 0 8.91 8.91 0 0 1 3.477 3.459 4.323 4.323 0 0 0 .016 8.433 8.89 8.89 0 0 1-3.49 3.506zm4.449-5.559a2.166 2.166 0 1 1 0-4.332 2.166 2.166 0 0 1 0 4.332z" fill="#000"/>
</svg>
