<svg width="40" height="40" viewBox="0 0 40 40" fill="none" xmlns="http://www.w3.org/2000/svg">
    <path d="M20 15.892a4.445 4.445 0 1 0 0 8.89 4.445 4.445 0 0 0 0-8.89zm0 6.668a2.223 2.223 0 1 1 0-4.445 2.223 2.223 0 0 1 0 4.445z" fill="#000"/>
    <path d="m30.33 22.45-.494-.285a10.117 10.117 0 0 0 0-3.657l.494-.284a3.337 3.337 0 0 0-3.334-5.78l-.495.285a9.978 9.978 0 0 0-3.167-1.824v-.57a3.334 3.334 0 1 0-6.668 0v.57a9.979 9.979 0 0 0-3.166 1.829l-.497-.288a3.337 3.337 0 0 0-3.334 5.78l.493.284a10.116 10.116 0 0 0 0 3.657l-.493.284a3.336 3.336 0 0 0 3.334 5.78l.495-.286a9.976 9.976 0 0 0 3.168 1.825v.57a3.334 3.334 0 1 0 6.668 0v-.57a9.977 9.977 0 0 0 3.166-1.83l.497.288a3.336 3.336 0 1 0 3.334-5.78l-.001.001zm-2.832-4.198a7.833 7.833 0 0 1 0 4.168 1.11 1.11 0 0 0 .516 1.26l1.204.695a1.112 1.112 0 1 1-1.111 1.927l-1.207-.698a1.111 1.111 0 0 0-1.35.183 7.763 7.763 0 0 1-3.605 2.084 1.111 1.111 0 0 0-.835 1.077v1.392a1.111 1.111 0 1 1-2.223 0V28.95a1.111 1.111 0 0 0-.834-1.077 7.763 7.763 0 0 1-3.604-2.088 1.111 1.111 0 0 0-1.35-.184l-1.205.697a1.111 1.111 0 1 1-1.111-1.925l1.205-.696a1.11 1.11 0 0 0 .515-1.259 7.835 7.835 0 0 1 0-4.168 1.11 1.11 0 0 0-.517-1.255l-1.204-.696a1.112 1.112 0 0 1 1.111-1.926l1.207.698a1.112 1.112 0 0 0 1.35-.179 7.763 7.763 0 0 1 3.604-2.084 1.111 1.111 0 0 0 .835-1.081v-1.392a1.111 1.111 0 1 1 2.223 0v1.392a1.111 1.111 0 0 0 .834 1.077 7.763 7.763 0 0 1 3.605 2.088 1.112 1.112 0 0 0 1.35.184l1.205-.697a1.111 1.111 0 1 1 1.111 1.925l-1.204.696a1.112 1.112 0 0 0-.515 1.255v-.002z" fill="#000"/>
</svg>
