<svg width="30" height="32" viewBox="0 0 30 32" fill="none" xmlns="http://www.w3.org/2000/svg">
    <path d="m18.169 31.871-1.03.129H11.7a.689.689 0 0 1-.688-.689v-4.525h7.844v4.397c0 .38-.308.688-.688.688z" fill="#7A6D79"/>
    <path d="M17.698 26.786v4.525c0 .38-.308.689-.688.689h1.288c.38 0 .688-.308.688-.689v-4.525h-1.288z" fill="#685E68"/>
    <path d="m19.14 27.193-1.03.129h-7.38a.741.741 0 0 1-.742-.741v-2.205h9.894v2.076a.74.74 0 0 1-.741.741z" fill="#918291"/>
    <path d="M18.724 24.375v2.206c0 .409-.332.74-.742.74h1.288c.41 0 .741-.331.741-.74v-2.206h-1.287z" fill="#7A6D79"/>
    <path d="M25.42 10.773c0-.836-.003-1.569-.182-2.35-.034-.146.122-.29.083-.435-.047-.172-.292-.343-.347-.511-1.381-4.2-4.981-7.265-9.605-7.422-.362-.012-.717-.055-1.07-.032-4.434.293-8.194 3.31-9.555 7.402-.048.142-.285.285-.326.43-.05.17.1.342.059.516a10.69 10.69 0 0 0-.279 2.381c-.008 1.908.478 3.7 1.338 5.26.087.157-.015.378.08.53.076.124.348.18.429.3.382.566.816 1.093 1.296 1.575a5.688 5.688 0 0 1 1.674 4.007v1.73c0 .39.316.706.705.706h9.265l1.065-.132c.39 0 .706-.316.706-.705l.028-1.689c0-1.508.581-2.947 1.645-4.016.482-.484.96-.976 1.344-1.544.096-.143.318-.223.408-.37.08-.134.03-.334.105-.47.847-1.542 1.134-3.278 1.134-5.161z" fill="#F7E563"/>
    <path d="M25.527 8.371c-.034-.146.123-.29.083-.434-.047-.173-.292-.343-.347-.512-1.38-4.2-5.268-7.262-9.892-7.419-.361-.012-.72-.006-1.073.017C18.77.316 22.5 3.33 23.846 7.425c.056.169.116.312.163.484.04.144.067.316.101.462.18.781.274 1.595.274 2.43a10.75 10.75 0 0 1-1.329 5.194c-.075.137-.143.285-.224.418-.09.148-.193.28-.289.423-.383.568-.82 1.098-1.3 1.582a5.696 5.696 0 0 0-1.68 4.012v1.724c0 .39-.316.706-.706.706h1.417c.39 0 .706-.316.706-.706V22.43c0-1.508.615-2.943 1.679-4.012.482-.484.917-1.014 1.3-1.582.097-.143.319-.224.409-.371.08-.133.03-.333.105-.47a10.75 10.75 0 0 0 1.329-5.194c0-.835-.095-1.648-.274-2.43z" fill="#F9D62B"/>
    <path d="m19.528 30.015-1.739.129h-7.56a.483.483 0 0 1 0-.966h7.625l1.674.129c.267 0 .354.087.354.354s-.087.354-.354.354z" fill="#918291"/>
    <path d="M19.528 29.178h-1.803a.483.483 0 1 1 0 .966h1.803a.483.483 0 1 0 0-.966z" fill="#7A6D79"/>
    <path d="M26.89 20.368c-.372.843-1.448 1.273-3.15 1.273-.652 0-1.394-.063-2.223-.189a19.15 19.15 0 0 1-.438-.071c-2.685-.462-5.946-1.505-9.244-2.958-2.587-1.14-4.973-2.435-6.92-3.745a26.365 26.365 0 0 1-1.848-1.357C.704 11.414-.273 9.789.24 8.623c.44-.997 1.82-1.412 4.1-1.233l.402.035c-.103.31-.192.625-.266.946l-.215-.018c-1.721-.135-2.896.111-3.137.66-.236.534.31 1.75 2.548 3.556.25.202.513.405.788.608 2.047 1.511 4.762 3.04 7.763 4.362 3.271 1.44 6.494 2.468 9.12 2.907l.317.051c2.844.432 4.11.016 4.345-.519.264-.598-.46-1.735-1.937-3.04l-.008-.008-.102-.094c.183-.272.355-.552.513-.84l.24.222c1.914 1.692 2.646 3.088 2.178 4.15z" fill="#E6EDF4"/>
    <path d="M26.933 13.32a26.38 26.38 0 0 1-1.848 1.357c-1.948 1.311-4.333 2.606-6.92 3.746-3.3 1.454-6.563 2.497-9.25 2.96l-.432.07c-.83.125-1.571.188-2.222.188-1.704 0-2.78-.43-3.151-1.273-.47-1.068.271-2.473 2.205-4.175l.014-.012.207-.17c.157.285.327.563.51.831l-.099.08c-1.752 1.546-2.158 2.592-1.953 3.056.235.535 1.5.951 4.344.52l.314-.05c2.628-.44 5.851-1.468 9.124-2.91 3-1.322 5.716-2.85 7.764-4.361.275-.203.537-.406.787-.607 2.238-1.808 2.784-3.023 2.548-3.557-.239-.542-1.394-.79-3.09-.664l-.258.023a10.84 10.84 0 0 0-.263-.947l.443-.039c2.255-.168 3.616.248 4.052 1.237.514 1.166-.463 2.79-2.826 4.698z" fill="#F5F8F9"/>
    <path d="M1.366 12.06a1.159 1.159 0 1 0 0-2.318 1.159 1.159 0 0 0 0 2.317zM26.16 21.654a1.159 1.159 0 1 0 .001-2.318 1.159 1.159 0 0 0 0 2.318z" fill="#F9C900"/>
    <path d="M19.808 18.318a1.159 1.159 0 1 0 0-2.318 1.159 1.159 0 0 0 0 2.318zM28.507 12.033a.902.902 0 1 0 0-1.804.902.902 0 0 0 0 1.804z" fill="#F9D62B"/>
    <path d="M10.308 18.061a.902.902 0 1 0 0-1.804.902.902 0 0 0 0 1.804z" fill="#F9C900"/>
    <path d="M5.512 22.06a.902.902 0 1 0 0-1.804.902.902 0 0 0 0 1.805z" fill="#F9D62B"/>
    <path d="M21.337 8.228a.259.259 0 0 0-.259-.259l-1.166.01a.258.258 0 0 1-.25-.194c-.124-.488-.18-1.042-.432-1.463a.258.258 0 0 1 .04-.315l.82-.82a.259.259 0 0 0 0-.367l-1.147-1.147a.259.259 0 0 0-.366 0l-.82.82a.258.258 0 0 1-.316.04 5.116 5.116 0 0 0-1.368-.568.258.258 0 0 1-.195-.25v-1.16a.259.259 0 0 0-.259-.258h-1.622a.259.259 0 0 0-.258.258v1.16c0 .118-.08.22-.196.25a5.115 5.115 0 0 0-1.367.567.258.258 0 0 1-.316-.038l-.82-.82a.259.259 0 0 0-.366 0L9.527 4.82a.259.259 0 0 0 0 .366l.82.82c.084.084.1.214.04.316-.252.42-.445.88-.568 1.368a.258.258 0 0 1-.25.195h-1.16a.259.259 0 0 0-.259.258v1.622c0 .143.116.26.26.26h1.158c.119 0 .222.08.25.194.124.488.317.947.568 1.368a.258.258 0 0 1-.039.315l-.82.82a.259.259 0 0 0 0 .367l1.147 1.147a.259.259 0 0 0 .366 0l.82-.82a.258.258 0 0 1 .316-.04c.42.252.998.296 1.486.42a.258.258 0 0 1 .195.25l-.01 1.155c0 .143.115.259.258.259l1.396.057a.259.259 0 0 0 .259-.259V14.1c0-.118.08-.221.195-.25.487-.123 1.084-.347 1.505-.598a.258.258 0 0 1 .315.039l.82.82a.259.259 0 0 0 .366 0l.968-1.03a.259.259 0 0 0 0-.366l-.82-.82a.258.258 0 0 1-.04-.316c.252-.42.537-1.013.66-1.5a.258.258 0 0 1 .25-.195h1.16a.259.259 0 0 0 .259-.259l-.061-1.396zm-6.529 3.655a2.929 2.929 0 1 1 0-5.857 2.929 2.929 0 0 1 0 5.857z" fill="#918291"/>
    <path d="M21.208 7.885h-1.16a.258.258 0 0 1-.25-.195 5.181 5.181 0 0 0-.567-1.368 6.14 6.14 0 0 1-6.056 7.14c-.338 0-.677-.033-1-.086.42.25.884.446 1.369.568a.258.258 0 0 1 .195.25v1.16c0 .143.115.258.258.258h1.623a.259.259 0 0 0 .258-.258v-1.16c0-.118.08-.22.195-.25a5.117 5.117 0 0 0 1.368-.568.258.258 0 0 1 .315.04l.82.82a.259.259 0 0 0 .367 0l1.147-1.147a.259.259 0 0 0 0-.366l-.82-.82a.258.258 0 0 1-.04-.316c.252-.42.445-.88.568-1.368a.258.258 0 0 1 .25-.195h1.16a.259.259 0 0 0 .258-.258V8.143a.259.259 0 0 0-.258-.258z" fill="#7A6D79"/>
</svg>
