<svg width="40" height="40" viewBox="0 0 40 40" fill="none" xmlns="http://www.w3.org/2000/svg">
    <path d="M32.255 11.354a3.196 3.196 0 0 0-2.46-1.15H12.53l-.045-.375A3.204 3.204 0 0 0 9.305 7h-.237a1.068 1.068 0 0 0 0 2.136h.237a1.068 1.068 0 0 1 1.06.943l1.47 12.494a5.34 5.34 0 0 0 5.303 4.716h11.151a1.068 1.068 0 1 0 0-2.135H17.139a3.204 3.204 0 0 1-3.012-2.136h12.73a5.34 5.34 0 0 0 5.254-4.392l.839-4.65a3.2 3.2 0 0 0-.694-2.622zm-1.403 2.243-.839 4.65a3.204 3.204 0 0 1-3.158 2.635H13.787l-1.005-8.543h17.013a1.067 1.067 0 0 1 1.057 1.258zM15.476 32.629a2.136 2.136 0 1 0 0-4.272 2.136 2.136 0 0 0 0 4.272zM26.153 32.629a2.136 2.136 0 1 0 0-4.272 2.136 2.136 0 0 0 0 4.272z" fill="#000"/>
</svg>
