<svg width="40" height="40" viewBox="0 0 40 40" fill="none" xmlns="http://www.w3.org/2000/svg">
    <path d="M32.875 28.503h-9.207a3.375 3.375 0 0 0-2.043-2.043v-4.682c1.512 0 2.835-.014 3.482-.026a5.855 5.855 0 0 0 1.2-.147 5.57 5.57 0 0 0 4.162-4.163 5.64 5.64 0 0 0-4.004-6.75l-.194-.043c-.337-.075-.507-.112-.661-.482a6.75 6.75 0 0 0-12.788.964 7.16 7.16 0 0 0-.064 3.073 3.937 3.937 0 0 0 .505 7.412c.306.081.62.127.937.137.737.02 2.85.03 5.056.03h.119v4.678a3.375 3.375 0 0 0-2.043 2.042H8.125a1.125 1.125 0 1 0 0 2.25h9.207a3.355 3.355 0 0 0 6.336 0h9.207a1.125 1.125 0 1 0 0-2.25zm-18.612-9a1.908 1.908 0 0 1-.428-.064 1.657 1.657 0 0 1-1.147-1.146c-.24-.82.172-1.69.957-2.025a2.267 2.267 0 0 0 1.328-2.588 4.5 4.5 0 0 1 4.382-5.427 4.515 4.515 0 0 1 4.183 2.778 2.974 2.974 0 0 0 2.344 1.835 3.4 3.4 0 0 1 2.398 4.074 3.346 3.346 0 0 1-3.215 2.559c-.78.014-9.953.027-10.802.004zm6.237 11.25a1.125 1.125 0 1 1 0-2.25 1.125 1.125 0 0 1 0 2.25z" fill="#000"/>
</svg>
