<svg width="40" height="40" viewBox="0 0 40 40" fill="none" xmlns="http://www.w3.org/2000/svg">
    <path d="M33 21.02a7.818 7.818 0 0 1-7.148 7.778l1.44-1.979c.127-.196.237-.402.33-.617a5.729 5.729 0 0 0-2.247-10.911l-.751-.024-.215-.72a6.25 6.25 0 1 0-11.833 4.008l.331.874-.833.424a3.632 3.632 0 0 0 .015 6.487 4.004 4.004 0 0 0 .43 2.36 5.728 5.728 0 0 1-2.159-10.233A8.333 8.333 0 0 1 18.418 8a8.387 8.387 0 0 1 7.75 5.27A7.771 7.771 0 0 1 33 21.02zm-7.443 4.643-5.33 7.335H17.12l1.014-4.167h-2.009a2 2 0 0 1-1.916-2.583l2.705-7.832h6.741l-1.6 4.166h1.848a1.985 1.985 0 0 1 1.653 3.08zm-1.812-1.049-4.723.051 1.601-4.166h-2.224l-2.168 6.282 3.228-.033h1.325l-.707 2.917 3.668-5.051z" fill="#000"/>
</svg>
