<svg width="40" height="40" viewBox="0 0 40 40" fill="none" xmlns="http://www.w3.org/2000/svg">
    <path d="M20 14c-3.31 0-6 2.69-6 6s2.69 6 6 6 6-2.69 6-6c0-.54-.08-1.05-.21-1.55l1.57-1.57c.41.96.64 2.01.64 3.12 0 4.41-3.59 8-8 8s-8-3.59-8-8 3.59-8 8-8c1.11 0 2.16.23 3.12.64l-1.57 1.57c-.49-.13-1.01-.21-1.55-.21zm9.6 3.23c.26.88.4 1.81.4 2.77 0 5.51-4.49 10-10 10s-10-4.49-10-10 4.49-10 10-10c.96 0 1.89.14 2.77.4l1.57-1.57C22.99 8.3 21.53 8 20 8 13.38 8 8 13.38 8 20s5.38 12 12 12 12-5.38 12-12c0-1.53-.3-3-.83-4.34l-1.57 1.57zm-9.87-1.2C17.65 16.17 16 17.89 16 20c0 2.11 1.79 4 4 4s3.83-1.65 3.97-3.73l-1.14 1.14a3 3 0 0 1-4.24 0 3 3 0 0 1 0-4.24l1.14-1.14zm-.44 3.27 1.41 1.41L26.41 15H29l3-3h-4V8l-3 3v2.59l-5.71 5.71z" fill="#000"/>
</svg>
