<svg width="40" height="40" viewBox="0 0 40 40" fill="none" xmlns="http://www.w3.org/2000/svg">
    <path d="M18.922 31.769a1.083 1.083 0 1 1 2.166 0 1.083 1.083 0 0 1-2.166 0zm4.913-2.3a1.084 1.084 0 0 0 0-1.531 5.417 5.417 0 0 0-7.66 0 1.083 1.083 0 0 0 1.532 1.532 3.33 3.33 0 0 1 4.596 0 1.084 1.084 0 0 0 1.532 0zm3.065-3.063a1.084 1.084 0 0 0 0-1.532 9.762 9.762 0 0 0-13.79 0 1.083 1.083 0 0 0 1.532 1.532 7.596 7.596 0 0 1 10.726 0 1.084 1.084 0 0 0 1.532 0zM13.49 30.86a1.083 1.083 0 0 0-.895-1.244 4.126 4.126 0 0 1-3.384-3.184 3.763 3.763 0 0 1 1.975-3.894 2.167 2.167 0 0 0 .872-2.915 6.5 6.5 0 1 1 11.982-4.89 3.359 3.359 0 0 0 2.215 2.223 6.47 6.47 0 0 1 4.564 6.73 6.162 6.162 0 0 1-3.695 5.119 1.084 1.084 0 0 0 .93 1.956 8.275 8.275 0 0 0 4.926-6.908 8.625 8.625 0 0 0-6.089-8.967 1.179 1.179 0 0 1-.782-.796 8.668 8.668 0 0 0-16.781.912 8.43 8.43 0 0 0 .843 5.623 5.908 5.908 0 0 0-3.106 6.111 6.312 6.312 0 0 0 5.181 5.019 1.083 1.083 0 0 0 1.244-.895z" fill="#000"/>
</svg>
