<svg width="36" height="36" viewBox="0 0 36 36" fill="none" xmlns="http://www.w3.org/2000/svg">
    <path d="M34.141 12.143c0 2.709-1.565 4.326-4.277 4.326l-3.04.578h-2.71l-1.148 4.73h-9.442l-.867-4.73H7.404a6.278 6.278 0 0 1-6.282-6.274A6.278 6.278 0 0 1 7.404 4.5c.668 0 1.311.105 1.915.297.056-.145.32-.288.384-.43.078-.17-.041-.337.05-.5A7.468 7.468 0 0 1 16.298 0a7.456 7.456 0 0 1 5.683 2.62.27.27 0 0 0 .322.066c.832-.405 1.765-.463 2.752-.463 2.765 0 4.486 2.025 5.325 4.503.12.354.209.721.264 1.1 2.078.571 3.496 2.06 3.496 4.317z" fill="#F5F8F9"/>
    <path d="M34.878 12.143a4.907 4.907 0 0 1-4.91 4.904h-3.144a6.09 6.09 0 0 0 1.841-2.67c.216-.627.386-1.358.386-2.103 0-8.076-6.746-9.588-6.746-9.588a6.284 6.284 0 0 1 8.704 3.63c.057.168-.097.338-.055.512.048.193.29.389.319.588a4.906 4.906 0 0 1 3.605 4.727zM11.226 5.15a.509.509 0 0 1-.697.182 5.761 5.761 0 0 0-1.21-.536c.124-.322.269-.633.434-.93.45.15.884.347 1.293.588a.509.509 0 0 1 .18.697z" fill="#E6EDF4"/>
    <path d="M31.273 7.416a4.436 4.436 0 0 0-1.262-.156.51.51 0 0 1-.021-1.019c.34-.007.683.018 1.019.075.12.354.209.721.264 1.1zM18 34.208a.544.544 0 0 1-.544-.544V24.45a.544.544 0 1 1 1.088 0v9.215c0 .3-.244.544-.544.544z" fill="#CEE0EA"/>
    <path d="M18 36a1.506 1.506 0 1 0 0-3.013A1.506 1.506 0 0 0 18 36z" fill="#26A6FE"/>
    <path d="M32.56 25.654a.542.542 0 0 1-.385-.16l-2.36-2.36a.813.813 0 0 0-.578-.239H23.67a.544.544 0 1 1 0-1.088h5.567c.509 0 .988.199 1.348.559l2.36 2.36a.544.544 0 0 1-.385.928zM3.136 26.115a.544.544 0 0 1-.385-.928l2.664-2.665c.36-.36.839-.558 1.348-.558h5.65a.544.544 0 0 1 0 1.088h-5.65a.813.813 0 0 0-.579.24L3.52 25.954a.542.542 0 0 1-.384.16z" fill="#F5F8F9"/>
    <path d="M33.264 27.582a1.768 1.768 0 1 0 0-3.537 1.768 1.768 0 0 0 0 3.537zM2.736 27.739a1.768 1.768 0 1 0 0-3.537 1.768 1.768 0 0 0 0 3.537z" fill="#8AC9FE"/>
    <path d="M26.218 32.228a.542.542 0 0 1-.385-.16l-2.476-2.475a1.894 1.894 0 0 1-.558-1.348v-5.133a.544.544 0 1 1 1.088 0v5.133c0 .218.085.424.24.579l2.475 2.476a.544.544 0 0 1-.384.928zM9.493 32.673a.544.544 0 0 1-.385-.928l2.765-2.765a.813.813 0 0 0 .24-.578v-5.588a.544.544 0 1 1 1.087 0v5.588c0 .509-.198.987-.558 1.347l-2.764 2.765a.543.543 0 0 1-.385.159z" fill="#E6EDF4"/>
    <path d="M26.805 34.04a1.768 1.768 0 1 0 0-3.536 1.768 1.768 0 0 0 0 3.536zM9.194 34.197a1.768 1.768 0 1 0 0-3.537 1.768 1.768 0 0 0 0 3.537z" fill="#60B7FF"/>
    <path d="M26.8 16.107a.349.349 0 0 0-.349-.349l-1.572.015a.348.348 0 0 1-.338-.264c-.166-.657-.242-1.404-.58-1.972a.348.348 0 0 1 .052-.424l1.106-1.106a.349.349 0 0 0 0-.494l-1.546-1.546a.349.349 0 0 0-.494 0l-1.106 1.106a.348.348 0 0 1-.425.053 6.893 6.893 0 0 0-1.843-.766.348.348 0 0 1-.264-.337V8.46a.349.349 0 0 0-.348-.348h-2.187a.349.349 0 0 0-.349.348v1.563c0 .16-.108.298-.263.337a6.894 6.894 0 0 0-1.844.766.348.348 0 0 1-.425-.053L12.92 9.967a.349.349 0 0 0-.493 0l-1.546 1.546a.349.349 0 0 0 0 .494l1.106 1.106a.348.348 0 0 1 .052.425 6.894 6.894 0 0 0-.765 1.843.348.348 0 0 1-.337.263H9.373a.349.349 0 0 0-.349.35v2.186c0 .192.157.349.35.349h1.562c.16 0 .298.108.337.263.167.657.427 1.276.765 1.843a.348.348 0 0 1-.052.425l-1.106 1.107a.349.349 0 0 0 0 .493l1.546 1.546a.349.349 0 0 0 .493 0l1.106-1.106a.348.348 0 0 1 .425-.053c.568.34 1.347.399 2.004.565.154.039.263.178.263.337l-.014 1.558c0 .193.156.349.348.349l1.883.077a.349.349 0 0 0 .348-.349v-1.562c0-.16.109-.299.263-.338.657-.166 1.461-.467 2.029-.806a.348.348 0 0 1 .425.052l1.106 1.107a.349.349 0 0 0 .493 0l1.304-1.39a.349.349 0 0 0 0-.492l-1.106-1.106a.348.348 0 0 1-.053-.425c.34-.568.724-1.366.89-2.023a.348.348 0 0 1 .338-.263h1.563a.349.349 0 0 0 .349-.349l-.083-1.882zM18 21.035a3.948 3.948 0 1 1 0-7.897 3.948 3.948 0 0 1 0 7.897z" fill="#8AC9FE"/>
    <path d="M26.625 15.644h-1.562a.348.348 0 0 1-.338-.263 6.984 6.984 0 0 0-.765-1.844c.07.435.115.892.115 1.347a8.278 8.278 0 0 1-8.278 8.278c-.455 0-.912-.044-1.347-.114.564.335 1.192.6 1.844.765.155.039.263.178.263.337v1.563c0 .192.156.348.349.348h2.187a.349.349 0 0 0 .348-.348V24.15c0-.16.109-.298.263-.337a6.895 6.895 0 0 0 1.844-.765.348.348 0 0 1 .425.052l1.106 1.106a.349.349 0 0 0 .493 0l1.547-1.546a.349.349 0 0 0 0-.494l-1.107-1.106a.348.348 0 0 1-.052-.424 6.892 6.892 0 0 0 .765-1.844.348.348 0 0 1 .338-.264h1.562a.349.349 0 0 0 .35-.348v-2.187a.349.349 0 0 0-.35-.349z" fill="#60B7FF"/>
</svg>
