<svg width="34" height="34" viewBox="0 0 34 34" fill="none" xmlns="http://www.w3.org/2000/svg">
    <path d="M24.573 33.986a.499.499 0 0 1-.499-.499V.513a.498.498 0 1 1 .997 0v32.974a.498.498 0 0 1-.498.498zM19.534 33.986a.498.498 0 0 1-.499-.499V.513a.498.498 0 1 1 .997 0v32.974a.499.499 0 0 1-.498.498zM14.496 33.986a.499.499 0 0 1-.499-.499V.513a.498.498 0 1 1 .997 0v32.974a.499.499 0 0 1-.498.498zM9.457 33.986a.499.499 0 0 1-.498-.499V.513a.498.498 0 1 1 .997 0v32.974a.499.499 0 0 1-.498.498z" fill="#E6EDF4"/>
    <path d="M33.502 9.941H.498a.499.499 0 1 1 0-.997h33.003a.499.499 0 1 1 0 .997zM33.502 14.98H.498a.498.498 0 1 1 0-.998h33.003a.499.499 0 1 1 0 .997zM33.502 20.018H.498a.498.498 0 1 1 0-.997h33.003a.498.498 0 1 1 0 .997zM33.502 25.056H.498a.498.498 0 1 1 0-.997h33.003a.499.499 0 1 1 0 .997z" fill="#E6EDF4"/>
    <path d="M25.618 6.689v-2.63a.333.333 0 0 0-.333-.333h-1.426a.333.333 0 0 0-.333.333v2.63h2.092zM20.58 6.689v-2.63a.333.333 0 0 0-.333-.333H18.82a.333.333 0 0 0-.333.333v2.652l2.092-.022zM15.542 6.7V4.06a.333.333 0 0 0-.333-.334h-1.426a.333.333 0 0 0-.333.333V6.7h2.092zM10.504 6.61V4.06a.333.333 0 0 0-.333-.334H8.745a.333.333 0 0 0-.333.333v2.573l2.092-.023zM6.703 8.397H4.074a.333.333 0 0 0-.333.333v1.425c0 .184.15.334.333.334h2.63V8.397zM6.703 13.435H4.074a.333.333 0 0 0-.333.333v1.426c0 .184.15.333.333.333h2.652l-.023-2.092zM6.715 18.473h-2.64a.333.333 0 0 0-.334.333v1.426c0 .184.15.333.333.333h2.64v-2.092zM6.624 23.512h-2.55a.333.333 0 0 0-.333.333v1.425c0 .184.15.333.333.333h2.573l-.023-2.091zM8.412 27.312v2.629c0 .184.15.333.333.333h1.426c.184 0 .333-.15.333-.333v-2.63H8.412zM13.45 27.312v2.629c0 .184.15.333.333.333h1.426c.184 0 .333-.15.333-.333v-2.652l-2.092.023zM18.488 27.3v2.641c0 .184.15.333.333.333h1.426c.184 0 .333-.149.333-.333v-2.64h-2.092zM23.526 27.39v2.55c0 .185.15.334.333.334h1.426c.184 0 .333-.15.333-.333v-2.573l-2.092.023zM27.327 25.603h2.63c.183 0 .332-.149.332-.333v-1.425a.333.333 0 0 0-.333-.333h-2.629v2.091zM27.327 20.565h2.63c.183 0 .332-.15.332-.333v-1.426a.333.333 0 0 0-.333-.333h-2.651l.022 2.092zM27.315 15.527h2.64c.185 0 .334-.15.334-.333v-1.426a.333.333 0 0 0-.333-.333h-2.64v2.092zM27.405 10.489h2.55c.185 0 .334-.15.334-.334V8.73a.333.333 0 0 0-.333-.333h-2.573l.023 2.092z" fill="#918291"/>
    <path d="m26.683 28.11-1.662.132H7.213a1.41 1.41 0 0 1-1.41-1.41V7.228c0-.78.631-1.411 1.41-1.411h17.808l1.662.133c.78 0 1.411.631 1.411 1.41v19.337c0 .78-.632 1.411-1.41 1.411z" fill="#FE93BB"/>
    <path d="M26.816 5.818H24.89c.779 0 1.41.631 1.41 1.41v19.603c0 .78-.631 1.41-1.41 1.41h1.927c.78 0 1.411-.63 1.411-1.41V7.23c0-.78-.631-1.411-1.41-1.411z" fill="#FE76A8"/>
    <path d="m25.48 17.89-.078-1.794a.332.332 0 0 0-.332-.332l-1.499.013a.332.332 0 0 1-.322-.25c-.158-.627-.23-1.34-.553-1.88a.332.332 0 0 1 .05-.405l1.054-1.054c.13-.13.13-.34 0-.47l-1.474-1.474a.332.332 0 0 0-.47 0l-1.054 1.054a.332.332 0 0 1-.405.05 6.572 6.572 0 0 0-1.758-.729.332.332 0 0 1-.25-.322v-1.49a.332.332 0 0 0-.333-.331h-2.084a.332.332 0 0 0-.332.332v1.49a.332.332 0 0 1-.251.321 6.572 6.572 0 0 0-1.757.73.332.332 0 0 1-.405-.05l-1.055-1.055a.332.332 0 0 0-.47 0l-1.473 1.474c-.13.13-.13.34 0 .47l1.054 1.054a.332.332 0 0 1 .05.405 6.566 6.566 0 0 0-.73 1.758.332.332 0 0 1-.321.25h-1.49a.332.332 0 0 0-.332.333v2.084c0 .183.149.332.332.332h1.49c.152 0 .284.104.321.25.159.627.407 1.218.73 1.758a.332.332 0 0 1-.05.405l-1.054 1.055c-.13.13-.13.34 0 .47l1.473 1.473c.13.13.34.13.47 0l1.054-1.054a.332.332 0 0 1 .405-.05c.541.323 1.284.38 1.91.538.147.038.25.17.25.322l-.013 1.485c0 .183.149.332.332.332l1.794.074a.332.332 0 0 0 .333-.332v-1.49c0-.152.103-.284.25-.322.627-.158 1.393-.445 1.934-.768a.332.332 0 0 1 .405.05l1.054 1.054c.13.13.34.13.47 0l1.243-1.323c.13-.13.13-.34 0-.47l-1.054-1.055a.332.332 0 0 1-.05-.405c.323-.54.69-1.301.848-1.928a.332.332 0 0 1 .322-.25h1.49a.332.332 0 0 0 .332-.333z" fill="#F5F8F9"/>
    <path d="M17.014 20.793a3.763 3.763 0 1 0 0-7.526 3.763 3.763 0 0 0 0 7.526z" fill="#FE93BB"/>
    <path d="M25.236 15.655h-1.49a.332.332 0 0 1-.32-.25 6.656 6.656 0 0 0-.73-1.758c.067.414.11.85.11 1.283a7.89 7.89 0 0 1-7.891 7.89c-.433 0-.87-.041-1.283-.109.538.32 1.135.572 1.757.73.148.037.251.17.251.321v1.49c0 .183.149.332.332.332h2.085a.332.332 0 0 0 .332-.332v-1.49c0-.152.103-.284.25-.321a6.57 6.57 0 0 0 1.758-.73.332.332 0 0 1 .405.05l1.054 1.055c.13.13.34.13.47 0l1.474-1.474c.13-.13.13-.34 0-.47l-1.054-1.054a.332.332 0 0 1-.05-.405c.323-.541.57-1.132.73-1.758a.332.332 0 0 1 .32-.25h1.49a.332.332 0 0 0 .333-.333v-2.084a.332.332 0 0 0-.333-.333z" fill="#E6EDF4"/>
</svg>
