<svg width="40" height="40" viewBox="0 0 40 40" fill="none" xmlns="http://www.w3.org/2000/svg">
    <path d="M16 28.154v3.851h8V28.32a6.004 6.004 0 0 1 1.932-4.552 9 9 0 1 0-12.064-.18A6.262 6.262 0 0 1 16 28.154zm6 1.851h-4v-1.85c0-.05-.007-.1-.008-.15h4.024c0 .105-.016.21-.016.315v1.685zM13.06 16.08a6.999 6.999 0 0 1 13.894.123 7 7 0 0 1-2.34 6.061 7.655 7.655 0 0 0-2.294 3.741H21v-7.184a3 3 0 0 0 2-2.816h-2a1 1 0 0 1-2 0h-2a2.999 2.999 0 0 0 2 2.816v7.184h-1.322a8.634 8.634 0 0 0-2.448-3.88 6.96 6.96 0 0 1-2.17-6.045z" fill="#000"/>
</svg>
