<svg width="40" height="40" viewBox="0 0 40 40" fill="none" xmlns="http://www.w3.org/2000/svg">
    <path d="M35.487 23.186c-.342 3.073-2.588 5.766-5.586 6.697a7.626 7.626 0 0 1-4.584.019c-.378-.118-.793-.056-1.085.16a7.825 7.825 0 0 1-4.627 1.51 7.935 7.935 0 0 1-6.734-3.71.703.703 0 0 0-.563-.341 7.23 7.23 0 0 1-.932-.09c-4.219-.857-6.97-4.876-6.266-9.152.507-3.098 2.893-5.67 5.938-6.396a8.068 8.068 0 0 1 3.43-.082c.382.07.82-.067 1.131-.367A8.546 8.546 0 0 1 21.598 9a8.64 8.64 0 0 1 7.858 5.08c.149.328.445.587.833.728a7.944 7.944 0 0 1 5.2 8.38l-.002-.002zm-6.105-5.883c-1.068-.386-1.9-1.143-2.348-2.131a5.981 5.981 0 0 0-5.439-3.518c-1.55 0-3.02.598-4.137 1.684-.935.911-2.24 1.312-3.486 1.069a5.332 5.332 0 0 0-1.007-.096 5.63 5.63 0 0 0-1.302.156c-2.016.482-3.597 2.187-3.933 4.244-.47 2.86 1.36 5.547 4.172 6.116.117.024.316.032.526.04a3.36 3.36 0 0 1 2.686 1.577 5.292 5.292 0 0 0 4.49 2.473 5.176 5.176 0 0 0 3.064-1.003 3.91 3.91 0 0 1 3.431-.551c.99.305 2.003.3 3.014-.016 2.008-.623 3.509-2.413 3.734-4.455a5.296 5.296 0 0 0-3.464-5.588h-.001z" fill="#000"/>
</svg>
