<svg width="40" height="40" viewBox="0 0 40 40" fill="none" xmlns="http://www.w3.org/2000/svg">
    <path d="M29.076 20a9 9 0 0 0-.152-1.63L32 16.62l-3.015-5.2-3.076 1.75a9.075 9.075 0 0 0-2.884-1.65V8h-6.05v3.52a9.075 9.075 0 0 0-2.884 1.65l-3.076-1.75L8 16.62l3.076 1.75a8.918 8.918 0 0 0 0 3.26L8 23.38l3.015 5.2 3.076-1.75a9.075 9.075 0 0 0 2.884 1.65V32h6.05v-3.52a9.075 9.075 0 0 0 2.884-1.65l3.076 1.75L32 23.38l-3.076-1.75c.101-.54.152-1.09.152-1.63zm.171 4.12-1.008 1.73-2.652-1.51-.545.55a7.051 7.051 0 0 1-3.277 1.88l-.757.19V30h-2.016v-3.04l-.757-.19a7.051 7.051 0 0 1-3.277-1.88l-.545-.55-2.652 1.51-1.008-1.73 2.652-1.51-.212-.75a7.013 7.013 0 0 1-.262-1.86c0-.61.09-1.23.262-1.86l.212-.75-2.652-1.51 1.008-1.73 2.652 1.51.545-.55a7.051 7.051 0 0 1 3.277-1.88l.757-.19V10h2.016v3.04l.757.19c1.25.32 2.38.97 3.277 1.88l.545.55 2.652-1.51 1.008 1.73-2.652 1.51.212.75c.171.62.262 1.25.262 1.86 0 .61-.09 1.23-.262 1.86l-.212.75 2.652 1.51zM20.02 14.8l1.977.39-2.017 10-1.977-.39 2.017-10zm-2.33 3.54-1.724 1.71 1.725 1.69-1.422 1.41-1.724-1.71a1.968 1.968 0 0 1 0-2.81l1.724-1.71 1.422 1.41v.01zm7.775.3c.787.78.787 2.04 0 2.81l-1.724 1.71-1.422-1.41 1.725-1.71-1.725-1.7 1.422-1.41 1.724 1.71z" fill="#000"/>
</svg>
