<svg width="41" height="25" viewBox="0 0 41 25" fill="none" xmlns="http://www.w3.org/2000/svg">
    <mask id="pqqpied57a" style="mask-type:luminance" maskUnits="userSpaceOnUse" x="0" y="11" width="17" height="14">
        <path d="M.53 14.753c4.77-.682 6.399 3.912 7.496 6.057 3.5 6.846 8.934 3.03 8.934 3.03-3.937-.228-4.96-5.535-6.36-7.573-2.256-3.284-4.242-4.306-5.841-4.306-2.643 0-4.23 2.792-4.23 2.792z" fill="#fff"/>
    </mask>
    <g mask="url(#pqqpied57a)">
        <path d="M6.633 4.022-7.054 21.827l17.912 13.768 13.687-17.804L6.633 4.02z" fill="#2C64F6"/>
    </g>
    <mask id="p1lboc9ppb" style="mask-type:luminance" maskUnits="userSpaceOnUse" x="8" y="5" width="21" height="21">
        <path d="M8.253 8.62s4.487-2.516 8.707 8.026c1.038 2.59 3.782 8.35 8.276 8.354h.012c1.096-.001 2.296-.345 3.6-1.16 0 0-3.452-.663-7.95-10.45-1.024-2.228-4.471-7.445-8.282-7.445-1.44 0-2.93.744-4.363 2.674" fill="#fff"/>
    </mask>
    <g mask="url(#p1lboc9ppb)">
        <path d="M15.89-4.011-.953 17.923 21.204 34.94l16.844-21.935L15.891-4.01z" fill="#2C64F6"/>
    </g>
    <mask id="2fdixodjec" style="mask-type:luminance" maskUnits="userSpaceOnUse" x="15" y="0" width="25" height="24">
        <path d="M20.337 0c-1.544.003-3.25.697-5.117 2.41 0 0 4.391-2.347 9.616 8.178 0 0 10.07 20.596 14.992 10.374 0 0-4.467 0-9.313-9.844C29.014 8.068 25.628.013 20.36 0h-.023z" fill="#fff"/>
    </mask>
    <g mask="url(#2fdixodjec)">
        <path d="M24.36-11.89.15 19.602l30.537 23.473 24.207-31.493L24.36-11.89z" fill="#2C64F6"/>
    </g>
    <mask id="mvbpvo92xd" style="mask-type:luminance" maskUnits="userSpaceOnUse" x="27" y="0" width="9" height="10">
        <path d="M32.332 9.074s1.666-.606 3.56.378c0 0 0-8.33-8.86-8.935 0 0 5.452 1.666 5.3 8.556" fill="#fff"/>
    </mask>
    <g mask="url(#mvbpvo92xd)">
        <path d="m30.323-3.763-7.608 9.897 9.886 7.6 7.608-9.898-9.886-7.6z" fill="#2C64F6"/>
    </g>
    <mask id="cglybvaaee" style="mask-type:luminance" maskUnits="userSpaceOnUse" x="33" y="10" width="8" height="10">
        <path d="M36.588 17.82c1.943 1.812 3.254 1.928 3.276 1.929h.008a9.28 9.28 0 0 0 .505-2.942v-.035c-.005-2.502-1.18-5.75-6.91-6.638 0 0 5.19 3.538 3.12 7.686" fill="#fff"/>
    </mask>
    <g mask="url(#cglybvaaee)">
        <path d="m36.034 6.795-7.213 9.383 8.99 6.91 7.212-9.383-8.99-6.91z" fill="#2C64F6"/>
    </g>
    <mask id="0wttzevnqf" style="mask-type:luminance" maskUnits="userSpaceOnUse" x="0" y="15" width="5" height="10">
        <path d="M0 17.327v.031c.003.422.144 5.06 4.695 7.011 0 0-3.786-4.164-1.59-8.556a5.29 5.29 0 0 0-1.018-.1c-.905 0-2.087.26-2.087 1.614z" fill="#fff"/>
    </mask>
    <g mask="url(#0wttzevnqf)">
        <path d="m1.744 13.444-5.927 7.71 7.134 5.484 5.926-7.71-7.133-5.484z" fill="#2C64F6"/>
    </g>
    <mask id="ncamogtdrg" style="mask-type:luminance" maskUnits="userSpaceOnUse" x="7" y="9" width="5" height="6">
        <path d="M7.422 11.497s1.59.682 3.105 2.574c0 0-.217-3.448.908-3.937 0 0-.89-.487-1.85-.487-.857 0-1.77.386-2.163 1.85z" fill="#fff"/>
    </mask>
    <g mask="url(#ncamogtdrg)">
        <path d="m8.912 7.708-3.628 4.72 4.66 3.582 3.629-4.72-4.66-3.582z" fill="#2C64F6"/>
    </g>
    <mask id="ezx2rs88lh" style="mask-type:luminance" maskUnits="userSpaceOnUse" x="13" y="3" width="7" height="4">
        <path d="M13.477 4.985s2.65.379 3.861 1.817c0 0 .303-1.665 1.742-2.65 0 0-1.319-.834-2.785-.834-.993 0-2.054.383-2.818 1.667z" fill="#fff"/>
    </mask>
    <g mask="url(#ezx2rs88lh)">
        <path d="m15.555.61-3.762 4.898L17 9.507l3.762-4.899L15.555.609z" fill="#2C64F6"/>
    </g>
</svg>
