<svg width="598" height="425" viewBox="0 0 598 425" fill="none" xmlns="http://www.w3.org/2000/svg">
    <circle cx="69" cy="188" r="68" stroke="#FFD232" stroke-width="2"/>
    <path opacity=".5" d="M489.484 185.709c-.999-.575-1.825-.214-1.984.795L312.213 85.506l-.124-.071-25.808 14.892-35.65-20.573-.247.43 35.773 20.645.124.071 25.808-14.892 175.392 101.054c.083 1.244.949 2.685 2.005 3.294 1.114.642 2.015.121 2.015-1.163s-.901-2.846-2.015-3.488l-.002.004zM424.596 242.135c-.985-.569-1.803-.224-1.979.753l-15.651-9.03-.124-.072-15.779 9.105-126.332-72.269-16.333-28.274-.034-.057-10.59-6.111-.248.43 10.475 6.044 16.366 28.334 126.573 72.405.123.071 15.779-9.105 15.746 9.086c.064 1.253.937 2.722 2.008 3.341 1.113.642 2.015.121 2.015-1.163s-.902-2.846-2.015-3.488zM417.948 224.582c0 1.284-.902 1.805-2.015 1.163-1.113-.642-2.015-2.205-2.015-3.489 0-1.284.902-1.804 2.015-1.162 1.113.642 2.015 2.204 2.015 3.488zM437.019 268.847c0 1.284-.902 1.805-2.015 1.163-1.113-.642-2.015-2.204-2.015-3.488 0-1.284.902-1.805 2.015-1.163 1.113.642 2.015 2.204 2.015 3.488zM273.84 277.191c0 1.284-.901 1.805-2.015 1.163-1.113-.642-2.014-2.205-2.014-3.489 0-1.284.901-1.804 2.014-1.162 1.114.642 2.015 2.204 2.015 3.488zM293.652 262.432c0 1.284-.902 1.805-2.015 1.163-1.113-.642-2.015-2.205-2.015-3.489 0-1.284.902-1.804 2.015-1.162 1.113.642 2.015 2.204 2.015 3.488zM550.315 170.228c0 1.284-.902 1.804-2.015 1.162-1.113-.642-2.015-2.204-2.015-3.488 0-1.284.902-1.805 2.015-1.163 1.113.642 2.015 2.205 2.015 3.489zM311.584 119.343c0 1.284-.902 1.805-2.015 1.163-1.114-.643-2.015-2.205-2.015-3.489 0-1.284.901-1.804 2.015-1.162 1.113.642 2.015 2.204 2.015 3.488zM324.512 62.278c0 1.284-.901 1.804-2.015 1.162-1.113-.642-2.015-2.204-2.015-3.488 0-1.284.902-1.805 2.015-1.163 1.114.642 2.015 2.205 2.015 3.489zM334.082 67.723c0 1.284-.902 1.805-2.015 1.163-1.114-.642-2.015-2.205-2.015-3.489 0-1.284.901-1.804 2.015-1.162 1.113.642 2.015 2.204 2.015 3.488zM343.655 73.168c0 1.284-.902 1.805-2.015 1.163-1.113-.642-2.015-2.205-2.015-3.489 0-1.284.902-1.804 2.015-1.162 1.113.642 2.015 2.204 2.015 3.488zM379.112 57.722c0 1.284-.902 1.804-2.015 1.162-1.113-.642-2.015-2.204-2.015-3.488 0-1.284.902-1.805 2.015-1.163 1.113.642 2.015 2.205 2.015 3.489z" fill="#2A71C9"/>
    <path opacity=".5" d="M293.937 82.537c0 1.284-.902 1.804-2.015 1.162-1.113-.642-2.015-2.204-2.015-3.488 0-1.284.902-1.805 2.015-1.163 1.113.642 2.015 2.205 2.015 3.489zM261.732 213.009c0 1.284-.902 1.805-2.015 1.163-1.113-.642-2.015-2.204-2.015-3.488 0-1.284.902-1.805 2.015-1.163 1.113.642 2.015 2.204 2.015 3.488zM295.664 314.066c0 1.284-.902 1.805-2.015 1.163-1.114-.642-2.015-2.205-2.015-3.489 0-1.284.901-1.804 2.015-1.162 1.113.642 2.015 2.204 2.015 3.488zM304.532 319.078c0 1.284-.902 1.805-2.015 1.163-1.113-.642-2.015-2.204-2.015-3.488 0-1.284.902-1.805 2.015-1.163 1.113.642 2.015 2.204 2.015 3.488zM342.366 257.419c0 1.284-.902 1.805-2.015 1.163-1.113-.642-2.015-2.204-2.015-3.488 0-1.284.902-1.805 2.015-1.163 1.113.642 2.015 2.204 2.015 3.488zM351.235 262.432c0 1.284-.902 1.805-2.015 1.163-1.113-.642-2.015-2.205-2.015-3.489 0-1.284.902-1.804 2.015-1.162 1.113.642 2.015 2.204 2.015 3.488zM313.398 324.088c0 1.284-.902 1.805-2.015 1.163-1.113-.642-2.015-2.204-2.015-3.488 0-1.284.902-1.805 2.015-1.163 1.113.642 2.015 2.204 2.015 3.488zM282.68 53.946c0 1.284-.901 1.804-2.015 1.162-1.113-.642-2.015-2.204-2.015-3.488 0-1.284.902-1.805 2.015-1.163 1.114.642 2.015 2.204 2.015 3.489z" fill="#2A71C9"/>
    <path d="M347.349 130.285c-5.554-9.616-13.226-18.01-21.7-22.898-3.276-1.891-6.43-3.11-9.387-3.722-1.03-7.649-3.949-15.646-8.145-22.912-5.291-9.157-12.596-17.149-20.668-21.807-3.92-2.264-7.657-3.524-11.076-3.878-2.065-6.047-4.805-12.032-8.083-17.705-7.66-13.261-18.239-24.836-29.931-31.582-11.69-6.746-22.271-7.383-29.931-2.965l-20.044 11.58c-.345.197-.669.44-1.002.66-6.642-1.978-12.582-1.471-17.258 1.23l-20.045 11.58c-6.632 3.826-10.733 12.032-10.733 23.709s4.101 24.617 10.728 36.097c6.633 11.478 15.794 21.498 25.909 27.336l129.619 74.801c8.474 4.893 16.148 5.357 21.703 2.152l20.044-11.583c5.55-3.205 8.988-10.079 8.988-19.859 0-9.78-3.433-20.618-8.988-30.234z" fill="#DDDBD6"/>
    <path d="M327.304 141.868c-5.554-9.619-13.226-18.01-21.7-22.903-3.275-1.888-6.425-3.111-9.387-3.719-1.03-7.647-3.951-15.644-8.147-22.913-5.289-9.157-12.594-17.148-20.668-21.809-3.92-2.264-7.658-3.522-11.076-3.876-2.065-6.047-4.803-12.031-8.083-17.707-7.658-13.261-18.239-24.837-29.929-31.582-11.69-6.746-22.271-7.386-29.933-2.963-5.445 3.143-9.404 8.855-11.243 16.737-.385-.238-.768-.478-1.156-.699-10.117-5.84-19.278-6.394-25.906-2.565-6.632 3.825-10.733 12.031-10.733 23.709 0 11.677 4.101 24.617 10.728 36.097 6.633 11.478 15.794 21.498 25.909 27.335l129.62 74.801c8.473 4.894 16.147 5.358 21.702 2.152 5.552-3.207 8.987-10.077 8.987-19.859 0-9.782-3.432-20.616-8.987-30.232l.002-.004z" fill="#DDDBD6"/>
    <path opacity=".5" d="M336.292 172.099c0 9.782-3.435 16.652-8.987 19.859l20.044-11.582c5.55-3.205 8.987-10.079 8.987-19.859l-20.044 11.582z" fill="#BEBCB7"/>
    <path opacity=".5" d="m347.349 130.285-20.044 11.582c5.554 9.616 8.987 20.45 8.987 30.232l20.044-11.582c0-9.783-3.432-20.618-8.987-30.234v.002z" fill="#FEFCF7"/>
    <path d="M325.649 107.387c-3.276-1.891-6.43-3.11-9.387-3.721l-20.042 11.579c2.959.609 6.109 1.831 9.387 3.719 8.476 4.894 16.145 13.285 21.7 22.903l20.044-11.582c-5.555-9.616-13.226-18.009-21.7-22.898h-.002z" fill="#FEFCF7"/>
    <path opacity=".5" d="m308.115 80.751-20.045 11.58c4.197 7.269 7.118 15.265 8.148 22.912l20.042-11.579c-1.03-7.65-3.949-15.646-8.145-22.913z" fill="#FEFCF7"/>
    <path d="M238.358 5.779c-11.69-6.746-22.271-7.384-29.931-2.966l-20.044 11.58c7.66-4.42 18.243-3.783 29.933 2.963 11.69 6.746 22.271 18.321 29.929 31.582l20.044-11.58c-7.66-13.26-18.239-24.836-29.931-31.582v.003zM175.982 30.431c.388.221.773.462 1.156.7 1.722-7.381 5.322-12.829 10.241-16.077-6.642-1.978-12.582-1.472-17.258 1.23l-20.045 11.58c6.628-3.829 15.789-3.275 25.906 2.565v.002z" fill="#FEFCF7"/>
    <path opacity=".5" d="m268.288 37.36-20.045 11.58c3.281 5.676 6.019 11.661 8.084 17.708l20.044-11.582c-2.065-6.047-4.805-12.032-8.083-17.705z" fill="#FEFCF7"/>
    <path d="M287.447 58.944c-3.921-2.264-7.658-3.524-11.076-3.878l-20.045 11.582c3.419.354 7.156 1.612 11.076 3.876 8.074 4.66 15.38 12.652 20.668 21.809l20.044-11.58c-5.29-9.157-12.596-17.149-20.667-21.807v-.002z" fill="#FEFCF7"/>
    <path d="M143.914 362.116c24.769 14.296 32.681 32.904 17.668 41.569-15.011 8.662-47.261 4.099-72.03-10.196s-32.679-32.904-17.668-41.569c15.01-8.662 47.261-4.097 72.03 10.196z" fill="#2A71C9" style="mix-blend-mode:multiply" opacity=".3"/>
    <path d="m541.496 328.682-84.469-48.745v-97.495l84.469 48.748v97.492zM386.557 425l-46.431-26.793v-53.591l46.431 26.795V425zM523.298 181.979l-92.355-53.346V82.375l92.355 53.346v46.258zM572.859 149.838c0 2.402-1.687 3.374-3.766 2.173-2.082-1.2-3.766-4.12-3.766-6.522 0-2.401 1.687-3.374 3.766-2.173 2.081 1.201 3.766 4.121 3.766 6.522zM532.812 198.547c0 2.402-1.687 3.375-3.766 2.174-2.081-1.201-3.766-4.121-3.766-6.52 0-2.402 1.687-3.374 3.766-2.174 2.082 1.201 3.766 4.121 3.766 6.523v-.003zM419.698 169.714c0 2.402-1.686 3.374-3.765 2.173-2.082-1.2-3.766-4.12-3.766-6.519 0-2.402 1.687-3.375 3.766-2.174 2.081 1.201 3.765 4.121 3.765 6.52zM360.336 207.291c0 2.401-1.686 3.374-3.766 2.173-2.081-1.201-3.765-4.121-3.765-6.52 0-2.402 1.686-3.374 3.765-2.173 2.082 1.2 3.766 4.12 3.766 6.52zM541.034 347.717c0 2.401-1.686 3.374-3.765 2.173-2.082-1.201-3.766-4.121-3.766-6.522 0-2.402 1.687-3.375 3.766-2.174 2.081 1.201 3.765 4.121 3.765 6.523zM464.776 374.315c0 2.402-1.687 3.374-3.766 2.173-2.082-1.201-3.766-4.12-3.766-6.52 0-2.401 1.687-3.374 3.766-2.173 2.081 1.201 3.766 4.121 3.766 6.52zM411.15 369.452c0 2.402-1.687 3.374-3.768 2.173-2.082-1.2-3.766-4.12-3.766-6.522 0-2.401 1.687-3.374 3.766-2.173 2.081 1.201 3.768 4.121 3.768 6.522zM443.846 220.188c0 3.895-2.736 5.474-6.112 3.526-3.375-1.947-6.111-6.686-6.111-10.581 0-3.895 2.736-5.474 6.111-3.526 3.376 1.947 6.112 6.684 6.112 10.581z" fill="#2A71C9"/>
    <path d="M442.109 229.925c-1.475 0-3.052-.478-4.686-1.42-5.571-3.217-10.106-11.066-10.106-17.498 0-4.625 2.372-7.611 6.043-7.611 1.475 0 3.052.478 4.686 1.419 5.574 3.217 10.106 11.064 10.106 17.496 0 4.625-2.372 7.612-6.043 7.612v.002zm-8.749-25.286c-2.962 0-4.801 2.44-4.801 6.37 0 6.038 4.256 13.404 9.485 16.422 1.422.82 2.826 1.253 4.063 1.253 2.962 0 4.8-2.44 4.8-6.37 0-6.038-4.255-13.404-9.484-16.422-1.423-.82-2.826-1.253-4.063-1.253zM376.244 287.441c0 3.895-2.736 5.477-6.111 3.527-3.376-1.948-6.112-6.687-6.112-10.581 0-3.895 2.736-5.474 6.112-3.527 3.375 1.948 6.111 6.684 6.111 10.581z" fill="#2A71C9"/>
    <path d="M374.505 297.181c-1.475 0-3.052-.478-4.687-1.42-5.571-3.217-10.105-11.066-10.105-17.498 0-4.625 2.372-7.611 6.042-7.611 1.475 0 3.052.478 4.687 1.419 5.571 3.215 10.105 11.064 10.105 17.496 0 4.625-2.372 7.612-6.042 7.612v.002zm-8.75-25.288c-2.959 0-4.798 2.44-4.798 6.37 0 6.037 4.256 13.404 9.485 16.421 1.422.821 2.826 1.253 4.063 1.253 2.959 0 4.8-2.439 4.8-6.37 0-6.037-4.256-13.403-9.484-16.421-1.423-.82-2.826-1.255-4.066-1.255v.002zM330.933 368.9c0 3.895-2.736 5.474-6.112 3.527-3.375-1.948-6.111-6.684-6.111-10.582 0-3.897 2.736-5.473 6.111-3.526 3.376 1.948 6.112 6.684 6.112 10.581z" fill="#2A71C9"/>
    <path d="M329.196 378.638c-1.475 0-3.052-.478-4.686-1.42-5.572-3.217-10.106-11.066-10.106-17.498 0-4.623 2.372-7.612 6.043-7.612 1.474 0 3.052.478 4.686 1.42 5.571 3.215 10.105 11.064 10.105 17.496 0 4.625-2.371 7.611-6.042 7.611v.003zm-8.749-25.286c-2.962 0-4.801 2.44-4.801 6.37 0 6.037 4.256 13.404 9.485 16.421 1.422.821 2.826 1.253 4.063 1.253 2.961 0 4.8-2.439 4.8-6.37 0-6.037-4.256-13.403-9.484-16.421-1.423-.82-2.826-1.253-4.063-1.253zM419.661 98.218c0 3.895-2.736 5.476-6.111 3.527-3.376-1.948-6.112-6.684-6.112-10.582 0-3.897 2.736-5.473 6.112-3.526 3.375 1.947 6.111 6.684 6.111 10.581z" fill="#2A71C9"/>
    <path d="M417.925 107.955c-1.478 0-3.052-.478-4.687-1.419-5.571-3.218-10.105-11.067-10.105-17.499 0-4.622 2.372-7.611 6.042-7.611 1.475 0 3.052.478 4.687 1.42 5.571 3.214 10.105 11.063 10.105 17.495 0 4.625-2.372 7.612-6.042 7.612v.002zm-8.75-25.288c-2.962 0-4.8 2.44-4.8 6.37 0 6.038 4.255 13.404 9.484 16.422 1.42.82 2.826 1.253 4.063 1.253 2.96 0 4.801-2.44 4.801-6.371 0-6.037-4.256-13.403-9.485-16.42-1.422-.821-2.826-1.254-4.063-1.254zM235.632 137.15c-5.512 0-11.442-1.81-17.62-5.374-21.543-12.434-39.071-42.777-39.071-67.642 0-8.61 2.108-15.798 6.093-20.789 3.913-4.9 9.439-7.49 15.979-7.49 5.511 0 11.442 1.81 17.62 5.374 21.543 12.434 39.07 42.777 39.07 67.642 0 8.61-2.107 15.798-6.092 20.789-3.913 4.9-9.439 7.492-15.979 7.492v-.002zM201.013 37.096c-12.849 0-20.83 10.36-20.83 27.039 0 24.47 17.247 54.33 38.447 66.564 5.988 3.455 11.709 5.207 17 5.207 12.848 0 20.829-10.36 20.829-27.038 0-24.47-17.247-54.33-38.447-66.564-5.988-3.455-11.709-5.208-16.999-5.208z" fill="#2A71C9"/>
    <path d="m257.391 110.847-.62 1.075 170.855 98.599.621-1.075-170.856-98.599z" fill="#2A71C9"/>
    <path d="m353.752 203.776-47.634-27.49-31.106-53.855 1.075-.62 30.942 53.567 47.344 27.321-.621 1.077zM413.241 166.323l-69.937-40.358-30.785 17.767-.621-1.077 31.406-18.124 70.558 40.718-.621 1.074zM536.954 345.389 305.247 211.14l-30.785 17.767-.623-1.077 31.408-18.124.312.181 232.018 134.427-.623 1.075zM566.48 147.082 355.917 25.707l-30.785 17.767-.621-1.075 31.406-18.126.311.18 210.873 121.552-.621 1.077zM527.61 196.06 309.769 70.723l-31.118-53.876 1.076-.62 30.951 53.586 217.55 125.17-.618 1.077z" fill="#2A71C9"/>
    <path d="M403.445 88.89 254.052 2.678l-37.741 21.78v15.95h-1.242V23.74l38.983-22.496 150.014 86.569-.621 1.077zM360.03 279.181 249.544 215.42l-34.475-59.683V129.32h1.242v26.084l34.142 59.108 110.198 63.592-.621 1.077z" fill="#2A71C9"/>
    <path d="m460.697 373.164-127.853-73.988-.083-.143-31.023-53.712 1.076-.621 30.941 53.567 127.565 73.822-.623 1.075zM314.722 360.706l-36.315-20.958-46.422-80.365V184.72h1.242v74.33l46.088 79.79 36.028 20.791-.621 1.075z" fill="#2A71C9"/>
    <path d="m407.073 367.816-117.79-67.974-24.907 14.374-.623-1.075 25.53-14.733 118.411 68.333-.621 1.075z" fill="#2A71C9"/>
    <g opacity=".3" fill="#2A71C9">
        <path d="M217.916 62.91a23.274 23.274 0 0 0-2.59-1.236l-1.199-8.532a32.12 32.12 0 0 1 3.789 1.805v7.963zM221.532 65.257a30.211 30.211 0 0 0-2.593-1.755V55.54a41.178 41.178 0 0 1 3.79 2.568l-1.197 7.15zM210.857 60.52a12.64 12.64 0 0 0-2.333-.047l-3.45-8.886a17.329 17.329 0 0 1 3.423.086l2.36 8.848zM214.318 61.303a16.893 16.893 0 0 0-2.504-.645l-2.358-8.848c1.187.205 2.41.519 3.666.956l1.196 8.534v.003zM225.045 68.294a37.489 37.489 0 0 0-2.505-2.245l1.199-7.153a50.002 50.002 0 0 1 3.666 3.277l-2.36 6.123v-.002zM237.427 89.532a41.349 41.349 0 0 0-1.021-3.276l5.983-.535a57.666 57.666 0 0 1 1.52 4.826l-6.485-1.017.003.002zM231.307 75.976c-.663-1.015-1.363-2-2.093-2.953l3.454-4.91a65.251 65.251 0 0 1 3.071 4.323l-4.432 3.54zM235.916 84.936a49.099 49.099 0 0 0-1.418-3.274l5.286-2.071a63.7 63.7 0 0 1 2.105 4.812l-5.976.533h.003zM203.595 93.755a49.853 49.853 0 0 0 1.751 2.949l-4.434 3.54a65.826 65.826 0 0 1-2.607-4.418l5.29-2.07zM233.858 80.37a49.501 49.501 0 0 0-1.78-3.17l4.437-3.542a67.297 67.297 0 0 1 2.626 4.644l-5.283 2.068zM192.62 62.073l6.49 6.473c-.243.78-.435 1.616-.581 2.501l-6.794-5.302c.214-1.306.507-2.533.885-3.672zM228.337 71.908a44.207 44.207 0 0 0-2.334-2.647l2.36-6.123a59.139 59.139 0 0 1 3.423 3.864l-3.449 4.906zM206.141 97.907c.638.934 1.306 1.84 2.001 2.718l-3.449 4.905a65.07 65.07 0 0 1-2.986-4.08l4.434-3.54v-.003zM209.037 101.716a42.935 42.935 0 0 0 2.193 2.409l-2.36 6.123a58.754 58.754 0 0 1-3.285-3.622l3.454-4.912-.002.002zM201.472 89.375c.445 1.046.925 2.08 1.446 3.103l-5.286 2.069a65.344 65.344 0 0 1-2.141-4.637l5.981-.532v-.003zM215.525 107.894a30.463 30.463 0 0 0 2.391 1.607v7.963a40.45 40.45 0 0 1-3.59-2.413l1.199-7.157zM212.195 105.078a36.667 36.667 0 0 0 2.324 2.038l-1.199 7.15a49.177 49.177 0 0 1-3.485-3.065l2.36-6.123zM199.836 84.888c.324 1.06.695 2.119 1.102 3.17l-5.976.532a59.703 59.703 0 0 1-1.615-4.722l6.487 1.018.002.002zM191.58 66.822l6.802 5.31c-.093.865-.15 1.766-.15 2.715v.088l-6.899-3.98v-.089c0-1.42.09-2.763.247-4.042v-.002zM198.263 76.133c.045.997.145 2.005.29 3.023l-6.794-2.538a42.716 42.716 0 0 1-.4-4.465l6.901 3.983.003-.003zM198.761 80.432c.188 1.041.418 2.09.699 3.141l-6.485-1.018a50.409 50.409 0 0 1-1.018-4.665l6.804 2.542zM218.939 110.093c.809.444 1.606.83 2.389 1.151l1.199 8.541a32.038 32.038 0 0 1-3.588-1.729v-7.963zM238.328 94.012a35.335 35.335 0 0 0-.583-3.172l6.492 1.017c.376 1.572.671 3.14.883 4.692l-6.792-2.537zM222.337 111.629c.792.278 1.57.49 2.324.645l2.36 8.845a23.932 23.932 0 0 1-3.488-.958l-1.196-8.532zM225.629 112.438c.752.102 1.485.142 2.194.121l3.451 8.898a17.87 17.87 0 0 1-3.287-.172l-2.36-8.845.002-.002z"/>
    </g>
    <g opacity=".5" fill="#2A71C9">
        <path d="m206.297 66.177 3.368 5.83c2.189-1.443 5.303-1.338 8.762.66 3.461 1.994 6.58 5.49 8.763 9.454l3.371-1.945c-3.052-5.457-7.36-10.249-12.134-13.005-4.772-2.756-9.083-2.934-12.13-.994zM226.604 101.336l3.369 5.83c3.076-1.598 5.036-5.179 5.193-10.326l-4.767-2.752c-.152 3.629-1.585 6.14-3.795 7.248zM201.693 77.524c.157 5.33 2.119 11.171 5.191 16.32 3.002 5.033 7.069 9.404 11.542 11.986v-5.495c-3.159-1.824-6.033-4.891-8.174-8.44-2.212-3.656-3.64-7.815-3.794-11.62l-4.768-2.75h.003z"/>
        <path d="M199.878 75.798c0-11.806 8.321-16.609 18.55-10.707 10.229 5.902 18.551 20.311 18.551 32.115 0 11.803-8.322 16.606-18.551 10.704-10.229-5.901-18.55-20.308-18.55-32.114v.002zm.34.198c0 11.587 8.169 25.73 18.21 31.524 10.039 5.795 18.208 1.08 18.208-10.51 0-11.589-8.169-25.73-18.208-31.524-10.041-5.795-18.21-1.08-18.21 10.51z"/>
        <path d="M210.369 81.85c0-5.139 3.609-7.222 8.06-4.651 4.451 2.568 8.059 8.817 8.059 13.955s-3.608 7.219-8.059 4.65c-4.451-2.567-8.06-8.816-8.06-13.954z"/>
        <path d="M184.264 66.784c0-21.743 15.327-30.588 34.167-19.717 18.841 10.871 34.166 37.405 34.166 59.15 0 21.745-15.327 30.588-34.166 19.717-18.838-10.871-34.165-37.407-34.165-59.15h-.002zm.342.197c0 21.526 15.173 47.796 33.823 58.558 18.653 10.765 33.825 2.007 33.825-19.519s-15.172-47.796-33.823-58.558c-18.652-10.765-33.825-2.007-33.825 19.52z"/>
        <path d="M189.016 69.528c0-18.718 13.195-26.332 29.414-16.973 16.217 9.36 29.41 32.203 29.41 50.921 0 18.718-13.193 26.332-29.412 16.975-16.219-9.359-29.412-32.203-29.412-50.92v-.003zm.342.197c0 18.502 13.041 41.079 29.072 50.329 16.029 9.249 29.072 1.724 29.072-16.778s-13.043-41.079-29.072-50.329c-16.031-9.25-29.072-1.724-29.072 16.778z"/>
        <path d="M186.59 68.13c0-20.264 14.283-28.505 31.839-18.374 17.553 10.132 31.838 34.859 31.838 55.12 0 20.262-14.282 28.505-31.838 18.374-17.556-10.132-31.839-34.859-31.839-55.12zm.683.394c0 19.829 13.975 44.025 31.156 53.939 17.177 9.913 31.156 1.847 31.156-17.981 0-19.829-13.976-44.026-31.156-53.939-17.181-9.915-31.156-1.847-31.156 17.981z"/>
        <path d="M207.642 60.573c-.73.112-1.429.29-2.091.542l-4.434-8.66a13.84 13.84 0 0 1 3.074-.777l3.454 8.895h-.003zM202.36 63.112a10.77 10.77 0 0 0-1.417 1.641l-5.976-7.428a14.205 14.205 0 0 1 2.105-2.383l5.286 8.17h.002zM233.262 110.875l5.29 8.178a12.955 12.955 0 0 1-2.607 1.407l-4.434-8.657a9.582 9.582 0 0 0 1.751-.928zM238.625 98.157c0-.951-.052-1.914-.149-2.89l6.801 2.54c.157 1.462.247 2.911.247 4.33l-.002.086-6.899-3.98v-.086h.002zM200.451 65.51a13.543 13.543 0 0 0-1.018 2.099l-6.485-6.465c.428-1.118.94-2.14 1.52-3.075l5.981 7.438.002.002zM203.001 62.563l-5.283-8.167a12.899 12.899 0 0 1 2.626-1.613l4.437 8.663a9.454 9.454 0 0 0-1.78 1.117zM235.918 108.246c.409-.58.78-1.208 1.101-1.898l6.488 6.468a16.8 16.8 0 0 1-1.616 2.858l-5.973-7.428zM233.938 110.378a10.412 10.412 0 0 0 1.447-1.433l5.98 7.435a13.646 13.646 0 0 1-2.143 2.166l-5.284-8.168zM238.305 102.094c.145-.851.245-1.743.29-2.687l6.903 3.983a30.905 30.905 0 0 1-.399 4.007l-6.794-5.303zM237.397 105.468a16.98 16.98 0 0 0 .702-2.335l6.804 5.312a22.636 22.636 0 0 1-1.018 3.488l-6.485-6.465h-.003zM228.715 112.497a10.744 10.744 0 0 0 2-.409l4.437 8.66a14.18 14.18 0 0 1-2.988.632l-3.449-8.886v.003z"/>
    </g>
    <path d="M92.76 117.407s-6.397-.35-7.77 2.026c-1.37 2.373-12.067 32.526-14.625 39.103-2.56 6.579-6.763 20.373-1.19 22.477 5.575 2.102 39.764-9.045 39.764-9.045l-5.484-11.875-16.271 2.009 7.13-17.817-1.554-26.876v-.002z" fill="#29425B"/>
    <path d="m104.69 162.763-20.337 4.91s1.822-3.053 2.833-5.571l7.13-17.817-1.19-20.594-5.443 1.681s-2.324-1.462-3.328 6.487c-1.009 7.949-3.383 22.204-7.679 31.889-3.706 8.353-7.139 12.286-9.889 14.326.395 1.422 1.151 2.473 2.396 2.941 5.573 2.102 39.762-9.045 39.762-9.045l-4.251-9.204-.004-.003z" fill="#102942"/>
    <path d="M144.011 304.39c-1.974 10.351-4.036 31.863-5.747 41.315-1.72 9.452-2.403 16.742-1.627 22.767.768 6.03 3.323 13.994 3.323 13.994s3.197 4.743.538 6.051c-2.648 1.315-4.839-1.227-7.41-5.153-2.581-3.935-10.81-11.751-12.335-13.344.833-.87 1.539-1.367 1.889-5.866.345-4.501-3.437-24.658-4.555-32.761-1.116-8.099 5.245-24.932 6.613-29.949 1.38-5.022-.681-12.44-2.75-19.914-2.056-7.471-3.012-30.878-3.012-30.878s-4.191-26.008-1.013-33.394c3.171-7.376 29.348-3.954 33.211.923 3.868 4.872 4.387 24.191 3.002 38.052-1.37 13.867-8.152 37.804-10.127 48.16v-.003z" fill="#FFCDA8"/>
    <path d="m94.993 344.808-.626 6.874s3.207.333 2.417 3.032c-.775 2.701-3.354.901-3.74-1.305-.399-2.216-2.42-3.769-3.832-4.592-1.396-.813-7.336-4.011-7.336-4.011s1.73-3.622 2.367-6.463c.645-2.834-1.316-19.655-2.077-29.818-.778-10.158 7.858-23.535 10.836-31.777 2.976-8.251-1.244-26.859-2.4-44.061-1.157-17.196 4.988-26.954 4.988-26.954l26.184 11.76v17.106s-2.838 16.05-5.657 29.877c-2.833 13.818-8.92 25.548-10.75 30.172-1.822 4.62-7.098 25.745-8.59 33.299-1.491 7.54-1.789 16.859-1.789 16.859l.005.002z" fill="#FFCDA8"/>
    <path d="M128.376 329.453c2.636-10.206 6.482-31.58 3.744-46.047-2.743-14.459 3.664-70.15 3.664-70.15h.007c6.903.695 13.547 2.652 15.348 4.925 3.868 4.872 4.387 24.192 3.002 38.052-1.37 13.867-8.152 37.805-10.126 48.16-1.975 10.35-4.037 31.862-5.748 41.314-1.72 9.452-2.402 16.742-1.627 22.768.768 6.03 3.323 13.993 3.323 13.993s3.198 4.744.538 6.052c-2.648 1.315-4.839-1.227-7.41-5.153-.976-1.489-2.755-3.522-4.682-5.571.143-.602.328-1.284.571-2.083 1.416-4.568-.095-7.119 0-7.975.107-.844-3.245-28.066-.599-38.278l-.005-.007zM90 324.623c.768-14.369 2.725-26.577 4.572-31.256 1.853-4.68 7.077-11.868 7.731-23.391.466-8.182 2.06-41.362 2.942-59.904l16.529 7.424v17.105s-2.838 16.051-5.657 29.878c-2.833 13.817-8.921 25.547-10.75 30.172-1.822 4.62-7.099 25.744-8.59 33.298-1.492 7.54-1.79 16.859-1.79 16.859l-.625 6.874s3.207.333 2.417 3.032c-.775 2.701-3.354.901-3.74-1.305-.4-2.217-2.421-3.769-3.832-4.592-.602-.357-2.065-1.153-3.525-1.95 1.51-4.506 3.818-12.747 4.313-22.247l.004.003z" fill="#D9A782"/>
    <path d="M120.751 370.018s-4.841 2.373-6.049 6.341c-1.211 3.974 1.52 7.331 2.452 11.014.94 3.679.94 13.337.94 13.337l1.644-.49s-.16-9 1.016-11.047c1.172-2.047 4.136-1.964 6.561 0 2.412 1.967 9.363 9.083 13.343 9.083 3.979 0 16.783-11.373 16.155-14.566-.621-3.198-16.852-1.225-16.852-1.225s3.197 4.744.537 6.052c-2.647 1.315-4.838-1.227-7.41-5.153-2.581-3.935-10.81-11.751-12.334-13.344l-.003-.002zM81.876 344.808s5.94 3.198 7.336 4.012c1.411.822 3.433 2.375 3.833 4.591.383 2.207 2.962 4.007 3.74 1.305.787-2.701-2.417-3.031-2.417-3.031l.625-6.874s3.98-1.634 4.684-1.144c.699.492.383 14.811-2.42 17.755-3.9 4.097-9.753-.73-11.316-.647 0 0-3.197.661-4.453 4.665-1.242 4.016-1.95 7.286-1.95 7.286l-1.561-.492s2.027-7.944 1.006-11.385c-1.006-3.434-2.647-6.299-2.098-9.086.547-2.775 4.991-6.957 4.991-6.957v.002z" fill="#29333F"/>
    <path d="M153.357 221.911s1.703 6.48 2.131 23.969c.431 17.488-7.143 40.67-7.143 40.67s-7.097 4.636-18.422 3.155c-5.284-.704-33.711-13.097-36.832-21.331 0 0-3.535-33.924-3.535-44.617 0-10.693 8.21-24.059 8.21-24.059s50.548-.276 55.589 22.213h.002z" fill="#1C354E"/>
    <path d="M155.487 245.88c-.428-17.489-2.131-23.969-2.131-23.969-5.041-22.489-55.59-22.213-55.59-22.213s-6.206 10.108-7.824 19.776c2.984 4.057 8.015 8.608 18.23 11.785 13.167 4.096 23.719 8.764 25.142 14.904 1.156 4.991 2.21 28.864 1.135 43.82.107 0 .218.003.33.007 8.46-.109 13.567-3.443 13.567-3.443s7.574-23.181 7.144-40.67l-.003.003z" fill="#031C35"/>
    <path d="M99.196 114.496s-6.977-.371-11.987 3.9c-5.008 4.268-3.778 11.49.492 21.424 4.27 9.93 18.23 34.473 17.164 40.63-1.068 6.156-8.122 12.942-13.246 30.99 0 0 1.011 13.415 20.637 17.6 19.626 4.19 36.542-.247 41.716-5.826 0 0 .197-5.977-3.369-15.02-1.525-3.871-5.583-8.37-5.747-18.713-.164-10.342 4.679-21.096 4.679-21.096s7.72-12.149 6.816-17.646c-.904-5.5-13.55-14.2-13.55-14.2l-1.406-1.884-15.641-14.683-26.558-5.471v-.005z" fill="#E6F6FF"/>
    <path d="M153.969 223.21s.198-5.978-3.368-15.021c-1.525-3.871-5.583-8.37-5.748-18.713-.164-10.341 4.68-21.096 4.68-21.096s7.719-12.148 6.815-17.646c-.768-4.677-10.027-11.668-12.782-13.655-2.666.996-5.642 2.161-5.642 2.161l-3.059 8.629s-2.161 14.823-1.292 19.172c.868 4.352.932 1.641 1.063 18.069.091 11.38-2.027 30.829-1.717 45.378 10.098-.791 17.836-3.814 21.048-7.276l.002-.002z" fill="#C7DEEB"/>
    <path d="m120.399 120.959.221.331 8.74 4.489 2.346 7.155-14.083-6.351 2.776-5.624z" fill="#fff"/>
    <path d="M143.57 137.078c-2.365-3.524-12.268-12.181-18.905-16.119-10.177-6.042-18.341-8.068-18.341-8.068s-12.056 0-18.976 4.145c-3.68 2.204-4.501 8.037-3.994 15.437.511 7.399 18.767 37.64 20.808 44.272 2.043 6.634-5.362 14.925-9.192 22.199-3.826 7.274-8.44 22.758-8.44 22.758 6.634 8.551 30.394 19.448 48.559 18.3 18.163-1.146 21.022-6.359 21.022-6.359-1.149-7.273-7.917-38.147-8.975-43.889-1.061-5.74.928-13.865 2.065-19.66.338-1.719 7.134-11.461 7.762-16.385.628-4.925-13.391-16.635-13.391-16.635l-.002.004z" fill="#29425B"/>
    <path d="M135.089 240.004c18.162-1.146 21.022-6.358 21.022-6.358-1.149-7.274-7.917-38.147-8.976-43.89-1.061-5.74.928-13.865 2.065-19.659.338-1.719 7.134-11.461 7.762-16.386.388-3.05-4.841-8.702-8.878-12.564-1.13.583-2.16 1.272-3.054 2.088-8.05 4.71-11.89 14.904-12.137 22.834-.369 11.91 3.278 46.422-4.634 73.843 2.333.19 4.624.23 6.832.092h-.002z" fill="#102942"/>
    <path d="M218.567 86.175c-.926-.925-1.97.147-3.157 1.334-1.187 1.186-3.285 3.317-3.968 4.16-.683.845-1.235 2.05-1.235 2.05s-.846-1.754-1.986-1.562c-1.139.195-.749 1.367-.814 2.666-.064 1.3-.521 2.211-1.496 4.194s-1.758 4.325-2.115 7.317c-.356 2.991.814 6.731.714 7.219-.098.487-1.365 2.244-1.365 2.244l7.709 5.203s2.441-2.72 3.45-3.864c1.008-1.144 5.205-7.811 5.205-7.811s.518.326.878 0c.359-.326 2.471-2.699 2.797-3.479.326-.782-.097-1.855-.747-1.983-.652-.131-1.594-.131-1.594-.131s.845-1.983 0-2.601c-.847-.618-1.627-.685-1.627-.685s.88-4.684-.616-5.203c-1.496-.518-2.733.521-3.547 1.204-.813.682-2.017 1.69-2.243 1.69-.226 0 .488-2.08 1.17-3.155.683-1.072 3.255-4.813 3.873-5.657.619-.846 1.382-2.487.716-3.153l-.002.003z" fill="#FFCDA8"/>
    <path d="m218.728 98.5-2.277 1.366 2.764.585s.043-.217.091-.564c-.279-.261-.638-.737-.578-1.388v.002zM220.844 103.738s.102-.245.202-.586h-1.44s.653.586 1.238.586zM222.373 106.695s-2.343 1.075-2.864 2.635c0 0 .518.326.878 0 .266-.243 1.51-1.624 2.26-2.635h-.276.002zM210.204 93.72s-.525-1.085-1.303-1.453c-.191 1.8-1.09 4.17-1.625 5.126-.619 1.106-1.465 4.487-1.465 4.487s.911-2.08 1.17-2.73c.262-.651 2.797-4.358 3.223-5.205.081-.166.141-.368.179-.592-.114.221-.179.364-.179.364v.002z" fill="#D9A782"/>
    <path d="M204.341 113.388s6.808 3.158 8.88 5.66c0 0-11.735 19.968-14.368 24.196-2.631 4.226-12.428 20.271-17.606 19.755-5.179-.518-28.566-6.299-35.212-8.066-6.645-1.766-20.152-3.84-22.871-7.418-2.719-3.579-3.839-24.886 6.732-21.909 10.572 2.974 25.504 11.256 31.373 13.199 5.869 1.94 16.397 7.504 16.397 7.504s9.192-11.216 12.946-15.182c3.754-3.969 13.729-17.736 13.729-17.736v-.003z" fill="#E6F6FF"/>
    <path d="M203.059 114.164c-2.451 3.35-9.804 13.32-12.868 16.561-3.342 3.531-11.052 12.881-12.672 14.847-2.043-1.065-10.814-5.585-16.067-7.321-2.257-.747-5.914-2.464-10.148-4.452-6.573-3.086-14.756-6.928-21.248-8.755a7.721 7.721 0 0 0-2.072-.306c-2.348 0-4.251 1.329-5.502 3.847-2.769 5.578-1.849 16.552.221 19.279 2.2 2.896 10.343 4.706 17.53 6.304 2.1.466 4.082.908 5.654 1.327 7.044 1.873 30.126 7.563 35.303 8.082.1.009.202.014.307.014 4.836 0 12.353-11.197 17.587-19.617l.264-.423c2.141-3.438 10.381-17.425 13.321-22.42-2.486-2.652-7.267-5.6-9.61-6.967z" fill="#29425B"/>
    <path d="M124.684 132.396s-.643-10.365.904-14.198c1.544-3.835 2.883-4.47 4.627-4.874 1.353-.316 4.12.459 7.25-5.78 3.129-6.24 1.949-8.9 2.477-11.557.528-2.656 1.33-4.513.878-7.085-.45-2.573-1.306-12.153-8.85-15.42-7.546-3.27-16.756-2.707-21.795.206-5.041 2.913-9.011 9.695-8.975 16.754.038 7.06 3.887 11.464 3.946 16.272.064 4.808-2.9 10.719-5.78 14.44-2.881 3.724 3.111 8.969 7.207 10.876 9.157 4.261 18.111.364 18.111.364v.002z" fill="#FFCDA8"/>
    <path d="M129.894 107.078c-.411-4.842-.228-9.657-.228-9.657l-8.728 6.566s.666 17.793-4.441 25.518c-1.042 1.577-1.102 3.094-.552 4.518 5.057-.026 8.742-1.626 8.742-1.626s-.642-10.365.904-14.198c1.544-3.836 2.883-4.471 4.627-4.875.659-.154 1.656-.05 2.867-.623-1.411-1.191-2.967-3.053-3.188-5.626l-.003.003z" fill="#D9A782"/>
    <path d="M131.786 130.718c-2.144-13.977-6.844-24.142-1.889-29.138l1.161-1.716c.105-.02.649 1.93 2.222 1.502.789-.211 1.824-4.456 2.75-6.883.223-.588.542-1.342.904-2.162 0 0-4.09 4.233-6.219 5.788l-.416-.447s7.353-6.14 9.887-11.16c0 0-5.236 6.52-8.472 8.352-3.235 1.828-7.086 3.894-5.673 13.441 1.123 7.555 5.573 20.174 5.286 28.684.568-2.074.778-4.199.459-6.261z" fill="#6D2D10"/>
    <path d="M137.362 74.167c-2.943-3.574-8.05-7.529-19.65-6.297-5.595.595-10.11 4.886-12.351 7.959-2.507 3.443-4.793 8.379-4.21 18.268.587 9.89.062 18.252-6.35 24.627-3.568 3.553-5.309 13.604-2.05 19.691-1.109-3.389-1.715-8.004.323-12.859a4.39 4.39 0 0 1 .062-.148c-.023.05-.04.1-.061.148-.403 1.044-2.641 7.578 1.113 14.904a8.353 8.353 0 0 0 2.34 1.807c8.403 4.332 19.217 7.568 21.629 7.338 1.894-.181 4.451-1.486 6.851-3.548-1.446 1.8-2.773 2.915-2.773 2.915 5.033-2.194 7.648-7.942 8.725-11.026-.609 3.734-2.024 6.863-2.024 6.863s3.309-5.365 3.516-9.654c.209-4.294-1.946-11.299-1.946-11.299v.004c-2.205-10.455-4.717-18.138-.616-22.275l1.161-1.717c.104-.019.649 1.931 2.222 1.503.789-.212 1.824-4.456 2.75-6.884.223-.587.542-1.34.904-2.161 9.867-8.194.425-18.155.425-18.155l.01-.004z" fill="#7A3A1D"/>
    <path d="M139.556 87.382c-2.143 3.6-5.921 4.49-10.324 8.655-4.403 4.169-4.315 14.132-1.615 23.208 2.7 9.076 2.419 16.478 2.419 16.478-.347-7.851-3.697-14.433-3.697-14.433s3.421 9.537 1.58 16.014c-1.844 6.48-7.643 9.488-7.643 9.488 2.188-2.314 4.117-6.943 4.117-6.943-3.585 5.766-7.976 7.166-7.976 7.166 11.021-11.832 7.232-25.582 7.232-25.582.545 23.68-14.342 24.588-14.342 24.588l1.206-2.318c-.821.887-2.786 2.39-4.13 1.486-1.344-.906-2.346-3.964-2.346-3.964l-.123 3.277c-1.449-.808-3.255-4.259-3.255-4.259l-.104 2.754c-4.827-7.048-.666-21.783-.666-21.783-4.948 11.454-1.972 20.435-1.972 20.435-3.809-3.491-3.514-11.359-3.514-11.359-.909 3.248-.219 5.768-.219 5.768-.78-1.933-1.95-7.031 2.462-14.675 4.411-7.647 4.944-12.61 4.944-12.61-1.054 3.174-2.4 5.421-2.4 5.421 3.418-7.68 2.147-14.618 2.147-14.618-.009 7.523-1.339 13.988-6.53 19.151-3.568 3.552-5.31 13.603-2.05 19.69-1.109-3.388-1.715-8.004.323-12.859.038-.095.062-.147.062-.147-.023.05-.04.099-.062.147-.402 1.044-2.64 7.578 1.114 14.904a8.354 8.354 0 0 0 2.34 1.807c8.403 4.333 19.217 7.569 21.629 7.338 1.894-.181 4.451-1.486 6.851-3.548-1.446 1.8-2.773 2.916-2.773 2.916 5.033-2.195 7.648-7.942 8.725-11.026-.609 3.733-2.024 6.862-2.024 6.862s3.309-5.364 3.516-9.654c.209-4.294-1.946-11.299-1.946-11.299v.005c-2.205-10.456-4.717-18.138-.616-22.276l1.161-1.716c.104-.02.649 1.93 2.222 1.502.789-.211 1.824-4.456 2.749-6.883.224-.588.543-1.341.904-2.162l-3.14 1.51c3.773-2.606 5.762-6.446 5.762-6.446l.002-.01z" fill="#612104"/>
    <path d="M130.804 107.62c-.28.452-3.528.725-2.985-4.863.545-5.588 4.289-6.898 4.201-2.808-.091 4.085-1.216 7.671-1.216 7.671z" fill="#FFCDA8"/>
    <path d="M117.712 67.87c-5.595.595-10.11 4.887-12.351 7.959-2.507 3.443-4.793 8.38-4.211 18.269.117 1.94.186 3.818.181 5.64.559 1.869 1.011 3.431 1.175 4.403.655 3.895-.961 13.035-.961 13.035 1.095-2.489 1.792-8.6 1.792-8.6.801 3.498-1.509 15.189-1.509 15.189 2.384-4.101 4.546-14.022 4.063-27.744-.482-13.725 8.545-22.408 12.011-24.605 6.064-3.843 12.592-2.31 12.596-2.31-3.063-1.207-7.16-1.832-12.786-1.236z" fill="#612104"/>
    <path d="M114.601 81.374s-.609.535-1.446 1.674c-.833 1.132-1.877 2.886-2.615 5.195a20.214 20.214 0 0 0-.816 3.814c-.171 1.377-.152 2.846-.128 4.375.05 3.056.159 6.337.143 9.642-.003 6.596-.574 13.164-1.973 17.855-.675 2.347-1.539 4.202-2.271 5.407-.74 1.211-1.294 1.8-1.285 1.808-.009-.008.533-.631 1.235-1.879.704-1.243 1.506-3.131 2.112-5.495.621-2.364 1.056-5.179 1.318-8.206.264-3.029.357-6.268.369-9.494.014-3.227-.06-6.468-.064-9.523 0-1.522 0-3.016.195-4.418.18-1.401.497-2.704.896-3.87.797-2.339 1.913-4.1 2.796-5.23.887-1.135 1.532-1.658 1.529-1.658l.005.003z" fill="#612104" opacity=".5"/>
    <path d="M111.109 136.855s1.256-2.763 2.581-7.131c.652-2.183 1.318-4.774 1.706-7.609.19-1.417.312-2.894.278-4.396-.047-1.491-.211-3.044-.321-4.582-.504-6.173-.875-12.306-.561-16.88.147-2.283.476-4.171.885-5.439.402-1.272.868-1.89.856-1.892.01.002-.44.651-.792 1.952-.366 1.293-.628 3.196-.709 5.488-.183 4.589.319 10.686.811 16.73.11 1.52.257 3.02.302 4.544.024 1.517-.109 3.003-.318 4.428-.429 2.848-1.159 5.45-1.872 7.637-1.449 4.382-2.85 7.148-2.843 7.148l-.003.002zM129.407 74.107c.012-.002-1.787-.021-4.211.987a16.16 16.16 0 0 0-3.82 2.259c-1.282 1.013-2.505 2.28-3.569 3.688-2.136 2.815-3.558 6.051-4.431 8.512-.873 2.469-1.264 4.166-1.275 4.162.009.002.29-1.753 1.058-4.292.766-2.528 2.113-5.86 4.256-8.68 1.063-1.407 2.322-2.68 3.659-3.68a15.432 15.432 0 0 1 3.987-2.178c2.526-.923 4.365-.78 4.348-.776l-.002-.002z" fill="#612104"/>
    <path d="M133.578 79.167s-.845.252-2.186.992a18.58 18.58 0 0 0-4.913 3.961c-1.743 1.957-3.311 4.675-4.191 7.854a26.358 26.358 0 0 0-.869 5.01 78.298 78.298 0 0 0-.271 5.303c-.083 3.569.145 7.116.174 10.448.04 3.333-.271 6.434-.811 9.026a51.266 51.266 0 0 1-1.675 6.142c-.485 1.455-.807 2.268-.802 2.268-.005 0 .293-.842.74-2.328.445-1.486 1.052-3.623 1.513-6.234.471-2.609.707-5.693.614-8.993-.079-3.296-.331-6.82-.25-10.339.031-1.762.131-3.524.288-5.252.147-1.736.445-3.444.911-5.046.913-3.22 2.557-5.976 4.368-7.942a18.336 18.336 0 0 1 5.095-3.926c1.389-.716 2.26-.941 2.258-.944h.007z" fill="#612104" opacity=".5"/>
    <path d="m438.302 194.125-12.708-7.336v-28.215l17.22 9.937.012 23.001-4.524 2.613z" fill="#EEF5F9"/>
    <path d="M438.301 188.903v5.222l4.524-2.613-4.524-2.609zM440.563 170.846l-12.484-7.205v-.401l12.484 7.204v.402zM440.563 172.304l-12.484-7.205v-.402l12.484 7.205v.402zM440.563 173.759l-12.484-7.205v-.402l12.484 7.205v.402zM440.563 175.214l-12.484-7.204v-.402l12.484 7.204v.402zM440.563 176.672l-12.484-7.205v-.402l12.484 7.205v.402zM440.563 178.127l-12.484-7.205v-.401l12.484 7.204v.402zM440.563 179.582l-12.484-7.205v-.401l12.484 7.204v.402zM440.563 181.04l-12.484-7.205v-.402l12.484 7.205v.402zM440.563 182.495l-12.484-7.205v-.402l12.484 7.205v.402zM440.563 183.95l-12.484-7.204v-.402l12.484 7.204v.402zM440.563 185.408l-12.484-7.205v-.402l12.484 7.205v.402zM440.563 186.863l-12.484-7.205v-.402l12.484 7.205v.402zM440.563 188.318l-12.484-7.205v-.402l12.484 7.205v.402z" fill="#BBC2C6"/>
    <path d="m593.14 174.125-12.708-7.334v-28.215l17.22 9.937.012 23.001-4.524 2.611z" fill="#EEF5F9"/>
    <path d="M593.14 168.903v5.221l4.524-2.61-4.524-2.611zM595.401 150.848l-12.484-7.204v-.402l12.484 7.204v.402zM595.401 152.303l-12.484-7.204v-.402l12.484 7.205v.401zM595.401 153.759l-12.484-7.203v-.402l12.484 7.205v.4zM595.401 155.216l-12.484-7.204v-.402l12.484 7.205v.401zM595.401 156.672l-12.484-7.205v-.402l12.484 7.205v.402zM595.401 158.129l-12.484-7.204v-.402l12.484 7.204v.402zM595.401 159.584l-12.484-7.205v-.401l12.484 7.204v.402zM595.401 161.04l-12.484-7.205v-.402l12.484 7.205v.402zM595.401 162.497l-12.484-7.205v-.401l12.484 7.204v.402zM595.401 163.953l-12.484-7.205v-.402l12.484 7.205v.402zM595.401 165.407l-12.484-7.204v-.402l12.484 7.205v.401zM595.401 166.865l-12.484-7.207v-.399l12.484 7.204v.402zM595.401 168.32l-12.484-7.204v-.402l12.484 7.205v.401z" fill="#BBC2C6"/>
    <path d="m430.152 394.126-12.708-7.333v-28.215l17.219 9.937.014 23-4.525 2.611z" fill="#EEF5F9"/>
    <path d="M430.152 388.905v5.221l4.525-2.611-4.525-2.61zM432.415 370.85l-12.484-7.207v-.4l12.484 7.205v.402zM432.415 372.305l-12.484-7.205v-.402l12.484 7.205v.402zM432.415 373.76l-12.484-7.204v-.402l12.484 7.205v.401zM432.415 375.216l-12.484-7.205v-.399l12.484 7.204v.4zM432.415 376.673l-12.484-7.205v-.401l12.484 7.204v.402zM432.415 378.128l-12.484-7.204v-.402l12.484 7.204v.402zM432.415 379.583l-12.484-7.202v-.402l12.484 7.205v.399zM432.415 381.041l-12.484-7.204v-.402l12.484 7.205v.401zM432.415 382.496l-12.484-7.204v-.402l12.484 7.204v.402zM432.415 383.954l-12.484-7.205v-.402l12.484 7.205v.402zM432.415 385.409l-12.484-7.205v-.402l12.484 7.205v.402zM432.415 386.865l-12.484-7.205v-.402l12.484 7.205v.402zM432.415 388.32l-12.484-7.203v-.402l12.484 7.205v.4z" fill="#BBC2C6"/>
    <path d="m562.266 370.503-12.708-7.333v-28.215l17.22 9.937.012 23-4.524 2.611z" fill="#EEF5F9"/>
    <path d="M562.266 365.281v5.222l4.524-2.611-4.524-2.611zM564.527 347.227l-12.484-7.205v-.402l12.484 7.205v.402zM564.527 348.682l-12.484-7.205v-.399l12.484 7.202v.402zM564.527 350.14l-12.484-7.205v-.402l12.484 7.205v.402zM564.527 351.595l-12.484-7.205v-.402l12.484 7.205v.402zM564.527 353.05l-12.484-7.205v-.399l12.484 7.202v.402zM564.527 354.508l-12.484-7.205v-.402l12.484 7.205v.402zM564.527 355.963l-12.484-7.205v-.402l12.484 7.205v.402zM564.527 357.418l-12.484-7.202v-.402l12.484 7.202v.402zM564.527 358.875l-12.484-7.204v-.402l12.484 7.205v.401zM564.527 360.331l-12.484-7.205v-.402l12.484 7.205v.402zM564.527 361.788l-12.484-7.207v-.402l12.484 7.205v.404zM564.527 363.244l-12.484-7.205v-.402l12.484 7.205v.402zM564.527 364.699l-12.484-7.205v-.402l12.484 7.205v.402z" fill="#BBC2C6"/>
    <path d="m559.024 223.279-21.446-12.377v-19.391l21.446 12.377v19.391z" fill="#EEF5F9"/>
    <path d="m549.879 212.883-7.201-12.469-5.1 4.555v5.933l21.446 12.377v-4.884l-4.649-8.049-4.496 2.537zM552.969 205.688c0-1.408-.99-3.12-2.21-3.824-1.221-.704-2.21-.133-2.21 1.275 0 1.407.989 3.119 2.21 3.823 1.22.704 2.21.133 2.21-1.274z" fill="#BBC2C6"/>
    <path d="m387.821 232.545-21.445-12.377v-19.391l21.445 12.377v19.391z" fill="#EEF5F9"/>
    <path d="m378.677 222.149-7.203-12.469-5.098 4.556v5.932l21.445 12.377v-4.887l-4.648-8.046-4.496 2.537zM381.766 214.954c0-1.408-.99-3.12-2.21-3.824-1.221-.704-2.21-.133-2.21 1.275 0 1.407.989 3.119 2.21 3.826 1.22.704 2.21.133 2.21-1.275v-.002z" fill="#BBC2C6"/>
    <path d="m492.741 397.02-21.445-12.376v-19.391l21.445 12.376v19.391z" fill="#EEF5F9"/>
    <path d="m483.597 386.624-7.203-12.469-5.098 4.556v5.933l21.445 12.376v-4.884l-4.648-8.049-4.496 2.537zM486.687 379.429c0-1.408-.99-3.12-2.21-3.823-1.221-.704-2.21-.134-2.21 1.274s.989 3.12 2.21 3.824c1.22.703 2.21.133 2.21-1.275z" fill="#BBC2C6"/>
    <g style="mix-blend-mode:multiply" opacity=".4" fill="#044BA3">
        <path d="M440.256 122.289c-.704-.407-1.341-.445-1.803-.179-.461.267-.747.837-.747 1.651 0 .813.286 1.712.747 2.511.462.799 1.099 1.495 1.803 1.902.704.406 1.342.444 1.803.178.462-.266.747-.837.747-1.65s-.285-1.712-.747-2.511c-.461-.799-1.099-1.496-1.803-1.902z"/>
        <path d="M467.781 129.239c-.704-.407-1.341-.445-1.803-.178-.252.145-.449.385-.578.704-1.346-1.437-2.414-3.353-3.592-5.472-1.991-3.585-4.249-7.649-8.452-10.077-5.885-3.395-10.769 4.092-12.891 8.168.526.342 1.006.842 1.399 1.419 2.029-3.856 6.518-10.747 11.494-7.875 3.564 2.057 5.415 5.388 7.375 8.917 1.33 2.394 2.697 4.851 4.589 6.665.116.578.347 1.167.661 1.712.461.799 1.099 1.496 1.803 1.902.704.407 1.342.445 1.803.178.462-.266.747-.837.747-1.65s-.285-1.712-.747-2.511c-.461-.799-1.099-1.495-1.803-1.902h-.005z"/>
        <path d="M487.197 126.291c-.462-.799-1.099-1.496-1.803-1.903-.704-.406-1.342-.444-1.803-.178-.36.207-.609.599-.705 1.144-2.907-.302-5.457 1.61-7.94 3.476-1.734 1.303-3.402 2.556-5.017 2.899.28.632.445 1.298.445 1.914v.045c1.924-.257 3.775-1.645 5.695-3.091 2.252-1.693 4.567-3.429 7.02-3.358.126.386.297.768.504 1.13.461.799 1.099 1.495 1.803 1.902.704.407 1.342.445 1.803.178.462-.266.747-.837.747-1.65s-.285-1.714-.747-2.511l-.002.003z"/>
        <path d="M499.605 139.525c-.704-.406-1.341-.444-1.803-.178a1.379 1.379 0 0 0-.554.637c-1.04-1.079-1.972-2.56-3-4.204-1.586-2.532-3.485-5.559-6.377-7.925.073.319.114.633.114.935 0 .302-.041.58-.117.813 2.322 1.988 3.882 4.47 5.398 6.893 1.223 1.952 2.398 3.821 3.851 5.181.107.616.348 1.251.683 1.831.461.799 1.099 1.496 1.803 1.903.704.406 1.342.444 1.803.178.462-.266.747-.837.747-1.65 0-.814-.285-1.712-.747-2.511-.461-.799-1.099-1.496-1.803-1.903h.002z"/>
        <path d="M516.675 135.766c-.462-.799-1.099-1.495-1.803-1.902-.704-.407-1.342-.445-1.803-.178-.336.195-.576.551-.686 1.043-5.128-1.426-7.812 1.739-9.867 4.166-.559.661-1.09 1.282-1.606 1.736a6.098 6.098 0 0 1 1.025 1.852c.612-.504 1.202-1.198 1.823-1.933 1.969-2.328 4.332-5.112 8.749-4.013.129.447.321.891.562 1.307.461.799 1.099 1.496 1.803 1.903.704.406 1.341.444 1.803.178.461-.266.747-.837.747-1.65s-.286-1.715-.747-2.511v.002z"/>
    </g>
    <path d="M438.133 129.674c0-.813-.286-1.712-.747-2.511-.462-.799-1.099-1.495-1.804-1.902-.704-.406-1.341-.445-1.803-.178l2.741-1.598c.461-.266 1.099-.228 1.803.178.704.407 1.342 1.104 1.803 1.902.462.799.747 1.698.747 2.511 0 .814-.285 1.384-.747 1.651l-2.74 1.598c.461-.267.747-.837.747-1.651z" fill="#FFB710"/>
    <path opacity=".5" d="m438.325 123.664-2.74 1.597c.704.407 1.342 1.104 1.803 1.903l2.741-1.598c-.462-.799-1.099-1.496-1.804-1.902z" fill="#FFDE36"/>
    <path opacity=".5" d="m440.127 125.565-2.74 1.598c.461.799.747 1.698.747 2.511l2.74-1.598c0-.813-.285-1.712-.747-2.511z" fill="#DE7B04"/>
    <path d="m436.522 123.485-2.741 1.598c.462-.267 1.099-.228 1.803.178l2.741-1.598c-.704-.406-1.342-.444-1.803-.178z" fill="#FFDE36"/>
    <path d="M438.134 129.675c0 .81-.286 1.381-.747 1.65l2.74-1.598c.462-.266.747-.837.747-1.65l-2.74 1.598z" fill="#DE7B04"/>
    <path d="M433.782 125.083c.462-.267 1.099-.229 1.803.178.704.407 1.342 1.103 1.803 1.902.462.799.747 1.698.747 2.511 0 .813-.285 1.382-.747 1.65-.461.267-1.099.229-1.803-.178-.704-.407-1.341-1.103-1.803-1.902-.461-.799-.747-1.698-.747-2.511 0-.813.286-1.384.747-1.65z" fill="#FFB710"/>
    <path d="M457.567 127.028c-1.991-3.586-4.249-7.65-8.452-10.077-5.886-3.396-10.769 4.092-12.891 8.167.525.343 1.006.842 1.398 1.42 2.03-3.857 6.518-10.748 11.495-7.875 3.564 2.057 5.414 5.388 7.375 8.917 1.344 2.418 2.723 4.898 4.646 6.719a4.228 4.228 0 0 1-.1-.863c0-.349.054-.651.152-.906-1.361-1.441-2.434-3.367-3.618-5.502h-.005z" fill="#BAE2FF"/>
    <path d="m437.62 126.538 1.91-1.032c1.173-2.228 3.164-5.466 5.598-7.252.076-.026.152-.05.231-.074-3.393.996-6.238 5.507-7.739 8.358z" fill="#65B7FF"/>
    <path d="M463.097 131.498c-1.36-1.438-2.433-3.367-3.618-5.502-1.991-3.586-4.249-7.649-8.452-10.077-2.543-1.467-4.898-.901-6.925.542h-.002c1.548-.568 3.237-.537 5.017.487 4.203 2.426 6.463 6.492 8.452 10.077 1.184 2.136 2.257 4.062 3.618 5.503a2.51 2.51 0 0 0-.152.906 4 4 0 0 0 .1.863l1.91-1.032a4.213 4.213 0 0 1-.1-.863c0-.35.057-.652.152-.906v.002z" fill="#E1F5FE"/>
    <path d="M465.662 136.625c0-.813-.286-1.712-.747-2.511-.462-.799-1.099-1.496-1.803-1.902-.704-.407-1.342-.445-1.803-.179l2.74-1.597c.462-.267 1.099-.229 1.803.178.704.407 1.342 1.103 1.803 1.902.462.799.747 1.698.747 2.511 0 .813-.285 1.384-.747 1.65l-2.74 1.598c.461-.266.747-.837.747-1.65z" fill="#FFB710"/>
    <path opacity=".5" d="m465.853 130.614-2.741 1.598c.704.407 1.342 1.103 1.803 1.902l2.741-1.598c-.462-.799-1.099-1.495-1.803-1.902z" fill="#FFDE36"/>
    <path opacity=".5" d="m467.656 132.516-2.741 1.598c.462.799.747 1.7.747 2.511l2.74-1.598c0-.813-.285-1.714-.746-2.511z" fill="#DE7B04"/>
    <path d="m464.049 130.436-2.74 1.597c.461-.266 1.099-.228 1.803.179l2.74-1.598c-.704-.407-1.341-.445-1.803-.178z" fill="#FFDE36"/>
    <path d="M465.662 136.625c0 .813-.285 1.384-.747 1.65l2.741-1.597c.461-.267.746-.837.746-1.651l-2.74 1.598z" fill="#DE7B04"/>
    <path d="M461.308 132.034c.462-.267 1.1-.229 1.804.178.704.406 1.341 1.103 1.803 1.902.461.799.747 1.7.747 2.511 0 .811-.286 1.384-.747 1.65-.462.267-1.099.229-1.803-.178-.704-.407-1.342-1.103-1.804-1.902-.461-.799-.746-1.698-.746-2.511 0-.814.285-1.384.746-1.65z" fill="#FFB710"/>
    <path d="M478.645 128.583c0-.176.017-.34.041-.492-2.924-.326-5.486 1.598-7.981 3.474-1.735 1.303-3.402 2.556-5.017 2.898.28.633.444 1.299.444 1.914v.046c1.925-.257 3.776-1.646 5.695-3.092 2.267-1.704 4.596-3.452 7.066-3.357a4.505 4.505 0 0 1-.245-1.393l-.003.002z" fill="#BAE2FF"/>
    <path d="M478.685 128.088a2.834 2.834 0 0 0-.041.493c0 .225.024.458.064.694.688-.231 1.382-.359 2.091-.333a4.52 4.52 0 0 1-.245-1.393c0-.176.017-.34.041-.493-1.925-.214-3.692.547-5.386 1.624 1.111-.475 2.262-.727 3.476-.594v.002z" fill="#E1F5FE"/>
    <path d="M471.824 133.331c-.775.583-1.536 1.154-2.298 1.648 1.404-.573 2.788-1.609 4.211-2.679.823-.619 1.653-1.242 2.495-1.781-1.505.634-2.968 1.731-4.405 2.81l-.003.002z" fill="#65B7FF"/>
    <path d="m467.598 133.431-1.91 1.032c.915-.195 1.85-.682 2.802-1.307-.3.118-.597.211-.892.275z" fill="#E1F5FE"/>
    <path d="M483.273 131.772c0-.814-.285-1.715-.747-2.511-.461-.799-1.099-1.496-1.803-1.903-.704-.406-1.342-.444-1.803-.178l2.74-1.598c.462-.266 1.099-.228 1.804.178.704.407 1.341 1.104 1.803 1.903.461.799.747 1.697.747 2.511 0 .813-.286 1.384-.747 1.65l-2.741 1.598c.462-.267.747-.837.747-1.65z" fill="#FFB710"/>
    <path opacity=".5" d="m483.463 125.76-2.74 1.598c.704.407 1.341 1.104 1.803 1.903l2.74-1.598c-.461-.799-1.099-1.496-1.803-1.903z" fill="#FFDE36"/>
    <path opacity=".5" d="m485.266 127.663-2.741 1.597c.462.799.747 1.701.747 2.511l2.741-1.597c0-.814-.286-1.715-.747-2.511z" fill="#DE7B04"/>
    <path d="m481.661 125.582-2.74 1.598c.461-.266 1.099-.228 1.803.178l2.741-1.598c-.705-.406-1.342-.444-1.804-.178z" fill="#FFDE36"/>
    <path d="M483.272 131.772c0 .811-.285 1.384-.747 1.65l2.741-1.598c.461-.266.747-.837.747-1.65l-2.741 1.598z" fill="#DE7B04"/>
    <path d="M478.919 127.18c.461-.266 1.099-.228 1.803.178.704.407 1.342 1.104 1.803 1.903.462.799.747 1.7.747 2.511 0 .81-.285 1.383-.747 1.65-.461.266-1.099.228-1.803-.179-.704-.406-1.342-1.103-1.803-1.902-.462-.799-.747-1.698-.747-2.511 0-.813.285-1.384.747-1.65z" fill="#FFB710"/>
    <path d="M491.92 137.483c-1.587-2.532-3.485-5.559-6.378-7.925l-1.915 1.106.742 1.907 4.998 6.277 2.829 4.256.839-.356 1.911-1.032c-1.049-1.08-1.989-2.578-3.029-4.235l.003.002z" fill="#E1F5FE"/>
    <path d="M492.857 143.72c0-.38.064-.706.178-.972-1.051-1.08-1.988-2.578-3.028-4.235-1.587-2.532-3.485-5.559-6.378-7.925.074.318.115.632.115.934 0 .302-.041.58-.117.813 2.322 1.988 3.882 4.471 5.398 6.894 1.239 1.978 2.426 3.871 3.906 5.233a3.997 3.997 0 0 1-.076-.744l.002.002z" fill="#BAE2FF"/>
    <path d="M497.483 146.911c0-.813-.285-1.714-.747-2.511-.461-.799-1.099-1.496-1.803-1.902-.704-.407-1.342-.445-1.803-.179l2.74-1.598c.462-.266 1.099-.228 1.804.179.704.406 1.341 1.103 1.803 1.902.461.799.747 1.698.747 2.511 0 .813-.286 1.384-.747 1.648l-2.741 1.598c.462-.267.747-.837.747-1.65v.002z" fill="#FFB710"/>
    <path opacity=".5" d="m497.677 140.9-2.74 1.598c.704.407 1.341 1.103 1.803 1.902l2.74-1.598c-.461-.799-1.099-1.495-1.803-1.902z" fill="#FFDE36"/>
    <path opacity=".5" d="m499.478 142.8-2.741 1.598c.462.799.747 1.697.747 2.511l2.741-1.598c0-.813-.286-1.715-.747-2.511z" fill="#DE7B04"/>
    <path d="m495.873 140.719-2.74 1.598c.461-.266 1.099-.228 1.803.179l2.74-1.598c-.704-.407-1.341-.445-1.803-.179z" fill="#FFDE36"/>
    <path d="M497.484 146.911c0 .811-.285 1.384-.747 1.65l2.741-1.598c.461-.266.747-.836.747-1.647l-2.741 1.598v-.003z" fill="#DE7B04"/>
    <path d="M493.133 142.317c.461-.266 1.099-.228 1.803.179.704.406 1.342 1.103 1.803 1.902.462.799.747 1.698.747 2.511 0 .813-.285 1.384-.747 1.65-.461.266-1.099.228-1.803-.178-.704-.407-1.342-1.104-1.803-1.903-.462-.799-.747-1.697-.747-2.511 0-.813.285-1.383.747-1.65z" fill="#FFB710"/>
    <path d="M509.16 138.363c0-.198.017-.381.05-.547-5.835-2.209-8.742 1.222-10.935 3.814-.559.661-1.09 1.282-1.606 1.736a5.979 5.979 0 0 1 1.025 1.852c.612-.504 1.202-1.198 1.822-1.933 2.127-2.513 4.708-5.562 9.842-3.679a4.373 4.373 0 0 1-.195-1.243h-.003z" fill="#BAE2FF"/>
    <path d="M509.211 137.816a3.225 3.225 0 0 0-.033.237 9.43 9.43 0 0 1 2.091.524 4.392 4.392 0 0 1-.198-1.244c0-.197.017-.38.05-.549-3.53-1.337-5.987-.607-7.864.751 1.579-.578 3.509-.644 5.954.281z" fill="#E1F5FE"/>
    <path d="M499.516 143.285c-.621.735-1.211 1.429-1.823 1.933l1.911-1.032c.611-.504 1.201-1.198 1.822-1.933.84-.992 1.748-2.064 2.859-2.887-2.055.714-3.494 2.411-4.769 3.919z" fill="#65B7FF"/>
    <path d="M513.788 141.554c0-.813-.285-1.712-.747-2.511-.461-.799-1.099-1.496-1.8-1.902-.704-.407-1.342-.445-1.803-.179l2.74-1.598c.461-.266 1.099-.228 1.803.179.704.406 1.342 1.103 1.803 1.902.462.799.747 1.698.747 2.511 0 .813-.285 1.384-.747 1.648l-2.743 1.598c.462-.267.747-.837.747-1.648z" fill="#FFB710"/>
    <path opacity=".5" d="m513.982 135.541-2.741 1.597c.704.407 1.342 1.104 1.801 1.903l2.743-1.598c-.462-.799-1.099-1.496-1.803-1.902z" fill="#FFDE36"/>
    <path opacity=".5" d="m515.785 137.443-2.743 1.598c.461.798.747 1.7.747 2.51l2.74-1.597c0-.814-.285-1.715-.747-2.511h.003z" fill="#DE7B04"/>
    <path d="m512.178 135.362-2.74 1.598c.461-.266 1.099-.228 1.803.178l2.74-1.598c-.704-.406-1.342-.444-1.803-.178z" fill="#FFDE36"/>
    <path d="M513.789 141.554c0 .811-.286 1.384-.747 1.648l2.743-1.598c.461-.266.747-.837.747-1.648l-2.741 1.598h-.002z" fill="#DE7B04"/>
    <path d="M509.438 136.96c.461-.267 1.099-.228 1.803.178.704.407 1.342 1.103 1.801 1.902.461.799.747 1.7.747 2.511 0 .811-.286 1.384-.747 1.648-.462.266-1.099.228-1.803-.178-.705-.407-1.342-1.104-1.804-1.902-.461-.799-.747-1.698-.747-2.511 0-.814.286-1.384.747-1.651l.003.003z" fill="#FFB710"/>
    <path d="m441.896 298.334-53.111-30.65v55.368l53.111 30.649v-55.367z" fill="#2A71C9"/>
    <path d="m404.246 324.461-7.324-4.225v-38.211l7.327 4.227-.003 38.209z" fill="#044BA3" style="mix-blend-mode:multiply" opacity=".4"/>
    <path d="m399.81 288.842-7.327-4.228 2.22-1.293 7.324 4.227-2.217 1.294z" fill="#FFDE36"/>
    <path d="m402.027 325.757-2.219 1.294.002-38.209 2.217-1.294v38.209z" fill="#DE7B04"/>
    <path d="m399.808 327.051-7.325-4.228v-38.209l7.327 4.228-.002 38.209z" fill="#FFB710"/>
    <path d="m413.379 329.78-7.327-4.227.002-22.064 7.325 4.228v22.063z" fill="#044BA3" style="mix-blend-mode:multiply" opacity=".4"/>
    <path d="m408.94 310.304-7.325-4.228 2.22-1.294 7.324 4.228-2.219 1.294z" fill="#FFDE36"/>
    <path d="m411.16 331.074-2.22 1.294v-22.064l2.22-1.294v22.064z" fill="#DE7B04"/>
    <path d="m408.94 332.368-7.325-4.228v-22.064l7.325 4.228v22.064z" fill="#FFB710"/>
    <path d="m422.926 335.097-7.327-4.227v-30.137l7.327 4.228v30.136z" fill="#044BA3" style="mix-blend-mode:multiply" opacity=".4"/>
    <path d="m418.486 307.548-7.327-4.228 2.22-1.293 7.327 4.228-2.22 1.293z" fill="#FFDE36"/>
    <path d="m420.706 336.391-2.222 1.293.003-30.136 2.219-1.294v30.137z" fill="#DE7B04"/>
    <path d="m418.484 337.684-7.325-4.225V303.32l7.327 4.228-.002 30.136z" fill="#FFB710"/>
    <path d="m431.888 340.414-7.325-4.228v-13.991l7.327 4.228-.002 13.991z" fill="#044BA3" style="mix-blend-mode:multiply" opacity=".4"/>
    <path d="m427.452 329.01-7.327-4.225 2.22-1.296 7.324 4.228-2.217 1.293z" fill="#FFDE36"/>
    <path d="m429.669 341.707-2.22 1.296.003-13.993 2.217-1.294v13.991z" fill="#DE7B04"/>
    <path d="m427.45 343.003-7.325-4.228v-13.991l7.327 4.226-.002 13.993z" fill="#FFB710"/>
    <path d="m436.598 304.973-21.068-12.158v-2.456l21.068 12.157v2.457z" fill="#044BA3" style="mix-blend-mode:multiply" opacity=".4"/>
    <path d="m433.414 304.186-21.067-12.158 1.591-.837 21.067 12.158-1.591.837z" fill="#fff"/>
    <path d="m435.006 305.805-1.592.837v-2.456l1.592-.837v2.456z" fill="#BCC3C7"/>
    <path d="m433.414 306.642-21.067-12.158v-2.456l21.067 12.158v2.456z" fill="#EEF5F9"/>
    <path d="m436.598 300.094-21.068-12.158v-2.457l21.068 12.158v2.457z" fill="#044BA3" style="mix-blend-mode:multiply" opacity=".4"/>
    <path d="m433.414 299.309-21.067-12.16 1.591-.837 21.067 12.157-1.591.84z" fill="#fff"/>
    <path d="m435.006 300.926-1.592.837v-2.454l1.592-.84v2.457z" fill="#BCC3C7"/>
    <path d="m433.414 301.763-21.067-12.158v-2.456l21.067 12.16v2.454z" fill="#EEF5F9"/>
    <g style="mix-blend-mode:multiply" opacity=".4" fill="#044BA3">
        <path d="M530.448 277.604c-1.059 6.951-4.173 11.916-8.662 14.505-5.595 3.229-13.324 2.763-21.862-2.166-8.54-4.929-16.269-13.382-21.864-23.07-3.775-6.536-6.577-13.627-8.002-20.577-.69-3.355-1.054-6.677-1.054-9.885 0-1.952.135-3.787.397-5.504 1.056-6.951 4.173-11.918 8.659-14.505 5.595-3.229 13.324-2.765 21.864 2.164v35.688l30.524 23.348v.002z"/>
        <path d="M533.606 272.147c0 1.952-.136 3.79-.397 5.505l-30.523-23.348 29.864 7.956c.69 3.355 1.056 6.677 1.056 9.887zM532.55 260.489l-29.864-7.956v-35.689c8.54 4.927 16.269 13.385 21.864 23.07 3.775 6.532 6.577 13.625 8.002 20.573l-.002.002z"/>
    </g>
    <path d="M496.419 256.699v-35.691c-8.54-4.929-16.269-5.393-21.864-2.164l-6.935 4.133c-4.489 2.587-7.603 7.554-8.661 14.504a36.517 36.517 0 0 0-.397 5.505c0 3.208.366 6.529 1.053 9.884 1.425 6.951 4.228 14.041 8.003 20.578 5.595 9.685 13.324 18.14 21.864 23.069 8.538 4.927 16.267 5.396 21.862 2.167l6.934-4.133c4.489-2.589 7.603-7.554 8.662-14.505l-30.524-23.347h.003z" fill="#BAE2FF"/>
    <path d="M520.008 284.177c-1.058 6.95-4.172 11.915-8.661 14.504-5.595 3.229-13.324 2.763-21.862-2.166-8.54-4.929-16.269-13.382-21.864-23.069-3.775-6.537-6.575-13.627-8.003-20.578-.69-3.355-1.054-6.677-1.054-9.884 0-1.953.136-3.788.398-5.505 1.056-6.95 4.172-11.918 8.661-14.505 5.595-3.229 13.324-2.763 21.867 2.164v35.689l30.523 23.347-.005.003z" fill="#BAE2FF"/>
    <path opacity=".7" d="m496.419 256.699-6.932 4.13 30.521 23.348 6.935-4.131-30.524-23.347z" fill="#E1F5FE"/>
    <path d="M489.487 225.14v35.689l6.932-4.13v-35.691l-6.932 4.132zM520.008 284.177c-1.058 6.95-4.172 11.915-8.661 14.504l6.934-4.132c4.489-2.59 7.603-7.555 8.662-14.505l-6.932 4.133h-.003z" fill="#65B7FF"/>
    <path opacity=".7" d="m474.555 218.844-6.935 4.133c5.595-3.229 13.324-2.763 21.867 2.163l6.934-4.132c-8.54-4.929-16.269-5.393-21.866-2.164z" fill="#E1F5FE"/>
    <path d="m529.044 264.703-29.864-7.959-6.935 4.133 30.523 23.35 6.935-4.133c.261-1.714.397-3.552.397-5.504 0-3.21-.366-6.532-1.056-9.89v.003z" fill="#2C90F6"/>
    <path d="M523.166 278.722c0 1.952-.136 3.79-.398 5.505l-30.523-23.348 29.864 7.954c.69 3.355 1.057 6.677 1.057 9.887v.002z" fill="#2C90F6"/>
    <path d="M499.18 256.744v.005l-6.932 4.128 29.864 7.958 6.932-4.132-29.864-7.959z" fill="#65B7FF"/>
    <path d="m529.044 264.703-6.932 4.132c.69 3.355 1.057 6.677 1.057 9.887 0 1.952-.136 3.79-.398 5.505l6.935-4.133c.261-1.714.397-3.552.397-5.504 0-3.211-.366-6.532-1.056-9.89l-.003.003z" fill="#0F6FD1"/>
    <path d="M521.044 242.358c-5.595-9.687-13.324-18.143-21.862-23.069l-6.934 4.132v35.686l29.864 7.956 6.932-4.132c-1.425-6.95-4.227-14.041-8-20.575v.002z" fill="#FFB710"/>
    <path d="m522.112 267.064-29.864-7.957v-35.686c8.538 4.927 16.269 13.385 21.862 23.07 3.775 6.532 6.577 13.625 8.002 20.573z" fill="#FFB710"/>
    <path d="m499.182 219.289-6.934 4.132c8.538 4.927 16.267 13.385 21.862 23.07l6.934-4.133c-5.595-9.687-13.324-18.143-21.862-23.069z" fill="#FFDE36"/>
    <path opacity=".7" d="m521.045 242.358-6.935 4.133c3.776 6.532 6.578 13.625 8.003 20.573l6.932-4.133c-1.425-6.95-4.227-14.041-8-20.575v.002z" fill="#FFDE36"/>
    <path d="M381.606 379.387c-.184-.319-.438-.597-.719-.759l-15.857-9.15v-2.637c0-.323-.115-.682-.298-1.001-.183-.318-.438-.597-.718-.758l-13.189-7.612c-.28-.161-.535-.178-.718-.071-.183.107-.297.333-.297.659v33.677l28.28 15.134c0 .326.109.569.309.683.2.114.464.088.747-.074l1.715-.989c.281-.162.545-.442.745-.787.166-.286.268-.587.297-.868v-24.446c0-.324-.114-.683-.297-1.001z" fill="#044BA3" style="mix-blend-mode:multiply" opacity=".4"/>
    <path d="M346.932 364.375v-3.809c0-.324.114-.552.297-.659l.747-.418c.183-.107.438-.091.718.071l13.189 7.611c.281.162.535.44.718.759.183.319.298.678.298 1.001v2.637l15.857 9.15c.281.161.535.44.719.758.183.319.297.678.297 1.001l-.747.419v24.446a2.273 2.273 0 0 1-.297.868c-.2.345-.464.625-.745.787l-1.715.989c-.281.162-.547.19-.747.074-.2-.114-.309-.357-.309-.683v-22.696c0-.323-.117-.682-.3-1.001-.183-.318-.438-.597-.719-.758l-27.261-15.732v-4.815z" fill="#FFB710"/>
    <path opacity=".5" d="M361.885 367.171c.281.162.536.44.719.759l-.748.419c-.183-.319-.437-.597-.718-.759l.747-.419z" fill="#FFDE36"/>
    <path opacity=".5" d="M362.603 367.929c.183.319.297.678.297 1.002l-.747.419c0-.324-.114-.683-.298-1.002l.748-.419z" fill="#DE7B04"/>
    <path d="M362.9 368.931v2.634l-.747.421v-2.637l.747-.418z" fill="#DE7B04"/>
    <path opacity=".5" d="M378.757 380.718c.281.162.536.44.719.759l-.747.418c-.184-.318-.438-.597-.719-.759l.747-.418z" fill="#FFDE36"/>
    <path opacity=".5" d="M379.477 381.476c.183.319.297.678.297 1.002l-.747.418c0-.323-.114-.682-.298-1.001l.748-.419z" fill="#DE7B04"/>
    <path d="M347.976 359.489c.184-.107.438-.091.719.071l13.188 7.611-.747.419-13.188-7.611c-.281-.162-.535-.179-.719-.072l.747-.418zM362.9 371.565l15.855 9.153-.744.418-15.858-9.15.747-.421z" fill="#FFDE36"/>
    <path d="M378.728 408.207c-.2.345-.464.626-.745.787l-1.715.989c-.281.162-.547.191-.747.074-.2-.114-.309-.357-.309-.682v-22.696c0-.324-.117-.683-.3-1.001-.183-.319-.438-.597-.719-.759l-27.261-15.732v-8.624c0-.323.114-.552.297-.659.183-.107.438-.09.718.072l13.189 7.611c.281.162.535.44.718.759.183.318.298.677.298 1.001v2.637l15.857 9.15c.281.161.535.439.719.758.183.319.297.678.297 1.001v24.446a2.273 2.273 0 0 1-.297.868z" fill="#FFB710"/>
    <path d="m374.057 408.719 3.818-2.216v-24.425l-3.818 2.216v24.425z" fill="#BBC2C6"/>
    <path d="m344.186 367.055 29.871 17.239 3.818-2.216-29.871-17.239-3.818 2.216z" fill="#EEF5F9"/>
    <path d="m344.186 391.482 29.871 17.237v-24.425l-29.871-17.239v24.427z" fill="#D4DBDF"/>
    <path d="m376.22 383.041-29.745-17.166v-.152l29.871 17.239v24.425l-.126-.074v-24.272z" fill="#D4DBDF"/>
    <path d="m374.53 384.047-29.746-17.166v-.15l29.872 17.237v24.425l-.126-.071v-24.275z" fill="#D4DBDF"/>
    <path d="m376.971 382.606-29.745-17.166v-.152l29.871 17.239v24.425l-.126-.074v-24.272z" fill="#D4DBDF"/>
    <path d="M342.366 368.598c0-.323.115-.551.298-.656l.747-.437c.183-.107.437-.091.718.071l30.062 17.348c.281.162.535.44.718.759.183.319.298.678.298 1.001v22.696c0 .326.111.568.311.683.2.114.464.087.747-.074l1.715-.989c.281-.162.545-.443.745-.787.2-.345.309-.714.309-1.04l-.009-24.272.747-.419.012 24.261c0 .576-.203 1.213-.528 1.776-.326.566-.778 1.058-1.276 1.346l-1.715.989c-.497.288-.949.314-1.275.126l-32.107-18.501c-.326-.188-.529-.592-.529-1.168l.012-22.71v-.003z" fill="#FFB710"/>
    <path opacity=".5" d="M374.194 384.922c.28.162.535.44.718.759l-.747.438-.038-.062c-.181-.293-.419-.545-.681-.697l.745-.438h.003z" fill="#FFDE36"/>
    <path opacity=".5" d="M374.912 385.68c.184.319.298.678.298 1.002l-.747.438c0-.324-.115-.683-.298-1.002l.747-.438z" fill="#DE7B04"/>
    <path d="M375.208 386.682v22.696c0 .325.112.568.312.682.2.114.464.088.747-.074l1.715-.989c.281-.161.545-.442.745-.787.2-.345.309-.713.309-1.039l-.009-24.273.746-.418.012 24.261c0 .575-.202 1.212-.528 1.776-.326.566-.778 1.058-1.275 1.346l-1.715.989c-.497.288-.949.314-1.275.126-.326-.188-.528-.592-.528-1.168v-22.689l.747-.437-.003-.002z" fill="#DE7B04"/>
    <path d="M374.465 409.808v-22.689c0-.323-.115-.682-.298-1.001-.183-.318-.437-.596-.718-.758l-30.062-17.349c-.281-.161-.535-.176-.718-.071-.184.107-.298.333-.298.656l-.012 22.711c0 .575.203.979.529 1.167l32.107 18.502c-.326-.188-.528-.592-.528-1.168h-.002z" fill="#FFB710"/>
    <path d="M343.411 367.502c.183-.107.437-.09.718.071l30.062 17.349-.745.437-30.062-17.348c-.28-.162-.535-.176-.718-.071l.747-.438h-.002z" fill="#FFDE36"/>
</svg>
