<svg width="460" height="498" viewBox="0 0 460 498" fill="none" xmlns="http://www.w3.org/2000/svg">
    <path d="M300 79.5c0 43.907-35.528 79.5-79.354 79.5S96 154.907 96 111 176.82 0 220.646 0C264.472 0 300 35.593 300 79.5z" fill="#E96155"/>
    <path d="M129.872 110h-5.152v-1.36l1.2-.48v-7.52l-1.2-.48V98.8l3.68-.08h4.48v3.04h-1.488l-.4-1.12H128.4v2.8h3.312v1.76H128.4v2.96l1.472.48V110zm4.961-11.28c0-.912.656-1.44 1.376-1.44.832 0 1.344.432 1.344 1.44 0 .944-.688 1.456-1.344 1.456-.864 0-1.376-.512-1.376-1.456zm2.688 2.64v6.96l1.12.4V110h-4.8v-1.28l1.28-.4v-5.2l-1.28-.4v-1.28l3.68-.08zm5.556 0 .112 1.104s1.52-1.232 2.944-1.232c1.552 0 2.432 1.104 2.432 2.848v4.24l1.12.4V110h-4.4v-1.28l.88-.4v-3.808c0-.736-.416-1.28-1.088-1.28-.992 0-1.712.912-1.712.912v4.176l.88.4V110h-4.56v-1.28l1.28-.4v-5.2l-1.28-.4v-1.28l3.392-.08zm13.017 8.64-.288-1.04s-1.232 1.2-2.592 1.2c-1.552 0-2.496-.912-2.496-2.512 0-1.888 1.424-2.64 3.856-2.64h1.12v-.88c0-.816-.432-1.168-1.232-1.168-.816 0-1.408.24-1.408.24l-.24 1.008h-1.44l-.112-2.368s1.936-.64 3.472-.64c2.432 0 3.36.848 3.36 3.168v3.952l1.2.288v1.28l-3.2.112zm-3.056-2.592c0 .608.336.96.944.96.848 0 1.712-.928 1.712-.928v-1.072h-.912c-1.248 0-1.744.32-1.744 1.04zm10.602-6.048.112 1.104s1.52-1.232 2.944-1.232c1.552 0 2.432 1.104 2.432 2.848v4.24l1.12.4V110h-4.4v-1.28l.88-.4v-3.808c0-.736-.416-1.28-1.088-1.28-.992 0-1.712.912-1.712.912v4.176l.88.4V110h-4.56v-1.28l1.28-.4v-5.2l-1.28-.4v-1.28l3.392-.08zm15.161 7.44c-.4.352-1.648 1.36-3.44 1.36-2.64 0-4.16-1.632-4.16-4.352 0-2.848 1.6-4.608 4.4-4.608 1.376 0 2.8.56 2.8.56l-.08 2.624h-1.44l-.224-1.136s-.464-.128-1.104-.128c-1.152 0-1.872.768-1.872 2.368 0 1.744.672 2.752 2 2.752 1.12 0 1.824-.56 2.32-.848l.8 1.408zm1.798-10.08c0-.912.656-1.44 1.376-1.44.832 0 1.344.432 1.344 1.44 0 .944-.688 1.456-1.344 1.456-.864 0-1.376-.512-1.376-1.456zm2.688 2.64v6.96l1.12.4V110h-4.8v-1.28l1.28-.4v-5.2l-1.28-.4v-1.28l3.68-.08zm7.62 8.64-.288-1.04s-1.232 1.2-2.592 1.2c-1.552 0-2.496-.912-2.496-2.512 0-1.888 1.424-2.64 3.856-2.64h1.12v-.88c0-.816-.432-1.168-1.232-1.168-.816 0-1.408.24-1.408.24l-.24 1.008h-1.44l-.112-2.368s1.936-.64 3.472-.64c2.432 0 3.36.848 3.36 3.168v3.952l1.2.288v1.28l-3.2.112zm-3.056-2.592c0 .608.336.96.944.96.848 0 1.712-.928 1.712-.928v-1.072h-.912c-1.248 0-1.744.32-1.744 1.04zm10.745-9.808v10.72l1.44.4V110H194.9v-1.28l1.28-.4v-8.992l-1.28-.32v-1.28l3.696-.128zm8.143 10.272s.64.336 1.568.336c1.024 0 1.936-.448 1.936-1.296 0-1.872-5.408-1.04-5.408-4.992 0-2.208 1.744-3.392 4.064-3.392 1.808 0 3.52.64 3.52.64l-.08 2.912h-1.472l-.4-1.36s-.72-.24-1.408-.24c-1.136 0-1.696.496-1.696 1.136 0 1.856 5.392 1.12 5.392 4.88 0 2.4-1.856 3.712-4.32 3.712-1.808 0-3.568-.608-3.568-.608v-3.072h1.632l.24 1.344zm9.88-1.664c.096 1.28.832 2.032 1.936 2.032 1.328 0 2.688-.752 2.688-.752l.688 1.328s-1.6 1.344-3.648 1.344c-2.752 0-4.16-1.6-4.16-4.32 0-2.8 1.584-4.64 4.272-4.64 2.384 0 3.632 1.472 3.632 3.76 0 .608-.096 1.2-.096 1.2l-5.312.048zm1.616-3.088c-.896 0-1.456.656-1.584 1.6h2.896c0-.912-.384-1.6-1.312-1.6zm8.279-1.76.144 1.104s1.152-1.264 2.224-1.264c.88 0 1.488.288 1.488.288l-.128 3.072h-1.44l-.24-1.36c-.928 0-1.728.896-1.728.896v4.224l1.6.4V110h-5.28v-1.28l1.28-.4v-5.2l-1.28-.4v-1.28l3.36-.08zm10.179 1.568-.928-.208v-1.28l4.192-.08v1.36l-.912.208-2.576 7.072h-2.64l-2.528-7.024-.768-.256v-1.28l4.192-.08v1.36l-.896.16 1.456 4.72 1.408-4.672zm4.89-4.208c0-.912.656-1.44 1.376-1.44.832 0 1.344.432 1.344 1.44 0 .944-.688 1.456-1.344 1.456-.864 0-1.376-.512-1.376-1.456zm2.688 2.64v6.96l1.12.4V110h-4.8v-1.28l1.28-.4v-5.2l-1.28-.4v-1.28l3.68-.08zm9.764 7.44c-.4.352-1.648 1.36-3.44 1.36-2.64 0-4.16-1.632-4.16-4.352 0-2.848 1.6-4.608 4.4-4.608 1.376 0 2.8.56 2.8.56l-.08 2.624h-1.44l-.224-1.136s-.464-.128-1.104-.128c-1.152 0-1.872.768-1.872 2.368 0 1.744.672 2.752 2 2.752 1.12 0 1.824-.56 2.32-.848l.8 1.408zm3.302-2.592c.096 1.28.832 2.032 1.936 2.032 1.328 0 2.688-.752 2.688-.752l.688 1.328s-1.6 1.344-3.648 1.344c-2.752 0-4.16-1.6-4.16-4.32 0-2.8 1.584-4.64 4.272-4.64 2.384 0 3.632 1.472 3.632 3.76 0 .608-.096 1.2-.096 1.2l-5.312.048zm1.616-3.088c-.896 0-1.456.656-1.584 1.6h2.896c0-.912-.384-1.6-1.312-1.6zm6.536 5.12s.56.16 1.344.16c.88 0 1.312-.272 1.312-.784 0-1.312-4.272-.832-4.272-3.68 0-2 1.6-2.736 3.296-2.736 1.44 0 2.976.48 2.976.48l-.064 2.4h-1.36l-.24-.96s-.465-.16-1.104-.16c-.688 0-1.104.288-1.104.816 0 1.296 4.272.736 4.272 3.504 0 1.84-1.488 2.88-3.68 2.88-1.52 0-2.944-.352-2.944-.352V107.2h1.44l.128 1.04zM213.583 79.167h-25.5a4.25 4.25 0 0 1-4.25-4.25v-25.5a1.415 1.415 0 1 0-2.833 0v25.5A7.09 7.09 0 0 0 188.083 82h25.5a1.418 1.418 0 0 0 0-2.833z" fill="#fff"/>
    <path d="M189.5 76.333a1.415 1.415 0 0 0 1.416-1.416V65a1.415 1.415 0 0 0-2.418-1.002 1.415 1.415 0 0 0-.415 1.002v9.917a1.415 1.415 0 0 0 1.417 1.416zM195.167 62.167v12.75a1.415 1.415 0 1 0 2.833 0v-12.75a1.415 1.415 0 1 0-2.833 0zM202.25 66.417v8.5a1.415 1.415 0 1 0 2.833 0v-8.5a1.415 1.415 0 1 0-2.833 0zM209.333 60.75v14.167a1.415 1.415 0 1 0 2.833 0V60.75a1.415 1.415 0 0 0-2.418-1.002 1.415 1.415 0 0 0-.415 1.002zM189.5 60.75c.376 0 .736-.15 1.002-.415l5.08-5.08a1.453 1.453 0 0 1 2.003 0l3.077 3.077a4.25 4.25 0 0 0 6.01 0l7.913-7.914a1.418 1.418 0 0 0-.017-1.986 1.417 1.417 0 0 0-1.986-.017l-7.913 7.912a1.418 1.418 0 0 1-2.004 0l-3.077-3.075a4.248 4.248 0 0 0-6.009 0l-5.08 5.08a1.42 1.42 0 0 0-.307 1.543 1.42 1.42 0 0 0 1.308.875z" fill="#fff"/>
    <path d="M460 218.5c0 43.907-65.246 79.5-108.921 79.5C307.405 298 272 262.407 272 218.5s35.405-79.5 79.079-79.5C394.754 139 460 174.593 460 218.5z" fill="#7EA8EF"/>
    <path d="M376.917 183.182h-4.25v-1.546c0-1.229-.448-2.409-1.245-3.278-.797-.87-1.878-1.358-3.005-1.358h-2.834c-1.127 0-2.208.488-3.005 1.358-.797.869-1.245 2.049-1.245 3.278v1.546h-4.25c-1.878.002-3.678.817-5.006 2.266-1.328 1.448-2.075 3.412-2.077 5.461v12.364c.002 2.048.749 4.012 2.077 5.461 1.328 1.449 3.128 2.264 5.006 2.266h19.834c1.878-.002 3.678-.817 5.006-2.266 1.328-1.449 2.075-3.413 2.077-5.461v-12.364c-.002-2.049-.749-4.013-2.077-5.461-1.328-1.449-3.128-2.264-5.006-2.266zm-12.75-1.546c0-.41.149-.803.415-1.092.265-.29.626-.453 1.001-.453h2.834c.375 0 .736.163 1.001.453.266.289.415.682.415 1.092v1.546h-5.666v-1.546zm17 21.637c0 1.229-.448 2.409-1.245 3.278-.797.87-1.878 1.358-3.005 1.358h-19.834c-1.127 0-2.208-.488-3.005-1.358-.797-.869-1.245-2.049-1.245-3.278v-12.364c0-1.23.448-2.409 1.245-3.278.797-.87 1.878-1.358 3.005-1.358h19.834c1.127 0 2.208.488 3.005 1.358.797.869 1.245 2.048 1.245 3.278v12.364zm-8.5-6.182c0 .41-.15.803-.415 1.093-.266.29-.626.452-1.002.452h-2.833v3.091c0 .41-.15.803-.415 1.093a1.36 1.36 0 0 1-1.002.453 1.36 1.36 0 0 1-1.002-.453 1.624 1.624 0 0 1-.415-1.093v-3.091h-2.833c-.376 0-.736-.162-1.002-.452a1.624 1.624 0 0 1-.415-1.093c0-.41.15-.803.415-1.093a1.36 1.36 0 0 1 1.002-.453h2.833v-3.09c0-.41.15-.803.415-1.093a1.36 1.36 0 0 1 1.002-.453c.376 0 .736.163 1.002.453.265.29.415.683.415 1.093v3.09h2.833c.376 0 .736.163 1.002.453.265.29.415.683.415 1.093zM302.543 238h-4.96v-1.36l1.2-.48v-7.52l-1.2-.48v-1.36l4.96-.08v1.44l-1.28.48v2.56h4.288v-2.56l-1.28-.48v-1.36l4.96-.08v1.44l-1.2.48v7.52l1.2.48V238h-4.96v-1.36l1.28-.48v-3.04h-4.288v3.04l1.28.48V238zm10.302-3.792c.096 1.28.832 2.032 1.936 2.032 1.328 0 2.688-.752 2.688-.752l.688 1.328s-1.6 1.344-3.648 1.344c-2.752 0-4.16-1.6-4.16-4.32 0-2.8 1.584-4.64 4.272-4.64 2.384 0 3.632 1.472 3.632 3.76 0 .608-.096 1.2-.096 1.2l-5.312.048zm1.616-3.088c-.896 0-1.456.656-1.584 1.6h2.896c0-.912-.384-1.6-1.312-1.6zm10.375 6.88-.288-1.04s-1.232 1.2-2.592 1.2c-1.552 0-2.496-.912-2.496-2.512 0-1.888 1.424-2.64 3.856-2.64h1.12v-.88c0-.816-.432-1.168-1.232-1.168-.816 0-1.408.24-1.408.24l-.24 1.008h-1.44l-.112-2.368s1.936-.64 3.472-.64c2.432 0 3.36.848 3.36 3.168v3.952l1.2.288v1.28l-3.2.112zm-3.056-2.592c0 .608.336.96.944.96.848 0 1.712-.928 1.712-.928v-1.072h-.912c-1.248 0-1.744.32-1.744 1.04zm10.746-9.808v10.72l1.44.4V238h-5.136v-1.28l1.28-.4v-8.992l-1.28-.32v-1.28l3.696-.128zm5.609 12.56c-1.84 0-2.368-1.28-2.368-3.12v-3.68h-1.488v-1.552l1.488-.208v-2.208l2.4-.432v2.64h2.24v1.76h-2.24v3.52c0 1.024.176 1.44.848 1.44.432 0 1.056-.256 1.264-.368l.576 1.216c-.784.576-1.68.992-2.72.992zm6.953-12.56v4.688c.464-.384 1.504-1.088 2.688-1.088 1.632 0 2.512 1.088 2.512 2.88v4.24l1.12.4V238h-4.352v-1.28l.832-.384v-3.872c0-.944-.464-1.28-1.04-1.28-.592 0-1.312.384-1.76.848v4.288l.848.4V238h-4.528v-1.28l1.28-.4v-8.992l-1.28-.32v-1.28l3.68-.128zm14.877 11.2c-.4.352-1.648 1.36-3.44 1.36-2.64 0-4.16-1.632-4.16-4.352 0-2.848 1.6-4.608 4.4-4.608 1.376 0 2.8.56 2.8.56l-.08 2.624h-1.44l-.224-1.136s-.464-.128-1.104-.128c-1.152 0-1.872.768-1.872 2.368 0 1.744.672 2.752 2 2.752 1.12 0 1.824-.56 2.32-.848l.8 1.408zm6.262 1.2-.288-1.04s-1.232 1.2-2.592 1.2c-1.552 0-2.496-.912-2.496-2.512 0-1.888 1.424-2.64 3.856-2.64h1.12v-.88c0-.816-.432-1.168-1.232-1.168-.816 0-1.408.24-1.408.24l-.24 1.008h-1.44l-.112-2.368s1.936-.64 3.472-.64c2.432 0 3.36.848 3.36 3.168v3.952l1.2.288v1.28l-3.2.112zm-3.056-2.592c0 .608.336.96.944.96.848 0 1.712-.928 1.712-.928v-1.072h-.912c-1.248 0-1.744.32-1.744 1.04zm10.569-6.048.144 1.104s1.152-1.264 2.224-1.264c.88 0 1.488.288 1.488.288l-.128 3.072h-1.44l-.24-1.36c-.928 0-1.728.896-1.728.896v4.224l1.6.4V238h-5.28v-1.28l1.28-.4v-5.2l-1.28-.4v-1.28l3.36-.08zm6.996 4.848c.096 1.28.832 2.032 1.936 2.032 1.328 0 2.688-.752 2.688-.752l.688 1.328s-1.6 1.344-3.648 1.344c-2.752 0-4.16-1.6-4.16-4.32 0-2.8 1.584-4.64 4.272-4.64 2.384 0 3.632 1.472 3.632 3.76 0 .608-.096 1.2-.096 1.2l-5.312.048zm1.616-3.088c-.896 0-1.456.656-1.584 1.6h2.896c0-.912-.384-1.6-1.312-1.6zm14.941-1.392a24.615 24.615 0 0 1-.256-1.04s-.544-.208-1.44-.208c-1.024 0-1.52.608-1.52 1.264 0 .96.88 1.456 1.84 1.456h4.912v1.36l-1.12.368v1.696c0 2.24-1.664 3.568-4.304 3.568-2.816 0-4.048-1.328-4.048-3.2 0-1.712 1.616-2.672 2.032-2.88-.432-.272-1.696-.944-1.696-2.528 0-2.032 1.584-3.056 4.032-3.056 1.264 0 2.784.496 3.152.672l-.08 2.528h-1.504zm.096 3.2h-1.2c-1.296 0-2.352.528-2.352 1.728 0 1.024.672 1.584 1.728 1.584 1.104 0 1.824-.64 1.824-1.84v-1.472zm11.841 3.152h2.448l.352-1.76h1.52V238h-8v-1.36l1.2-.48v-7.52l-1.2-.48v-1.36l4.88-.08v1.44l-1.2.48v7.44zm6.033-9.36c0-.912.656-1.44 1.376-1.44.832 0 1.344.432 1.344 1.44 0 .944-.688 1.456-1.344 1.456-.864 0-1.376-.512-1.376-1.456zm2.688 2.64v6.96l1.12.4V238h-4.8v-1.28l1.28-.4v-5.2l-1.28-.4v-1.28l3.68-.08zm3.684-.56c0-2.032 1.168-3.392 3.44-3.392 1.728 0 2.832.592 2.832.592l-.048 2.352h-1.44l-.24-1.12s-.384-.064-.912-.064c-.88 0-1.232.528-1.232 1.36v.992h2.08l-.048 1.6h-2.032v5.2l1.6.4V238h-5.28v-1.28l1.28-.4v-5.2h-1.44v-1.36l1.44-.24v-.72zm8.366 5.408c.096 1.28.832 2.032 1.936 2.032 1.328 0 2.688-.752 2.688-.752l.688 1.328s-1.6 1.344-3.648 1.344c-2.752 0-4.16-1.6-4.16-4.32 0-2.8 1.584-4.64 4.272-4.64 2.384 0 3.632 1.472 3.632 3.76 0 .608-.096 1.2-.096 1.2l-5.312.048zm1.616-3.088c-.896 0-1.456.656-1.584 1.6h2.896c0-.912-.384-1.6-1.312-1.6zm-92.933 23.752s.64.336 1.568.336c1.024 0 1.936-.448 1.936-1.296 0-1.872-5.408-1.04-5.408-4.992 0-2.208 1.744-3.392 4.064-3.392 1.808 0 3.52.64 3.52.64l-.08 2.912h-1.472l-.4-1.36s-.72-.24-1.408-.24c-1.136 0-1.696.496-1.696 1.136 0 1.856 5.392 1.12 5.392 4.88 0 2.4-1.856 3.712-4.32 3.712-1.808 0-3.568-.608-3.568-.608v-3.072h1.632l.24 1.344zm14.984.928c-.4.352-1.648 1.36-3.44 1.36-2.64 0-4.16-1.632-4.16-4.352 0-2.848 1.6-4.608 4.4-4.608 1.376 0 2.8.56 2.8.56l-.08 2.624h-1.44l-.224-1.136s-.464-.128-1.104-.128c-1.152 0-1.872.768-1.872 2.368 0 1.744.672 2.752 2 2.752 1.12 0 1.824-.56 2.32-.848l.8 1.408zm1.798-10.08c0-.912.656-1.44 1.376-1.44.832 0 1.344.432 1.344 1.44 0 .944-.688 1.456-1.344 1.456-.864 0-1.376-.512-1.376-1.456zm2.688 2.64v6.96l1.12.4V257h-4.8v-1.28l1.28-.4v-5.2l-1.28-.4v-1.28l3.68-.08zm4.66 4.848c.096 1.28.832 2.032 1.936 2.032 1.328 0 2.688-.752 2.688-.752l.688 1.328s-1.6 1.344-3.648 1.344c-2.752 0-4.16-1.6-4.16-4.32 0-2.8 1.584-4.64 4.272-4.64 2.384 0 3.632 1.472 3.632 3.76 0 .608-.096 1.2-.096 1.2l-5.312.048zm1.616-3.088c-.896 0-1.456.656-1.584 1.6h2.896c0-.912-.384-1.6-1.312-1.6zm8.311-1.76.112 1.104s1.52-1.232 2.944-1.232c1.552 0 2.432 1.104 2.432 2.848v4.24l1.12.4V257h-4.4v-1.28l.88-.4v-3.808c0-.736-.416-1.28-1.088-1.28-.992 0-1.712.912-1.712.912v4.176l.88.4V257h-4.56v-1.28l1.28-.4v-5.2l-1.28-.4v-1.28l3.392-.08zm15.161 7.44c-.4.352-1.648 1.36-3.44 1.36-2.64 0-4.16-1.632-4.16-4.352 0-2.848 1.6-4.608 4.4-4.608 1.376 0 2.8.56 2.8.56l-.08 2.624h-1.44l-.224-1.136s-.464-.128-1.104-.128c-1.152 0-1.872.768-1.872 2.368 0 1.744.672 2.752 2 2.752 1.12 0 1.824-.56 2.32-.848l.8 1.408zm3.302-2.592c.096 1.28.832 2.032 1.936 2.032 1.328 0 2.688-.752 2.688-.752l.688 1.328s-1.6 1.344-3.648 1.344c-2.752 0-4.16-1.6-4.16-4.32 0-2.8 1.584-4.64 4.272-4.64 2.384 0 3.632 1.472 3.632 3.76 0 .608-.096 1.2-.096 1.2l-5.312.048zm1.616-3.088c-.896 0-1.456.656-1.584 1.6h2.896c0-.912-.384-1.6-1.312-1.6z" fill="#fff"/>
    <path d="M204 245.5c0 43.907-80.593 79.5-124.5 79.5S0 289.407 0 245.5 80.593 166 124.5 166s79.5 35.593 79.5 79.5z" fill="#6CD6C7"/>
    <path d="M46.12 283.698h-4.56v-1.36l1.2-.48v-7.52l-1.2-.48v-1.36l4.128-.08 2.4 5.328 2.512-5.248 3.84-.08v1.44l-1.152.48v7.52l1.2.48v1.36H49.72v-1.36l1.248-.48v-6.016l-.432 1.056-1.808 3.76-1.728.08-1.84-3.792-.272-.832v5.744l1.232.48v1.36zm14.943 0-.288-1.04s-1.232 1.2-2.592 1.2c-1.552 0-2.496-.912-2.496-2.512 0-1.888 1.424-2.64 3.856-2.64h1.12v-.88c0-.816-.432-1.168-1.232-1.168-.816 0-1.408.24-1.408.24l-.24 1.008h-1.44l-.112-2.368s1.936-.64 3.472-.64c2.432 0 3.36.848 3.36 3.168v3.952l1.2.288v1.28l-3.2.112zm-3.056-2.592c0 .608.336.96.944.96.848 0 1.712-.928 1.712-.928v-1.072h-.912c-1.248 0-1.744.32-1.744 1.04zm10.601-6.048.112 1.104s1.52-1.232 2.944-1.232c1.552 0 2.432 1.104 2.432 2.848v4.24l1.12.4v1.28h-4.4v-1.28l.88-.4v-3.808c0-.736-.416-1.28-1.088-1.28-.992 0-1.712.912-1.712.912v4.176l.88.4v1.28h-4.56v-1.28l1.28-.4v-5.2l-1.28-.4v-1.28l3.392-.08zm8.521 1.76-1.28-.4v-1.28l3.68-.08v5.52c0 .88.256 1.28.976 1.28 1.04 0 1.808-.864 1.808-.864v-4.176l-1.28-.4v-1.28l3.68-.08v6.96l1.28.32v1.248l-3.376.112-.16-1.12s-1.28 1.28-2.8 1.28c-1.6 0-2.528-1.072-2.528-2.864v-4.176zm11.263-2.32c0-2.032 1.169-3.392 3.44-3.392 1.729 0 2.833.592 2.833.592l-.049 2.352h-1.44l-.24-1.12s-.384-.064-.912-.064c-.88 0-1.231.528-1.231 1.36v.992h2.08l-.049 1.6h-2.031v5.2l1.6.4v1.28h-5.28v-1.28l1.28-.4v-5.2h-1.44v-1.36l1.44-.24v-.72zm11.327 9.2-.288-1.04s-1.232 1.2-2.592 1.2c-1.552 0-2.496-.912-2.496-2.512 0-1.888 1.424-2.64 3.856-2.64h1.12v-.88c0-.816-.432-1.168-1.232-1.168-.816 0-1.408.24-1.408.24l-.24 1.008H95l-.112-2.368s1.936-.64 3.472-.64c2.432 0 3.36.848 3.36 3.168v3.952l1.2.288v1.28l-3.2.112zm-3.056-2.592c0 .608.336.96.944.96.848 0 1.712-.928 1.712-.928v-1.072h-.912c-1.248 0-1.744.32-1.744 1.04zm14.81 1.392c-.4.352-1.648 1.36-3.44 1.36-2.64 0-4.16-1.632-4.16-4.352 0-2.848 1.6-4.608 4.4-4.608 1.376 0 2.8.56 2.8.56l-.08 2.624h-1.44l-.224-1.136s-.464-.128-1.104-.128c-1.152 0-1.872.768-1.872 2.368 0 1.744.672 2.752 2 2.752 1.12 0 1.824-.56 2.32-.848l.8 1.408zm4.342 1.36c-1.84 0-2.368-1.28-2.368-3.12v-3.68h-1.488v-1.552l1.488-.208v-2.208l2.4-.432v2.64h2.24v1.76h-2.24v3.52c0 1.024.176 1.44.848 1.44.432 0 1.056-.256 1.264-.368l.576 1.216c-.784.576-1.68.992-2.72.992zm4.393-7.04-1.28-.4v-1.28l3.68-.08v5.52c0 .88.256 1.28.976 1.28 1.04 0 1.808-.864 1.808-.864v-4.176l-1.28-.4v-1.28l3.68-.08v6.96l1.28.32v1.248l-3.376.112-.16-1.12s-1.28 1.28-2.8 1.28c-1.6 0-2.528-1.072-2.528-2.864v-4.176zm13.103-1.76.144 1.104s1.152-1.264 2.224-1.264c.88 0 1.488.288 1.488.288l-.128 3.072h-1.44l-.24-1.36c-.928 0-1.728.896-1.728.896v4.224l1.6.4v1.28h-5.28v-1.28l1.28-.4v-5.2l-1.28-.4v-1.28l3.36-.08zm5.491-2.64c0-.912.656-1.44 1.376-1.44.832 0 1.344.432 1.344 1.44 0 .944-.688 1.456-1.344 1.456-.864 0-1.376-.512-1.376-1.456zm2.688 2.64v6.96l1.12.4v1.28h-4.8v-1.28l1.28-.4v-5.2l-1.28-.4v-1.28l3.68-.08zm5.556 0 .112 1.104s1.52-1.232 2.944-1.232c1.552 0 2.432 1.104 2.432 2.848v4.24l1.12.4v1.28h-4.4v-1.28l.88-.4v-3.808c0-.736-.416-1.28-1.088-1.28-.992 0-1.712.912-1.712.912v4.176l.88.4v1.28h-4.56v-1.28l1.28-.4v-5.2l-1.28-.4v-1.28l3.392-.08zm7.641 10.4c0-1.376 1.68-1.92 1.68-1.92s-.96-.144-.96-1.056c0-.464.64-1.504.832-1.808-.384-.256-1.232-.944-1.232-2.496 0-2.192 1.648-3.28 3.84-3.28.928 0 1.584.24 1.888.384l2.752-.064v1.28l-1.312.224c.032.144.272.576.272 1.264 0 2.32-1.632 3.28-3.84 3.28-.432 0-.752-.08-.816-.08l-.064 1.072h2.368c2.032 0 3.2.88 3.2 2.48 0 1.76-1.408 3.04-4.48 3.04-2.512 0-4.128-.56-4.128-2.32zm4.08-8.912c-.96 0-1.36.512-1.36 1.52 0 .96.368 1.6 1.28 1.6 1.008 0 1.36-.528 1.36-1.6 0-1.008-.4-1.52-1.28-1.52zm-.992 7.472s-.768.352-.768 1.04c0 .8.688.96 2 .96 1.44 0 2.048-.32 2.048-1.088 0-.72-.528-.912-1.6-.912h-1.68zM76.847 224.169h4.697a12.586 12.586 0 0 0 1.193 2.869l-3.325 3.324a.847.847 0 0 0 0 1.198l3.592 3.593c.331.33.867.33 1.198 0l3.325-3.325c.903.514 1.866.915 2.868 1.192v4.698c0 .467.38.847.847.847h5.08c.468 0 .847-.38.847-.847v-4.698a12.564 12.564 0 0 0 2.868-1.192l3.326 3.325a.87.87 0 0 0 1.197 0l3.593-3.593a.846.846 0 0 0 0-1.198l-3.326-3.324c.515-.903.915-1.867 1.193-2.869h4.698a.847.847 0 0 0 .847-.846v-5.081a.848.848 0 0 0-.847-.847h-4.698a12.615 12.615 0 0 0-1.193-2.869l3.325-3.323a.846.846 0 0 0 0-1.198l-3.592-3.593a.846.846 0 0 0-1.197 0l-3.326 3.325a12.617 12.617 0 0 0-2.868-1.192v-4.698a.847.847 0 0 0-.846-.847h-5.081a.847.847 0 0 0-.847.847v4.698a12.629 12.629 0 0 0-2.868 1.192l-3.325-3.325a.87.87 0 0 0-1.198 0l-3.592 3.593a.847.847 0 0 0 0 1.198l3.325 3.323a12.623 12.623 0 0 0-1.193 2.869h-4.697a.847.847 0 0 0-.847.847v5.081c0 .467.38.846.847.846zm.847-5.08h4.513a.847.847 0 0 0 .827-.666c.278-1.268.78-2.477 1.484-3.568a.847.847 0 0 0-.115-1.056l-3.195-3.196 2.395-2.395 3.195 3.195a.847.847 0 0 0 1.057.115 10.904 10.904 0 0 1 3.568-1.483.849.849 0 0 0 .666-.828v-4.513h3.387v4.513c0 .398.277.742.665.828 1.268.278 2.477.78 3.569 1.483a.846.846 0 0 0 1.056-.115l3.195-3.195 2.395 2.395-3.195 3.195a.847.847 0 0 0-.114 1.057 10.878 10.878 0 0 1 1.482 3.569c.086.389.43.666.828.666h4.514v3.387h-4.514a.848.848 0 0 0-.828.665 10.872 10.872 0 0 1-1.482 3.568.847.847 0 0 0 .114 1.056l3.196 3.195-2.396 2.396-3.195-3.196a.846.846 0 0 0-1.056-.114 10.893 10.893 0 0 1-3.568 1.483.848.848 0 0 0-.666.828v4.513h-3.387v-4.513a.848.848 0 0 0-.667-.828 10.894 10.894 0 0 1-3.567-1.483.847.847 0 0 0-1.057.114l-3.195 3.196-2.395-2.396 3.195-3.195a.846.846 0 0 0 .115-1.056 10.903 10.903 0 0 1-1.484-3.569.846.846 0 0 0-.827-.665h-4.513v-3.387z" fill="#fff"/>
    <path d="M93.782 227.556a6.774 6.774 0 1 0-6.774-6.774 6.781 6.781 0 0 0 6.774 6.774zm0-11.854a5.081 5.081 0 1 1 0 10.162 5.081 5.081 0 0 1 0-10.162z" fill="#fff"/>
    <path d="M93.782 230.097a9.315 9.315 0 1 0-9.314-9.315 9.326 9.326 0 0 0 9.314 9.315zm0-16.936a7.62 7.62 0 0 1 7.621 7.621 7.62 7.62 0 1 1-15.242 0 7.63 7.63 0 0 1 7.621-7.621zM124.266 241.952v-6.775a.847.847 0 0 0-.847-.846h-1.693v-6.775a.847.847 0 0 0-.847-.846h-7.621a.847.847 0 0 0-.847.846v6.775h-4.234a.846.846 0 0 0-.846.846v6.775H80.234A4.238 4.238 0 0 0 76 246.185v1.694a4.239 4.239 0 0 0 4.234 4.234h44.032a4.239 4.239 0 0 0 4.234-4.234v-1.694a4.239 4.239 0 0 0-4.234-4.233zm-1.693 0h-5.928v-5.928h5.928v5.928zm-8.468-13.549h5.927v5.928h-5.927v-5.928zm-5.081 7.621h5.928v5.928h-5.928v-5.928zm17.782 11.855a2.54 2.54 0 0 1-2.54 2.54H80.234a2.54 2.54 0 0 1-2.54-2.54v-1.694a2.54 2.54 0 0 1 2.54-2.54h44.032a2.54 2.54 0 0 1 2.54 2.54v1.694z" fill="#fff"/>
    <path d="M102.25 244.492a2.54 2.54 0 1 0 0 5.08 2.54 2.54 0 0 0 0-5.08zm0 3.387a.847.847 0 1 1 .001-1.693.847.847 0 0 1-.001 1.693zM93.782 244.492a2.54 2.54 0 1 0 0 5.08 2.54 2.54 0 0 0 0-5.08zm0 3.387a.847.847 0 1 1 0-1.693.847.847 0 0 1 0 1.693zM110.718 244.492a2.54 2.54 0 1 0 0 5.08 2.54 2.54 0 0 0 0-5.08zm0 3.387a.847.847 0 1 1 0-1.693.847.847 0 0 1 0 1.693zM85.315 244.492a2.54 2.54 0 1 0 0 5.08 2.54 2.54 0 0 0 0-5.08zm0 3.387a.847.847 0 1 1 0-1.693.847.847 0 0 1 0 1.693zM119.186 244.492a2.54 2.54 0 1 0 0 5.08 2.54 2.54 0 0 0 0-5.08zm0 3.387a.847.847 0 1 1 0-1.693.847.847 0 0 1 0 1.693z" fill="#fff"/>
    <path d="M178 472.919C178 429.333 142.407 374 98.5 374S19 429.333 19 472.919c0 43.585 35.593 17.123 79.5 17.123s79.5 26.462 79.5-17.123z" fill="#3F7BDB"/>
    <path d="M72.378 454h-4.56v-1.36l1.2-.48v-7.52l-1.2-.48v-1.36l4.128-.08 2.4 5.328 2.512-5.248 3.84-.08v1.44l-1.152.48v7.52l1.2.48V454h-4.768v-1.36l1.248-.48v-6.016l-.432 1.056-1.808 3.76-1.728.08-1.84-3.792-.272-.832v5.744l1.232.48V454zm11.983-3.792c.096 1.28.832 2.032 1.936 2.032 1.328 0 2.688-.752 2.688-.752l.688 1.328s-1.6 1.344-3.648 1.344c-2.752 0-4.16-1.6-4.16-4.32 0-2.8 1.584-4.64 4.272-4.64 2.384 0 3.632 1.472 3.632 3.76 0 .608-.096 1.2-.096 1.2l-5.312.048zm1.616-3.088c-.896 0-1.456.656-1.584 1.6h2.896c0-.912-.384-1.6-1.312-1.6zM96.972 454l-.144-.848a3.38 3.38 0 0 1-2.416 1.008c-2.24 0-3.28-1.632-3.28-4.272 0-3.008 1.44-4.688 4.368-4.688.384 0 .848.08 1.2.16v-2.032l-1.28-.32v-1.28l3.68-.128v10.688l1.28.32v1.28l-3.408.112zm-.272-6.64c-.304-.144-.784-.24-1.248-.24-1.36 0-1.84 1.04-1.84 2.64 0 1.616.448 2.48 1.536 2.48 1.024 0 1.552-.912 1.552-.912v-3.968zm5.547-4.64c0-.912.656-1.44 1.376-1.44.832 0 1.344.432 1.344 1.44 0 .944-.688 1.456-1.344 1.456-.864 0-1.376-.512-1.376-1.456zm2.688 2.64v6.96l1.12.4V454h-4.8v-1.28l1.28-.4v-5.2l-1.28-.4v-1.28l3.68-.08zm7.62 8.64-.288-1.04s-1.232 1.2-2.592 1.2c-1.552 0-2.496-.912-2.496-2.512 0-1.888 1.424-2.64 3.856-2.64h1.12v-.88c0-.816-.432-1.168-1.232-1.168-.816 0-1.408.24-1.408.24l-.24 1.008h-1.44l-.112-2.368s1.936-.64 3.472-.64c2.432 0 3.36.848 3.36 3.168v3.952l1.2.288v1.28l-3.2.112zm-3.056-2.592c0 .608.336.96.944.96.848 0 1.712-.928 1.712-.928v-1.072h-.912c-1.248 0-1.744.32-1.744 1.04zm17.231-5.68a24.615 24.615 0 0 1-.256-1.04s-.544-.208-1.44-.208c-1.024 0-1.52.608-1.52 1.264 0 .96.88 1.456 1.84 1.456h4.912v1.36l-1.12.368v1.696c0 2.24-1.664 3.568-4.304 3.568-2.816 0-4.048-1.328-4.048-3.2 0-1.712 1.616-2.672 2.032-2.88-.432-.272-1.696-.944-1.696-2.528 0-2.032 1.584-3.056 4.032-3.056 1.264 0 2.784.496 3.152.672l-.08 2.528h-1.504zm.096 3.2h-1.2c-1.296 0-2.352.528-2.352 1.728 0 1.024.672 1.584 1.728 1.584 1.104 0 1.824-.64 1.824-1.84v-1.472zM42.908 466.28h3.232v1.76h-3.232v3.04h2.864l.368-1.312h1.44V473h-8.352v-1.36l1.2-.48v-7.52l-1.2-.48v-1.36l3.68-.08h4.48v3.088h-1.44l-.4-1.168h-2.64v2.64zm9.505-1.92.112 1.104s1.52-1.232 2.944-1.232c1.552 0 2.432 1.104 2.432 2.848v4.24l1.12.4V473h-4.4v-1.28l.88-.4v-3.808c0-.736-.416-1.28-1.088-1.28-.992 0-1.712.912-1.712.912v4.176l.88.4V473h-4.56v-1.28l1.28-.4v-5.2l-1.28-.4v-1.28l3.392-.08zm11.097 8.8c-1.84 0-2.368-1.28-2.368-3.12v-3.68h-1.488v-1.552l1.488-.208v-2.208l2.4-.432v2.64h2.24v1.76h-2.24v3.52c0 1.024.176 1.44.848 1.44.432 0 1.056-.256 1.264-.368l.576 1.216c-.784.576-1.68.992-2.72.992zm5.929-3.952c.096 1.28.832 2.032 1.936 2.032 1.328 0 2.688-.752 2.688-.752l.688 1.328s-1.6 1.344-3.648 1.344c-2.752 0-4.16-1.6-4.16-4.32 0-2.8 1.584-4.64 4.272-4.64 2.384 0 3.632 1.472 3.632 3.76 0 .608-.096 1.2-.096 1.2l-5.312.048zm1.616-3.088c-.896 0-1.456.656-1.584 1.6h2.896c0-.912-.384-1.6-1.312-1.6zm8.28-1.76.143 1.104s1.152-1.264 2.224-1.264c.88 0 1.488.288 1.488.288l-.128 3.072h-1.44l-.24-1.36c-.928 0-1.728.896-1.728.896v4.224l1.6.4V473h-5.28v-1.28l1.28-.4v-5.2l-1.28-.4v-1.28l3.36-.08zm8.034 8.8c-1.84 0-2.368-1.28-2.368-3.12v-3.68h-1.488v-1.552l1.488-.208v-2.208l2.4-.432v2.64h2.24v1.76h-2.24v3.52c0 1.024.176 1.44.848 1.44.432 0 1.056-.256 1.264-.368l.576 1.216c-.784.576-1.68.992-2.72.992zm8.89-.16-.289-1.04s-1.232 1.2-2.592 1.2c-1.552 0-2.496-.912-2.496-2.512 0-1.888 1.424-2.64 3.856-2.64h1.12v-.88c0-.816-.432-1.168-1.232-1.168-.816 0-1.408.24-1.408.24l-.24 1.008h-1.44l-.112-2.368s1.936-.64 3.472-.64c2.432 0 3.36.848 3.36 3.168v3.952l1.2.288v1.28l-3.2.112zm-3.057-2.592c0 .608.336.96.944.96.848 0 1.712-.928 1.712-.928v-1.072h-.912c-1.248 0-1.744.32-1.744 1.04zm8.202-8.688c0-.912.656-1.44 1.376-1.44.832 0 1.344.432 1.344 1.44 0 .944-.688 1.456-1.344 1.456-.864 0-1.376-.512-1.376-1.456zm2.688 2.64v6.96l1.12.4V473h-4.8v-1.28l1.28-.4v-5.2l-1.28-.4v-1.28l3.68-.08zm5.555 0 .112 1.104s1.52-1.232 2.944-1.232c1.552 0 2.432 1.104 2.432 2.848v4.24l1.12.4V473h-4.4v-1.28l.88-.4v-3.808c0-.736-.416-1.28-1.088-1.28-.992 0-1.712.912-1.712.912v4.176l.88.4V473h-4.56v-1.28l1.28-.4v-5.2l-1.28-.4v-1.28l3.392-.08zm21.401 6.96 1.088.4V473H127.8v-1.28l.848-.4v-3.808c0-.96-.288-1.312-.992-1.312-.56 0-1.248.352-1.712.832v4.288l.832.4V473h-4.064v-1.28l.832-.4v-3.808c0-.976-.288-1.312-.992-1.312-.576 0-1.296.4-1.712.832v4.288l.848.4V473h-4.48v-1.28l1.232-.4v-5.2l-1.216-.4v-1.28l3.344-.08.112 1.136s1.392-1.296 2.8-1.296c1.136 0 1.84.528 2.208 1.376.272-.272 1.472-1.376 2.896-1.376 1.68 0 2.464 1.088 2.464 2.88v4.24zm4.547-2.112c.096 1.28.832 2.032 1.936 2.032 1.328 0 2.688-.752 2.688-.752l.688 1.328s-1.6 1.344-3.648 1.344c-2.752 0-4.16-1.6-4.16-4.32 0-2.8 1.584-4.64 4.272-4.64 2.384 0 3.632 1.472 3.632 3.76 0 .608-.096 1.2-.096 1.2l-5.312.048zm1.616-3.088c-.896 0-1.456.656-1.584 1.6h2.896c0-.912-.384-1.6-1.312-1.6zm8.311-1.76.112 1.104s1.52-1.232 2.944-1.232c1.552 0 2.432 1.104 2.432 2.848v4.24l1.12.4V473h-4.4v-1.28l.88-.4v-3.808c0-.736-.416-1.28-1.088-1.28-.992 0-1.712.912-1.712.912v4.176l.88.4V473h-4.56v-1.28l1.28-.4v-5.2l-1.28-.4v-1.28l3.392-.08zm11.097 8.8c-1.84 0-2.368-1.28-2.368-3.12v-3.68h-1.488v-1.552l1.488-.208v-2.208l2.4-.432v2.64h2.24v1.76h-2.24v3.52c0 1.024.176 1.44.848 1.44.432 0 1.056-.256 1.264-.368l.576 1.216c-.784.576-1.68.992-2.72.992zM108.917 395H89.083c-3.905 0-7.083 3.178-7.083 7.083v17c0 3.906 3.178 7.084 7.083 7.084h19.834c3.905 0 7.083-3.178 7.083-7.084v-17c0-3.905-3.178-7.083-7.083-7.083zm4.25 8.5h-5.517l4.344-4.344a4.24 4.24 0 0 1 1.173 2.927v1.417zm-3.873-5.65-5.629 5.629-.02.021h-4.849l5.667-5.667h4.454c.127 0 .252.007.377.017zm-8.838-.017-5.332 5.333c-.1.1-.184.214-.248.334h-4.934l5.667-5.667h4.847zm-11.373 0h2.52l-5.667 5.667h-1.103v-1.417a4.255 4.255 0 0 1 4.25-4.25zm19.834 25.5H89.083a4.255 4.255 0 0 1-4.25-4.25v-12.75h28.334v12.75a4.255 4.255 0 0 1-4.25 4.25zm-5.6-7.366-6.565 3.513a1.322 1.322 0 0 1-2.002-1.133v-7.028a1.322 1.322 0 0 1 2.002-1.134l6.565 3.514a1.322 1.322 0 0 1 0 2.266v.002z" fill="#fff"/>
    <path d="M382.5 388.5c0 43.907-52.598 109.5-96.681 109.5S206 432.407 206 388.5s35.736-79.5 79.819-79.5c44.083 0 96.681 35.593 96.681 79.5z" fill="#F3C141"/>
    <path d="M268.165 413h-4.832v-1.36l1.2-.48v-7.52l-1.2-.48v-1.36l3.68-.08h1.216c2.624 0 4.16 1.088 4.16 3.264 0 1.504-.72 2.48-1.808 3.024.176.208.416.512.672 1.04l1.072 2.192 1.088.4V413h-2.96l-1.344-2.96c-.544-1.216-.688-1.472-1.536-1.472h-.56v2.592l1.152.48V413zm-1.152-6.112h.912c1.264 0 2-.608 2-1.68 0-.912-.608-1.568-1.6-1.568h-1.312v3.248zm9.613 2.32c.096 1.28.832 2.032 1.936 2.032 1.328 0 2.688-.752 2.688-.752l.688 1.328s-1.6 1.344-3.648 1.344c-2.752 0-4.16-1.6-4.16-4.32 0-2.8 1.584-4.64 4.272-4.64 2.384 0 3.632 1.472 3.632 3.76 0 .608-.096 1.2-.096 1.2l-5.312.048zm1.616-3.088c-.896 0-1.456.656-1.584 1.6h2.896c0-.912-.384-1.6-1.312-1.6zm8.456 7.04c-1.84 0-2.368-1.28-2.368-3.12v-3.68h-1.488v-1.552l1.488-.208v-2.208l2.4-.432v2.64h2.24v1.76h-2.24v3.52c0 1.024.176 1.44.848 1.44.432 0 1.056-.256 1.264-.368l.576 1.216c-.784.576-1.68.992-2.72.992zm8.888-.16-.288-1.04s-1.232 1.2-2.592 1.2c-1.552 0-2.496-.912-2.496-2.512 0-1.888 1.424-2.64 3.856-2.64h1.12v-.88c0-.816-.432-1.168-1.232-1.168-.816 0-1.408.24-1.408.24l-.24 1.008h-1.44l-.112-2.368s1.936-.64 3.472-.64c2.432 0 3.36.848 3.36 3.168v3.952l1.2.288v1.28l-3.2.112zm-3.056-2.592c0 .608.336.96.944.96.848 0 1.712-.928 1.712-.928v-1.072h-.912c-1.248 0-1.744.32-1.744 1.04zm8.202-8.688c0-.912.656-1.44 1.376-1.44.832 0 1.344.432 1.344 1.44 0 .944-.688 1.456-1.344 1.456-.864 0-1.376-.512-1.376-1.456zm2.688 2.64v6.96l1.12.4V413h-4.8v-1.28l1.28-.4v-5.2l-1.28-.4v-1.28l3.68-.08zm5.699-3.76v10.72l1.44.4V413h-5.136v-1.28l1.28-.4v-8.992l-1.28-.32v-1.28l3.696-.128zm12.095 4.128a24.615 24.615 0 0 1-.256-1.04s-.544-.208-1.44-.208c-1.024 0-1.52.608-1.52 1.264 0 .96.88 1.456 1.84 1.456h4.912v1.36l-1.12.368v1.696c0 2.24-1.664 3.568-4.304 3.568-2.816 0-4.048-1.328-4.048-3.2 0-1.712 1.616-2.672 2.032-2.88-.432-.272-1.696-.944-1.696-2.528 0-2.032 1.584-3.056 4.032-3.056 1.264 0 2.784.496 3.152.672l-.08 2.528h-1.504zm.096 3.2h-1.2c-1.296 0-2.352.528-2.352 1.728 0 1.024.672 1.584 1.728 1.584 1.104 0 1.824-.64 1.824-1.84v-1.472zm-86.865 14.856s-.752-.256-1.792-.256c-1.68 0-2.64 1.248-2.64 3.92 0 2.592 1.04 3.68 2.72 3.68 1.6 0 3.04-1.12 3.04-1.12l.88 1.44s-1.68 1.744-4.192 1.744c-3.248 0-5.12-1.952-5.12-5.664 0-3.76 2.112-6 5.392-6 1.936 0 3.728.752 3.728.752l-.08 3.04h-1.568l-.368-1.536zm7.568.416c2.592 0 4.032 1.568 4.032 4.32 0 2.88-1.68 4.64-4.272 4.64-2.608 0-4.08-1.36-4.08-4.4 0-2.88 1.712-4.56 4.32-4.56zm-.08 1.92c-1.168 0-1.76.64-1.76 2.56 0 1.76.512 2.56 1.68 2.56 1.152 0 1.712-.72 1.712-2.64 0-1.632-.48-2.48-1.632-2.48zm8.621-1.76.112 1.104s1.52-1.232 2.944-1.232c1.552 0 2.432 1.104 2.432 2.848v4.24l1.12.4V432h-4.4v-1.28l.88-.4v-3.808c0-.736-.416-1.28-1.088-1.28-.992 0-1.712.912-1.712.912v4.176l.88.4V432h-4.56v-1.28l1.28-.4v-5.2l-1.28-.4v-1.28l3.392-.08zm9.177 6.88s.56.16 1.344.16c.88 0 1.312-.272 1.312-.784 0-1.312-4.272-.832-4.272-3.68 0-2 1.6-2.736 3.296-2.736 1.44 0 2.976.48 2.976.48l-.064 2.4h-1.36l-.24-.96s-.464-.16-1.104-.16c-.688 0-1.104.288-1.104.816 0 1.296 4.272.736 4.272 3.504 0 1.84-1.488 2.88-3.68 2.88-1.52 0-2.944-.352-2.944-.352V429.2h1.44l.128 1.04zm7.141-5.12-1.28-.4v-1.28l3.68-.08v5.52c0 .88.256 1.28.976 1.28 1.04 0 1.808-.864 1.808-.864v-4.176l-1.28-.4v-1.28l3.68-.08v6.96l1.28.32v1.248l-3.376.112-.16-1.12s-1.28 1.28-2.8 1.28c-1.6 0-2.528-1.072-2.528-2.864v-4.176zm23.583 5.2 1.088.4V432h-4.336v-1.28l.848-.4v-3.808c0-.96-.288-1.312-.992-1.312-.56 0-1.248.352-1.712.832v4.288l.832.4V432h-4.064v-1.28l.832-.4v-3.808c0-.976-.288-1.312-.992-1.312-.576 0-1.296.4-1.712.832v4.288l.848.4V432h-4.48v-1.28l1.232-.4v-5.2l-1.216-.4v-1.28l3.344-.08.112 1.136s1.392-1.296 2.8-1.296c1.136 0 1.84.528 2.208 1.376.272-.272 1.472-1.376 2.896-1.376 1.68 0 2.464 1.088 2.464 2.88v4.24zm4.546-2.112c.096 1.28.832 2.032 1.936 2.032 1.328 0 2.688-.752 2.688-.752l.688 1.328s-1.6 1.344-3.648 1.344c-2.752 0-4.16-1.6-4.16-4.32 0-2.8 1.584-4.64 4.272-4.64 2.384 0 3.632 1.472 3.632 3.76 0 .608-.096 1.2-.096 1.2l-5.312.048zm1.616-3.088c-.896 0-1.456.656-1.584 1.6h2.896c0-.912-.384-1.6-1.312-1.6zm8.28-1.76.144 1.104s1.152-1.264 2.224-1.264c.88 0 1.488.288 1.488.288l-.128 3.072h-1.44l-.24-1.36c-.928 0-1.728.896-1.728.896v4.224l1.6.4V432h-5.28v-1.28l1.28-.4v-5.2l-1.28-.4v-1.28l3.36-.08zm15.737-.576s-.752-.256-1.808-.256c-1.712 0-2.672 1.248-2.672 3.92 0 2.592 1.008 3.712 2.72 3.712.832 0 1.76-.288 1.76-.288v-2.016l-1.2-.368v-1.312l4.608-.08v1.392l-1.088.368v3.264s-1.648 1.072-4.352 1.072c-3.248 0-5.12-1.952-5.12-5.664 0-3.76 2.112-6 5.392-6 1.936 0 3.728.752 3.728.752l-.08 2.88h-1.488l-.4-1.376zm8.848.416c2.592 0 4.032 1.568 4.032 4.32 0 2.88-1.68 4.64-4.272 4.64-2.608 0-4.08-1.36-4.08-4.4 0-2.88 1.712-4.56 4.32-4.56zm-.08 1.92c-1.168 0-1.76.64-1.76 2.56 0 1.76.512 2.56 1.68 2.56 1.152 0 1.712-.72 1.712-2.64 0-1.632-.48-2.48-1.632-2.48zm9.548-1.92c2.592 0 4.032 1.568 4.032 4.32 0 2.88-1.68 4.64-4.272 4.64-2.608 0-4.08-1.36-4.08-4.4 0-2.88 1.712-4.56 4.32-4.56zm-.08 1.92c-1.168 0-1.76.64-1.76 2.56 0 1.76.512 2.56 1.68 2.56 1.152 0 1.712-.72 1.712-2.64 0-1.632-.48-2.48-1.632-2.48zm11.149 6.88-.144-.848a3.38 3.38 0 0 1-2.416 1.008c-2.24 0-3.28-1.632-3.28-4.272 0-3.008 1.44-4.688 4.368-4.688.384 0 .848.08 1.2.16v-2.032l-1.28-.32v-1.28l3.68-.128v10.688l1.28.32v1.28l-3.408.112zm-.272-6.64c-.304-.144-.784-.24-1.248-.24-1.36 0-1.84 1.04-1.84 2.64 0 1.616.448 2.48 1.536 2.48 1.024 0 1.552-.912 1.552-.912v-3.968zm6.171 4.88s.56.16 1.344.16c.88 0 1.312-.272 1.312-.784 0-1.312-4.272-.832-4.272-3.68 0-2 1.6-2.736 3.296-2.736 1.44 0 2.976.48 2.976.48l-.064 2.4h-1.36l-.24-.96s-.464-.16-1.104-.16c-.688 0-1.104.288-1.104.816 0 1.296 4.272.736 4.272 3.504 0 1.84-1.488 2.88-3.68 2.88-1.52 0-2.944-.352-2.944-.352V429.2h1.44l.128 1.04z" fill="#fff"/>
    <g clip-path="url(#x57gqtdmla)" fill="#fff">
        <path d="M309.177 350.776a4.248 4.248 0 0 0-3.263-1.526H283.01l-.06-.497a4.25 4.25 0 0 0-4.219-3.753h-.314a1.416 1.416 0 1 0 0 2.833h.314a1.418 1.418 0 0 1 1.407 1.251l1.949 16.575a7.085 7.085 0 0 0 7.035 6.258h14.795a1.418 1.418 0 0 0 0-2.834h-14.795a4.247 4.247 0 0 1-3.995-2.833h16.887a7.083 7.083 0 0 0 6.972-5.827l1.112-6.168a4.243 4.243 0 0 0-.921-3.479zm-1.86 2.976-1.114 6.168a4.253 4.253 0 0 1-4.189 3.497h-17.337l-1.333-11.334h22.57a1.427 1.427 0 0 1 1.093.506 1.42 1.42 0 0 1 .31 1.163zM286.916 379a2.834 2.834 0 1 0 0-5.668 2.834 2.834 0 0 0 0 5.668zM301.083 379a2.834 2.834 0 1 0 0-5.668 2.834 2.834 0 0 0 0 5.668z"/>
    </g>
    <defs>
        <clipPath id="x57gqtdmla">
            <path fill="#fff" transform="translate(277 345)" d="M0 0h34v34H0z"/>
        </clipPath>
    </defs>
</svg>
