<svg width="105" height="87" viewBox="0 0 105 87" fill="none" xmlns="http://www.w3.org/2000/svg">
    <mask id="r3ectyimka" style="mask-type:luminance" maskUnits="userSpaceOnUse" x="7" y="27" width="39" height="31">
        <path d="M7.944 33.834c10.94-1.563 14.677 8.971 17.193 13.892 8.026 15.7 20.49 6.947 20.49 6.947-9.03-.52-11.377-12.692-14.587-17.366-5.173-7.53-9.728-9.875-13.4-9.874-6.06 0-9.7 6.4-9.7 6.4" fill="#fff"/>
    </mask>
    <g mask="url(#r3ectyimka)">
        <path d="M21.919 9.215-9.447 50.058 31.64 81.612 63.006 40.77 21.92 9.215z" fill="#fff"/>
    </g>
    <mask id="dpiuu271bb" style="mask-type:luminance" maskUnits="userSpaceOnUse" x="25" y="13" width="48" height="45">
        <path d="M25.657 19.767s10.29-5.769 19.97 18.41c2.377 5.94 8.677 19.15 18.977 19.158h.027a15.59 15.59 0 0 0 8.26-2.658s-7.917-1.52-18.233-23.964c-2.349-5.115-10.254-17.079-18.995-17.08-3.3 0-6.72 1.707-10.006 6.134z" fill="#fff"/>
    </mask>
    <g mask="url(#dpiuu271bb)">
        <path d="M43.172-9.2 4.541 41.105 55.358 80.13l38.631-50.303L43.172-9.2z" fill="#fff"/>
    </g>
    <mask id="vnzlekg8nc" style="mask-type:luminance" maskUnits="userSpaceOnUse" x="41" y="0" width="58" height="55">
        <path d="M53.37 0c-3.542.006-7.452 1.6-11.736 5.528 0 0 10.07-5.383 22.055 18.755 0 0 23.1 47.235 34.383 23.791 0 0-10.245 0-21.36-22.576C73.269 18.5 65.504.029 53.422 0h-.051z" fill="#fff"/>
    </mask>
    <g mask="url(#vnzlekg8nc)">
        <path d="M62.556-27.284 7.078 44.956 77.125 98.75l55.478-72.24-70.047-53.794z" fill="#fff"/>
    </g>
    <mask id="6a4agk41ld" style="mask-type:luminance" maskUnits="userSpaceOnUse" x="68" y="1" width="22" height="21">
        <path d="M80.883 20.81c2.73-.789 5.66-.477 8.163.868 0 0 0-19.1-20.318-20.492 0 0 12.5 3.821 12.156 19.623" fill="#fff"/>
    </mask>
    <g mask="url(#6a4agk41ld)">
        <path d="M76.258-8.636 58.823 14.067l22.678 17.416L98.936 8.78 76.258-8.636z" fill="#fff"/>
    </g>
    <mask id="2x2w62nile" style="mask-type:luminance" maskUnits="userSpaceOnUse" x="83" y="23" width="17" height="23">
        <path d="M90.638 40.869c4.457 4.154 7.463 4.42 7.514 4.423h.02a21.278 21.278 0 0 0 1.156-6.749v-.081c-.012-5.737-2.707-13.184-15.845-15.223 0 0 11.9 8.115 7.154 17.629" fill="#fff"/>
    </mask>
    <g mask="url(#2x2w62nile)">
        <path d="M89.357 15.58 72.828 37.103l20.62 15.836 16.529-21.523-20.62-15.836z" fill="#fff"/>
    </g>
    <mask id="mse5wva8ff" style="mask-type:luminance" maskUnits="userSpaceOnUse" x="6" y="36" width="12" height="20">
        <path d="M6.729 39.738v.07c.008.969.33 11.607 10.767 16.08 0 0-8.682-9.55-3.647-19.623a12.125 12.125 0 0 0-2.334-.23c-2.075 0-4.786.596-4.786 3.7" fill="#fff"/>
    </mask>
    <g mask="url(#mse5wva8ff)">
        <path d="M10.718 30.83-2.863 48.515 13.5 61.08l13.582-17.684L10.718 30.83z" fill="#fff"/>
    </g>
    <mask id="ughc8t0cxg" style="mask-type:luminance" maskUnits="userSpaceOnUse" x="23" y="22" width="10" height="11">
        <path d="M23.746 26.366a20.74 20.74 0 0 1 7.12 5.9s-.5-7.91 2.083-9.03a10.055 10.055 0 0 0-4.242-1.117c-1.964 0-4.06.887-4.96 4.242" fill="#fff"/>
    </mask>
    <g mask="url(#ughc8t0cxg)">
        <path d="m27.158 17.674-8.315 10.828 10.69 8.21 8.316-10.828-10.69-8.21z" fill="#fff"/>
    </g>
    <mask id="d8xsl096zh" style="mask-type:luminance" maskUnits="userSpaceOnUse" x="37" y="7" width="14" height="9">
        <path d="M37.64 11.437s6.078.87 8.857 4.17a10.3 10.3 0 0 1 3.994-6.079 13.572 13.572 0 0 0-6.387-1.914 7.172 7.172 0 0 0-6.464 3.823z" fill="#fff"/>
    </mask>
    <g mask="url(#d8xsl096zh)">
        <path d="m42.406 1.398-8.629 11.235 11.942 9.171 8.628-11.235-11.941-9.171z" fill="#fff"/>
    </g>
    <path d="M2.776 80.274c.068.494.203.862.403 1.106.366.445.993.667 1.882.667.532 0 .964-.059 1.296-.176.63-.224.945-.642.945-1.252 0-.357-.156-.633-.468-.828-.313-.19-.804-.359-1.473-.505l-1.142-.257c-1.123-.254-1.9-.53-2.33-.827C1.163 77.704.8 76.925.8 75.865c0-.967.35-1.77 1.054-2.41.703-.64 1.736-.959 3.098-.959 1.138 0 2.107.303 2.908.908.806.6 1.228 1.475 1.267 2.622H6.958c-.04-.649-.322-1.11-.85-1.384-.351-.18-.788-.27-1.31-.27-.582 0-1.046.116-1.392.35a1.12 1.12 0 0 0-.52.982c0 .386.17.674.512.864.22.127.689.276 1.407.447l1.86.447c.815.195 1.43.456 1.846.784.644.507.967 1.242.967 2.204 0 .986-.379 1.807-1.136 2.461-.752.65-1.816.974-3.193.974-1.406 0-2.512-.32-3.318-.96-.806-.644-1.208-1.528-1.208-2.65h2.153zm16.216-7.463v1.912h-3.23v8.884h-2.27v-8.884h-3.245V72.81h8.745zm3.164 6.716h2.739l-1.348-4.248-1.391 4.248zm.139-6.716h2.549l3.823 10.796h-2.446l-.696-2.22h-3.977l-.747 2.22h-2.359l3.853-10.796zm12.956 0h2.344l-3.684 10.796H31.78L28.132 72.81h2.41l2.344 8.196 2.365-8.196zm11.668 1.912h-5.713v2.292h5.244v1.875h-5.244v2.776h5.977v1.94h-8.181V72.812h7.917v1.912zm6.797 7.273c.893 0 1.601-.33 2.124-.99.527-.658.79-1.596.79-2.812 0-1.21-.263-2.146-.79-2.805-.523-.664-1.23-.996-2.124-.996-.894 0-1.607.33-2.139.989-.532.659-.798 1.596-.798 2.812 0 1.216.266 2.154.798 2.813.532.659 1.245.989 2.139.989zm5.17-3.802c0 1.939-.544 3.423-1.633 4.453-.815.84-1.994 1.26-3.537 1.26s-2.722-.42-3.538-1.26c-1.093-1.03-1.64-2.514-1.64-4.453 0-1.977.547-3.462 1.64-4.453.816-.84 1.995-1.26 3.538-1.26 1.543 0 2.722.42 3.537 1.26 1.09.991 1.634 2.476 1.634 4.453zm13.748-5.383v1.912h-3.23v8.884h-2.27v-8.884h-3.245V72.81h8.745zm9.31 1.912H76.23v2.292h5.244v1.875H76.23v2.776h5.976v1.94h-8.181V72.812h7.917v1.912zm1.552 3.574c0-1.885.505-3.337 1.516-4.358.88-.889 1.997-1.333 3.355-1.333 1.816 0 3.144.596 3.984 1.787.464.669.713 1.34.747 2.014h-2.256c-.146-.517-.334-.908-.564-1.172-.41-.468-1.018-.703-1.823-.703-.82 0-1.468.332-1.941.996-.474.66-.71 1.595-.71 2.805 0 1.211.248 2.12.746 2.725.503.6 1.14.901 1.912.901.79 0 1.394-.259 1.809-.776.23-.279.42-.696.571-1.253h2.234c-.195 1.177-.696 2.134-1.501 2.871-.801.738-1.829 1.106-3.084 1.106-1.552 0-2.773-.498-3.662-1.494-.889-1-1.333-2.373-1.333-4.116zm11.294 5.31V72.81h2.234v4.116h4.219v-4.116h2.241v10.796h-2.241v-4.82h-4.22v4.82H94.79z" fill="#fff"/>
</svg>
