<svg width="430" height="856" viewBox="0 0 430 856" fill="none" xmlns="http://www.w3.org/2000/svg">
<mask id="mask0_584_160" style="mask-type:alpha" maskUnits="userSpaceOnUse" x="-129" y="0" width="1975" height="1110">
<rect x="-128.252" width="1973.29" height="1109.97" fill="#F7FBFF"/>
</mask>
<g mask="url(#mask0_584_160)">
</g>
<g clip-path="url(#clip0_584_160)">
<path d="M-205.099 444.087C-231.553 425.515 -237.942 389.018 -219.367 362.56C-200.793 336.11 -164.292 329.722 -137.831 348.294C-148.12 332.187 -143.401 310.791 -127.299 300.502C-111.19 290.214 -89.792 294.933 -79.5024 311.033C-67.5668 268.943 -23.7717 244.497 18.3228 256.432C60.4172 268.366 84.8657 312.156 72.9301 354.245C118.441 340.907 166.145 366.991 179.485 412.497C191.132 452.239 172.706 493.65 137.531 512.385C138.943 512.736 140.339 513.236 141.657 514.031C147.29 517.448 149.778 523.992 148.374 530.076C163.071 493.657 203.699 474.453 241.472 487.035C280.75 500.116 301.985 542.564 288.902 581.838C297.616 558.391 323.687 546.441 347.137 555.154C370.587 563.866 382.538 589.934 373.824 613.382C395.652 582.797 438.136 575.699 468.724 597.524C492.634 614.583 502.105 644.247 494.717 671.001C511.614 646.634 542.624 634.387 572.79 642.843C586.622 646.72 598.315 654.442 607.146 664.48C610.22 655.658 615.197 647.351 622.241 640.292C647.267 615.199 687.903 615.137 712.999 640.167C725.044 619.77 751.341 612.999 771.741 625.035C774.221 626.502 776.491 628.179 778.559 630.027C782.35 591.409 806.533 555.988 844.743 539.678C877.562 525.669 913.4 528.883 942.201 545.263C958.225 514.39 989.429 492.323 1026.66 489.648C1080.55 485.787 1127.71 523.914 1136.14 576.245C1136.73 565.473 1143.89 555.715 1154.81 552.385C1168.78 548.118 1183.57 555.988 1187.83 569.958C1188.9 533.719 1219.15 505.202 1255.4 506.27C1276.62 506.894 1295.13 517.565 1306.67 533.539C1304.97 502.37 1320.06 471.31 1348.65 454.033C1389.9 429.111 1443.54 442.34 1468.46 483.587C1497.44 466.294 1534.1 473.33 1554.93 498.595C1574.32 466.669 1606.38 442.543 1645.85 434.361C1718.9 419.213 1790.44 464.157 1809.14 535.489C1807.21 520.076 1816.12 504.858 1831.36 499.437C1845.91 494.258 1861.64 499.679 1870.19 511.66C1854.35 477.004 1866.44 435.195 1899.75 414.759C1924.26 399.72 1953.9 400.173 1977.3 413.324C1953.1 379.37 1950.77 332.701 1975.02 295.736C2006.58 247.641 2071.15 234.232 2119.25 265.784C2180.17 272.952 2223.74 328.146 2216.57 389.065C2210.49 440.765 2169.8 479.952 2120.38 486.247C2138.4 490.888 2153.49 504.804 2158.67 524.054C2165.26 548.57 2153.62 573.663 2132.07 585.036C2188.42 565.926 2251.19 592.236 2276.39 647.531C2303.26 706.484 2277.25 776.054 2218.29 802.917C2267.8 817.722 2295.94 869.85 2281.13 919.358C2266.33 968.865 2214.19 997.001 2164.68 982.196C2146.42 997.235 2119.47 994.692 2104.32 976.58C2090.13 1014.99 2056.39 1044.98 2013.13 1052.34C1948.67 1063.32 1887.52 1019.97 1876.53 955.519C1868.64 972.898 1848.15 980.597 1830.77 972.703C1817.75 966.791 1810.17 953.819 1810.5 940.372C1803.27 958.671 1784.75 970.956 1764.1 969.372C1747.52 968.101 1733.71 958.179 1726.64 944.396C1729.94 988.756 1703.06 1031.42 1658.95 1046.27C1606.73 1063.86 1550.15 1035.78 1532.57 983.561C1522.51 1027.55 1478.69 1055.03 1434.7 1044.97C1390.71 1034.91 1363.22 991.096 1373.28 947.111C1358.25 972.836 1325.2 981.502 1299.47 966.471C1286.92 959.139 1278.47 947.509 1274.81 934.545C1261.72 972.688 1227.01 1001.37 1184.24 1004.7C1126.84 1009.16 1076.68 966.252 1072.21 908.843C1071.68 937.899 1047.69 961.019 1018.64 960.496C989.577 959.966 966.455 935.988 966.977 906.932C964.161 950.613 926.459 983.74 882.781 980.925C857.373 979.287 835.6 965.808 822.33 946.261C820.942 949.701 819.116 953.031 816.753 956.128C802.547 974.731 775.961 978.296 757.355 964.1C762.582 1021.6 720.199 1072.45 662.69 1077.68C605.18 1082.9 554.325 1040.52 549.099 983.023C542.561 1002.78 521.241 1013.49 501.489 1006.95C481.729 1000.42 471.018 979.099 477.555 959.342C458.63 1007.09 404.584 1030.46 356.834 1011.53C320.949 997.313 298.841 963.249 298.1 926.932C286.57 953.195 261.131 972.235 230.527 973.998C187.091 976.502 149.848 943.328 147.337 899.897C143.202 943.25 104.704 975.035 61.3534 970.909C30.2194 967.937 5.12337 947.212 -5.057 919.725C-8.0448 944.49 -24.0682 966.923 -48.8521 976.892C-85.0724 991.462 -126.254 973.92 -140.827 937.704C-179.114 929.49 -203.492 891.8 -195.278 853.517C-189.45 826.349 -168.754 806.264 -143.557 799.774C-173.138 794.197 -198.156 771.826 -205.497 740.641C-215.436 698.434 -189.271 656.173 -147.06 646.236" fill="url(#paint0_linear_584_160)"/>
</g>
<defs>
<linearGradient id="paint0_linear_584_160" x1="1028.49" y1="1708.98" x2="1028.49" y2="163.267" gradientUnits="userSpaceOnUse">
<stop stop-color="#2289E9"/>
<stop offset="0.1" stop-color="#4FA1ED"/>
<stop offset="0.21" stop-color="#7DB9F2"/>
<stop offset="0.33" stop-color="#A5CFF6"/>
<stop offset="0.45" stop-color="#C5E0F9"/>
<stop offset="0.58" stop-color="#DFEDFB"/>
<stop offset="0.71" stop-color="#F0F7FD"/>
<stop offset="0.84" stop-color="#FBFDFE"/>
<stop offset="1" stop-color="white"/>
</linearGradient>
<clipPath id="clip0_584_160">
<rect width="2516.97" height="984.589" fill="white" transform="translate(-230 237.411)"/>
</clipPath>
</defs>
</svg>
