<svg width="16" height="16" viewBox="0 0 16 16" fill="none" xmlns="http://www.w3.org/2000/svg">
    <g clip-path="url(#z7cpxw8lta)" fill="#000">
        <path d="m7.972 16.006-.465-.399c-.64-.536-6.235-5.367-6.235-8.901a6.7 6.7 0 0 1 13.4 0c0 3.534-5.595 8.365-6.233 8.904l-.467.396zm0-14.551a5.257 5.257 0 0 0-5.25 5.25c0 2.22 3.44 5.767 5.25 7.39 1.809-1.623 5.25-5.172 5.25-7.39a5.257 5.257 0 0 0-5.25-5.25z"/>
        <path d="M7.972 9.361a2.656 2.656 0 1 1 0-5.31 2.656 2.656 0 0 1 0 5.31zm0-3.983a1.328 1.328 0 1 0 0 2.656 1.328 1.328 0 0 0 0-2.656z"/>
    </g>
    <defs>
        <clipPath id="z7cpxw8lta">
            <path fill="#fff" d="M0 0h16v16H0z"/>
        </clipPath>
    </defs>
</svg>
