<svg width="1920" height="943" viewBox="0 0 1920 943" fill="none" xmlns="http://www.w3.org/2000/svg">
    <mask id="10uulsfpta" style="mask-type:alpha" maskUnits="userSpaceOnUse" x="0" y="0" width="1920" height="1080">
        <path fill="#F7FBFF" d="M0 0h1920v1080H0z"/>
    </mask>
    <g clip-path="url(#y5wq82ugqb)">
        <path d="M-74.772 432.095c-25.739-18.071-31.955-53.582-13.883-79.326 18.073-25.736 53.589-31.952 79.335-13.881-10.012-15.672-5.42-36.49 10.247-46.501 15.674-10.01 36.495-5.419 46.506 10.246 11.614-40.953 54.226-64.738 95.184-53.126 40.958 11.611 64.746 54.219 53.133 95.172 44.282-12.978 90.697 12.401 103.677 56.678 11.332 38.669-6.596 78.961-40.821 97.191 1.373.342 2.732.828 4.015 1.602 5.48 3.324 7.901 9.692 6.535 15.611 14.3-35.435 53.831-54.12 90.584-41.878 38.217 12.727 58.878 54.029 46.149 92.242 8.479-22.814 33.846-34.441 56.663-25.963 22.816 8.477 34.445 33.841 25.966 56.655 21.238-29.758 62.575-36.665 92.337-15.429 23.265 16.598 32.48 45.461 25.292 71.493 16.44-23.71 46.612-35.625 75.964-27.398 13.458 3.772 24.836 11.285 33.428 21.053 2.991-8.584 7.833-16.666 14.688-23.535 24.35-24.415 63.888-24.476 88.306-.121 11.72-19.847 37.307-26.435 57.156-14.724a42.119 42.119 0 0 1 6.634 4.857c3.689-37.575 27.219-72.039 64.397-87.909 31.932-13.631 66.8-10.504 94.83 5.434 15.59-30.039 45.95-51.51 82.18-54.113 52.42-3.757 98.32 33.341 106.52 84.259.57-10.481 7.54-19.976 18.16-23.217 13.6-4.151 27.98 3.507 32.13 17.1 1.04-35.261 30.48-63.008 65.75-61.969 20.64.607 38.65 10.99 49.88 26.533-1.66-30.327 13.03-60.549 40.85-77.36 40.13-24.248 92.32-11.376 116.57 28.757 28.2-16.826 63.87-9.98 84.14 14.602 18.87-31.064 50.05-54.538 88.46-62.499 71.08-14.739 140.69 28.992 158.88 98.398-1.88-14.997 6.8-29.804 21.62-35.079 14.16-5.04 29.47.235 37.79 11.893-15.41-33.721-3.66-74.4 28.76-94.285 23.84-14.632 52.68-14.192 75.45-1.396-23.54-33.037-25.81-78.445-2.21-114.412 30.7-46.797 93.52-59.843 140.33-29.144 59.27 6.975 101.67 60.678 94.69 119.952-5.92 50.304-45.51 88.433-93.59 94.558 17.53 4.516 32.21 18.055 37.25 36.786 6.41 23.854-4.91 48.27-25.88 59.335 54.83-18.594 115.9 7.005 140.43 60.807 26.14 57.362.83 125.052-56.54 151.191 48.18 14.404 75.56 65.125 61.15 113.296-14.4 48.17-65.13 75.546-113.31 61.141-17.77 14.632-43.98 12.158-58.72-5.465-13.82 37.371-46.64 66.553-88.74 73.713-62.72 10.68-122.22-31.492-132.9-94.204-7.68 16.909-27.62 24.4-44.53 16.719-12.67-5.753-20.04-18.374-19.73-31.458-7.03 17.805-25.04 29.758-45.14 28.218-16.13-1.238-29.57-10.891-36.45-24.302 3.21 43.161-22.94 84.677-65.86 99.127-50.81 17.11-105.86-10.22-122.97-61.02-9.79 42.797-52.43 69.54-95.23 59.75-42.8-9.79-69.55-52.419-59.76-95.216-14.62 25.03-46.78 33.462-71.81 18.837-12.21-7.134-20.43-18.45-24-31.064-12.74 37.113-46.51 65.02-88.12 68.26-55.85 4.342-104.66-37.408-109.01-93.267-.52 28.271-23.85 50.766-52.12 50.258-28.28-.516-50.78-23.846-50.27-52.117-2.74 42.501-39.42 74.733-81.92 71.994-24.722-1.594-45.906-14.709-58.818-33.728-1.351 3.347-3.127 6.588-5.427 9.601-13.822 18.101-39.69 21.569-57.793 7.756 5.086 55.95-36.153 105.426-92.109 110.506-55.957 5.09-105.438-36.15-110.524-92.094-6.361 19.224-27.105 29.645-46.324 23.285-19.226-6.36-29.648-27.102-23.287-46.327-18.415 46.456-71.001 69.196-117.462 50.782-34.915-13.836-56.426-46.979-57.148-82.316-11.218 25.554-35.97 44.08-65.747 45.795-42.264 2.436-78.5-29.842-80.944-72.1-4.023 42.182-41.482 73.109-83.662 69.095-30.293-2.892-54.711-23.057-64.617-49.803-2.907 24.097-18.497 45.924-42.612 55.624-35.242 14.177-75.312-2.892-89.49-38.13-37.254-7.992-60.974-44.664-52.982-81.913 5.67-26.435 25.808-45.978 50.325-52.292-28.783-5.426-53.125-27.193-60.268-57.536-9.67-41.067 15.788-82.187 56.86-91.856" fill="url(#n2db1e4uac)"/>
    </g>
    <defs>
        <linearGradient id="n2db1e4uac" x1="1125.5" y1="1662.83" x2="1125.5" y2="158.858" gradientUnits="userSpaceOnUse">
            <stop stop-color="#2289E9"/>
            <stop offset=".1" stop-color="#4FA1ED"/>
            <stop offset=".21" stop-color="#7DB9F2"/>
            <stop offset=".33" stop-color="#A5CFF6"/>
            <stop offset=".45" stop-color="#C5E0F9"/>
            <stop offset=".58" stop-color="#DFEDFB"/>
            <stop offset=".71" stop-color="#F0F7FD"/>
            <stop offset=".84" stop-color="#FBFDFE"/>
            <stop offset="1" stop-color="#fff"/>
        </linearGradient>
        <clipPath id="y5wq82ugqb">
            <path fill="#fff" transform="translate(-99 231)" d="M0 0h2449v958H0z"/>
        </clipPath>
    </defs>
</svg>
