<svg width="41" height="41" viewBox="0 0 41 41" fill="none" xmlns="http://www.w3.org/2000/svg">
    <path d="M29.14 27.486v-6.719c0-3.6-1.921-5.275-4.483-5.275a3.865 3.865 0 0 0-3.51 1.935v-1.66h-3.895c.05 1.1 0 11.718 0 11.718h3.895v-6.543a2.632 2.632 0 0 1 .129-.949 2.13 2.13 0 0 1 2-1.424c1.41 0 1.973 1.074 1.973 2.65v6.268h3.892zM13.15 14.17a2.03 2.03 0 1 0 .025-4.049 2.028 2.028 0 0 0-2.043 2.81 2.032 2.032 0 0 0 1.993 1.24h.025zm1.947 13.318V15.768h-3.893v11.718l3.893.001z" fill="#fff"/>
    <path d="M20.056 1.254a18.8 18.8 0 1 1-18.8 18.8 18.824 18.824 0 0 1 18.8-18.8zm0-1.254a20.056 20.056 0 1 0 .002 40.112A20.056 20.056 0 0 0 20.056 0z" fill="#fff"/>
</svg>
