<svg width="70" height="70" viewBox="0 0 70 70" fill="none" xmlns="http://www.w3.org/2000/svg">
<path d="M69.8767 32.9545L65.215 23.5312C65.1206 23.335 64.9728 23.17 64.7891 23.0553C64.6053 22.9406 64.3931 22.881 64.177 22.8833H63.2898L62.1228 21.7052H64.1755C64.485 21.7052 64.7818 21.5811 65.0006 21.3601C65.2195 21.1392 65.3424 20.8395 65.3424 20.5271V15.8209C65.3441 15.6651 65.3151 15.5106 65.2572 15.3662C65.1993 15.2218 65.1136 15.0905 65.0051 14.9797C64.8965 14.869 64.7673 14.7811 64.6249 14.7211C64.4825 14.6611 64.3298 14.6302 64.1755 14.6302H62.1181L63.5772 13.1698C63.7957 12.9473 63.9182 12.6468 63.9182 12.3336C63.9182 12.0204 63.7957 11.7199 63.5772 11.4975L60.2752 8.17022C60.0549 7.9497 59.7572 7.82596 59.447 7.82596C59.1368 7.82596 58.8391 7.9497 58.6188 8.17022L57.1721 9.64325V7.57097C57.1721 7.25851 57.0492 6.95885 56.8303 6.73791C56.6115 6.51698 56.3146 6.39285 56.0051 6.39285H51.3435C51.034 6.39285 50.7372 6.51698 50.5183 6.73791C50.2995 6.95885 50.1765 7.25851 50.1765 7.57097V9.64325L48.7299 8.17022C48.5095 7.9497 48.2119 7.82596 47.9016 7.82596C47.5914 7.82596 47.2937 7.9497 47.0734 8.17022L43.7652 11.5038C43.5468 11.7262 43.4242 12.0267 43.4242 12.3399C43.4242 12.6531 43.5468 12.9536 43.7652 13.176L45.2243 14.6365H43.17C42.8605 14.6365 42.5637 14.7606 42.3449 14.9816C42.126 15.2025 42.0031 15.5022 42.0031 15.8146V20.5208C42.0031 20.8333 42.126 21.1329 42.3449 21.3539C42.5637 21.5748 42.8605 21.6989 43.17 21.6989H45.2181L44.0511 22.877H37.3368V20.4439C37.3352 19.9533 37.4363 19.4679 37.6334 19.0194C37.8305 18.5709 38.1191 18.1695 38.4804 17.8414C39.8159 16.6435 40.8265 15.1214 41.4167 13.4191C42.007 11.7169 42.1573 9.89074 41.8534 8.11348C41.5496 6.33623 40.8017 4.66661 39.6804 3.26256C38.5592 1.85851 37.1016 0.76646 35.4457 0.0897103C35.2678 0.01605 35.0747 -0.0121048 34.8834 0.00774856C34.6922 0.0276019 34.5088 0.0948484 34.3495 0.203511C34.1902 0.312173 34.0599 0.458885 33.9703 0.630605C33.8807 0.802325 33.8345 0.993734 33.8359 1.18782V9.29657L31.5019 10.8653L29.1695 9.29657V1.18625C29.1709 0.992165 29.1247 0.800756 29.0351 0.629036C28.9455 0.457316 28.8152 0.310604 28.6559 0.201942C28.4966 0.0932798 28.3132 0.0260333 28.122 0.00617995C27.9307 -0.0136734 27.7376 0.0144814 27.5597 0.0881416C25.9039 0.765059 24.4465 1.85724 23.3254 3.26136C22.2043 4.66549 21.4565 6.33514 21.1529 8.11238C20.8492 9.88961 20.9997 11.7157 21.59 13.4179C22.1803 15.12 23.191 16.642 24.5265 17.8398C24.8878 18.168 25.1765 18.5694 25.3736 19.0179C25.5706 19.4663 25.6717 19.9517 25.6702 20.4424V22.8802H24.5032C24.2872 22.8778 24.0749 22.9375 23.8912 23.0522C23.7074 23.1669 23.5597 23.3319 23.4652 23.5281L18.8036 32.9514C18.7141 33.1307 18.6714 33.3301 18.6797 33.5307C18.688 33.7313 18.7469 33.9265 18.8509 34.0976C18.9549 34.2688 19.1005 34.4103 19.2739 34.5086C19.4473 34.607 19.6427 34.659 19.8416 34.6597H23.3425V49.0544L21.0116 49.6426V47.619C21.0116 47.3065 20.8887 47.0069 20.6698 46.7859C20.451 46.565 20.1542 46.4409 19.8447 46.4409H10.5012C10.1917 46.4409 9.89484 46.565 9.67599 46.7859C9.45714 47.0069 9.33419 47.3065 9.33419 47.619V48.7971H1.16697C0.857469 48.7971 0.560646 48.9212 0.341797 49.1422C0.122948 49.3631 0 49.6628 0 49.9752V66.4657C0 66.7781 0.122948 67.0778 0.341797 67.2987C0.560646 67.5197 0.857469 67.6438 1.16697 67.6438H9.33419V68.8219C9.33419 69.1343 9.45714 69.434 9.67599 69.6549C9.89484 69.8759 10.1917 70 10.5012 70H19.8353C20.1448 70 20.4417 69.8759 20.6605 69.6549C20.8794 69.434 21.0023 69.1343 21.0023 68.8219V67.1951L22.508 67.9497C23.6425 68.5202 24.8922 68.8187 26.1597 68.8219H43.6253C45.0598 68.8252 46.4693 68.4429 47.7089 67.7144L67.3112 56.2893C68.1712 55.7859 68.8492 55.0182 69.2464 54.0982C69.6435 53.1782 69.7389 52.1541 69.5187 51.1755C69.2985 50.1968 68.7742 49.3149 68.0223 48.6584C67.2704 48.002 66.3303 47.6053 65.3393 47.5264V34.6629H68.8371C69.036 34.6622 69.2314 34.6102 69.4048 34.5118C69.5782 34.4134 69.7238 34.2719 69.8278 34.1008C69.9318 33.9296 69.9907 33.7345 69.999 33.5339C70.0073 33.3333 69.9646 33.1338 69.8751 32.9545H69.8767ZM9.33419 65.2875H2.33083V51.1533H9.33419V65.2875ZM18.6684 67.6406H11.6681V48.7971H18.6684V67.6406ZM44.337 19.349V16.9959H47.0827C47.3333 16.9952 47.5772 16.9137 47.7787 16.7633C47.9802 16.6129 48.1289 16.4014 48.2031 16.1597C48.2543 15.9928 48.3209 15.831 48.402 15.6766C48.517 15.4541 48.5587 15.2004 48.521 14.9524C48.4833 14.7044 48.3681 14.475 48.1922 14.2977L46.239 12.3399L47.8954 10.6676L49.8316 12.6348C50.0072 12.8124 50.2344 12.9287 50.4801 12.9668C50.7258 13.0048 50.9771 12.9627 51.1974 12.8466C51.3504 12.7647 51.5106 12.6975 51.676 12.6458C51.9154 12.5709 52.1249 12.4208 52.2738 12.2174C52.4228 12.0139 52.5035 11.7678 52.5042 11.5147V8.74751H54.8351V11.5163C54.8358 11.7693 54.9165 12.0155 55.0655 12.2189C55.2144 12.4224 55.4239 12.5725 55.6633 12.6474C55.8287 12.699 55.9889 12.7663 56.1419 12.8482C56.3622 12.9643 56.6135 13.0064 56.8592 12.9683C57.1049 12.9302 57.3321 12.8139 57.5077 12.6364L59.4439 10.6692L61.1003 12.3415L59.1518 14.2961C58.9759 14.4734 58.8607 14.7028 58.823 14.9508C58.7852 15.1989 58.8269 15.4526 58.942 15.675C59.0231 15.8294 59.0897 15.9912 59.1409 16.1582C59.215 16.3999 59.3637 16.6113 59.5653 16.7617C59.7668 16.9121 60.0106 16.9936 60.2612 16.9943H63.0038V19.3474H60.2628C60.0122 19.3481 59.7683 19.4296 59.5668 19.58C59.3653 19.7304 59.2166 19.9418 59.1424 20.1835C59.0912 20.3505 59.0247 20.5123 58.9435 20.6667C58.8285 20.8891 58.7868 21.1428 58.8245 21.3909C58.8623 21.6389 58.9774 21.8683 59.1533 22.0456L59.994 22.8817H47.3469L48.1875 22.0456C48.3634 21.8683 48.4786 21.6389 48.5163 21.3909C48.5541 21.1428 48.5124 20.8891 48.3973 20.6667C48.3162 20.5123 48.2496 20.3505 48.1984 20.1835C48.1243 19.9418 47.9756 19.7304 47.7741 19.58C47.5725 19.4296 47.3287 19.3481 47.0781 19.3474L44.337 19.349ZM45.504 29.0547L47.9653 34.0134C48.0598 34.2096 48.2075 34.3746 48.3913 34.4893C48.575 34.604 48.7873 34.6637 49.0033 34.6613H63.0038V47.9484C62.8873 48.008 62.7583 48.0661 62.6418 48.1257L51.2658 54.7567C50.6434 53.816 49.7053 53.1341 48.6242 52.8366L45.4978 52.0004L45.504 29.0547ZM23.3347 9.92406C23.3323 8.59379 23.6495 7.28279 24.2593 6.10353C24.8691 4.92427 25.7531 3.91195 26.8356 3.15343V9.92406C26.8367 10.118 26.8852 10.3087 26.9768 10.4792C27.0684 10.6497 27.2003 10.7947 27.3608 10.9014L30.8617 13.2545C31.0501 13.3868 31.274 13.4577 31.5035 13.4577C31.7329 13.4577 31.9569 13.3868 32.1452 13.2545L35.6461 10.9014C35.8066 10.7947 35.9385 10.6497 36.0301 10.4792C36.1218 10.3087 36.1703 10.118 36.1713 9.92406V3.15343C37.1846 3.86451 38.0251 4.79816 38.6297 5.88423C39.2343 6.97031 39.5872 8.18058 39.662 9.42413C39.7368 10.6677 39.5314 11.9122 39.0614 13.0641C38.5914 14.216 37.8689 15.2454 36.9483 16.075C36.3358 16.6222 35.8462 17.2952 35.5122 18.049C35.1783 18.8027 35.0078 19.6198 35.0121 20.4455V22.8833H32.6813V19.349C32.6895 19.1893 32.6654 19.0297 32.6105 18.8798C32.5556 18.7299 32.4711 18.5928 32.3621 18.4769C32.2531 18.361 32.1218 18.2687 31.9764 18.2057C31.8309 18.1426 31.6742 18.1101 31.5159 18.1101C31.3576 18.1101 31.2009 18.1426 31.0555 18.2057C30.91 18.2687 30.7787 18.361 30.6697 18.4769C30.5607 18.5928 30.4762 18.7299 30.4213 18.8798C30.3664 19.0297 30.3423 19.1893 30.3505 19.349V22.8833H28.0197V20.4439C28.0235 19.6194 27.8538 18.8034 27.5219 18.05C27.19 17.2966 26.7035 16.6229 26.0944 16.0735C25.2282 15.3051 24.534 14.3593 24.0582 13.299C23.5823 12.2386 23.3357 11.0881 23.3347 9.92406ZM21.7249 32.3066L25.2258 25.2395H42.4475L38.9466 32.3066H21.7249ZM43.1685 29.0562V51.3651L31.2207 48.1382C29.8808 47.773 28.4706 47.7606 27.1246 48.1022L25.6655 48.4677V34.6629H39.666C39.8821 34.6652 40.0943 34.6056 40.2781 34.4909C40.4618 34.3762 40.6096 34.2111 40.704 34.015L43.1685 29.0562ZM66.9833 51.0341C67.2939 51.5732 67.3799 52.2147 67.2222 52.8177C67.0646 53.4207 66.6763 53.9358 66.1427 54.25L46.542 65.6766C45.6551 66.1927 44.649 66.4633 43.6253 66.461H26.1581C25.2502 66.4619 24.3548 66.2469 23.5445 65.8335L21.0008 64.5502V52.071L27.6825 50.3862C28.6447 50.1405 29.6533 50.1486 30.6115 50.4097L48.0151 55.1159C48.4628 55.2335 48.8656 55.4833 49.1718 55.8334C49.478 56.1835 49.6737 56.6179 49.7338 57.081C49.7939 57.5441 49.7156 58.0148 49.5091 58.4327C49.3025 58.8506 48.9771 59.1968 48.5745 59.4268C48.3114 59.5834 48.0199 59.6849 47.7171 59.7254C47.4144 59.7658 47.1067 59.7443 46.8124 59.6621L32.8926 55.8972C32.5924 55.816 32.2726 55.8586 32.0035 56.0156C31.7343 56.1725 31.538 56.431 31.4576 56.7341C31.3773 57.0372 31.4195 57.3601 31.5749 57.6318C31.7304 57.9034 31.9864 58.1017 32.2866 58.1828L46.2063 61.9477C46.6021 62.0553 47.0101 62.1106 47.4199 62.1124C48.2361 62.1138 49.0377 61.8944 49.7414 61.4771C50.2736 61.1689 50.7399 60.7571 51.1133 60.2657C51.4867 59.7743 51.7598 59.2129 51.9169 58.6142C52.0466 58.0948 52.0901 57.5573 52.0458 57.0235L63.7948 50.1791C64.3318 49.8738 64.9656 49.7923 65.5613 49.9521C66.1569 50.1118 66.6672 50.5 66.9833 51.0341ZM49.7243 32.3066L46.2234 25.2395H63.4483L66.9492 32.3066H49.7243Z" fill="white"/>
<path d="M58.338 18.1661C58.338 17.2353 58.0646 16.3255 57.5523 15.5515C57.0401 14.7776 56.3121 14.1744 55.4602 13.8182C54.6084 13.462 53.6711 13.3688 52.7669 13.5504C51.8626 13.732 51.032 14.1802 50.38 14.8384C49.7281 15.4965 49.2841 16.3351 49.1042 17.248C48.9244 18.1609 49.0167 19.1072 49.3695 19.9671C49.7223 20.8271 50.3198 21.5621 51.0864 22.0792C51.853 22.5963 52.7543 22.8723 53.6763 22.8723C54.9127 22.8723 56.0984 22.3765 56.9726 21.4939C57.8468 20.6113 58.338 19.4143 58.338 18.1661ZM53.6763 20.5192C53.2153 20.5192 52.7647 20.3812 52.3814 20.1227C51.9981 19.8641 51.6993 19.4966 51.5229 19.0666C51.3465 18.6367 51.3003 18.1635 51.3903 17.7071C51.4802 17.2506 51.7022 16.8313 52.0282 16.5023C52.3541 16.1732 52.7694 15.9491 53.2216 15.8583C53.6737 15.7675 54.1424 15.8141 54.5683 15.9922C54.9942 16.1703 55.3582 16.4719 55.6143 16.8588C55.8704 17.2458 56.0071 17.7007 56.0071 18.1661C56.0082 18.4767 55.9483 18.7845 55.8309 19.0716C55.7136 19.3587 55.5411 19.6195 55.3234 19.839C55.1057 20.0585 54.8471 20.2323 54.5625 20.3504C54.278 20.4685 53.9731 20.5285 53.6654 20.5271L53.6763 20.5192Z" fill="white"/>
</svg>
