<svg width="70" height="70" viewBox="0 0 70 70" fill="none" xmlns="http://www.w3.org/2000/svg">
<path d="M40.8158 33.8014H26.8208C26.6677 33.8014 26.5161 33.8316 26.3747 33.8902C26.2333 33.9489 26.1049 34.0348 25.9966 34.1432C25.8884 34.2516 25.8026 34.3802 25.744 34.5218C25.6854 34.6634 25.6553 34.8151 25.6553 34.9684V39.6395C25.6553 39.949 25.7781 40.2458 25.9966 40.4647C26.2152 40.6835 26.5116 40.8065 26.8208 40.8065H40.8142C41.1233 40.8065 41.4198 40.6835 41.6383 40.4647C41.8569 40.2458 41.9797 39.949 41.9797 39.6395V34.9684C41.9797 34.6592 41.8571 34.3626 41.6389 34.1437C41.4206 33.9249 41.1246 33.8018 40.8158 33.8014ZM39.6503 38.4725H27.9878V36.1369H39.6487L39.6503 38.4725Z" fill="white"/>
<path d="M64.0796 9.37015C63.7993 6.79542 62.5792 4.41503 60.6537 2.68572C58.7281 0.956411 56.2326 0 53.646 0C51.0594 0 48.5638 0.956411 46.6383 2.68572C44.7127 4.41503 43.4927 6.79542 43.2123 9.37015C41.5706 9.63385 40.0763 10.4743 38.9971 11.7409C37.918 13.0075 37.3245 14.6175 37.3231 16.2824C37.3287 16.6735 37.3638 17.0636 37.4282 17.4494H32.1387C31.026 17.4513 29.9369 17.771 28.9992 18.3708C28.0615 18.9706 27.3141 19.8257 26.8446 20.8359L24.6404 25.6215H17.4914C17.1823 25.6215 16.8859 25.7444 16.6673 25.9633C16.4488 26.1821 16.326 26.479 16.326 26.7885V32.5399C16.0462 32.6452 15.7772 32.7612 15.4974 32.8789L11.4384 28.816C11.2129 28.6078 10.9174 28.4923 10.6106 28.4923C10.3039 28.4923 10.0084 28.6078 9.7829 28.816L3.18265 35.4249C2.96413 35.6453 2.8415 35.9432 2.8415 36.2537C2.8415 36.5643 2.96413 36.8622 3.18265 37.0825L7.24018 41.1454C7.12425 41.4255 7.00678 41.7057 6.90167 41.975H1.16548C1.0123 41.975 0.860615 42.0052 0.719112 42.0639C0.577609 42.1227 0.449059 42.2088 0.340814 42.3173C0.23257 42.4259 0.146753 42.5547 0.0882735 42.6964C0.0297937 42.8382 -0.000202135 42.9901 1.02512e-06 43.1435V52.4842C1.02512e-06 52.7937 0.122792 53.0905 0.341361 53.3094C0.559931 53.5282 0.856374 53.6512 1.16548 53.6512H6.90321C7.00832 53.9205 7.12425 54.2006 7.24173 54.4808L3.1842 58.5451C2.96568 58.7655 2.84305 59.0634 2.84305 59.374C2.84305 59.6845 2.96568 59.9824 3.1842 60.2028L9.78445 66.8116C10.0055 67.0286 10.3027 67.1501 10.6122 67.1501C10.9217 67.1501 11.2189 67.0286 11.4399 66.8116L15.4974 62.7488C15.7772 62.8649 16.0462 62.9825 16.326 63.0878V68.833C16.326 69.1425 16.4488 69.4393 16.6673 69.6582C16.8859 69.8771 17.1823 70 17.4914 70H26.8199C26.9729 70 27.1245 69.9698 27.2659 69.9112C27.4073 69.8525 27.5358 69.7666 27.644 69.6582C27.7522 69.5498 27.8381 69.4212 27.8967 69.2796C27.9552 69.138 27.9854 68.9863 27.9854 68.833V63.0862C28.2651 62.981 28.5341 62.8649 28.8139 62.7473L32.8714 66.8101C33.0969 67.0183 33.3924 67.1339 33.6991 67.1339C34.0059 67.1339 34.3014 67.0183 34.5269 66.8101L41.1271 60.2012C41.3456 59.9809 41.4683 59.6829 41.4683 59.3724C41.4683 59.0619 41.3456 58.7639 41.1271 58.5436L37.0696 54.4808C37.1855 54.2006 37.303 53.9205 37.4081 53.6512H43.1458C43.2989 53.6512 43.4505 53.621 43.5919 53.5623C43.7333 53.5037 43.8617 53.4177 43.97 53.3094C44.0782 53.201 44.164 53.0723 44.2226 52.9308C44.2812 52.7892 44.3113 52.6374 44.3113 52.4842V45.4791H57.1408C58.6872 45.4791 60.1702 44.864 61.2636 43.7691C62.3571 42.6743 62.9713 41.1893 62.9713 39.641V34.829C62.972 33.9826 62.7889 33.1461 62.435 32.3774L58.2368 23.2999H62.9713C64.7363 23.3077 66.4391 22.6474 67.7385 21.4513C69.0378 20.2551 69.8377 18.6115 69.9779 16.8497C70.118 15.088 69.5881 13.3382 68.4943 11.9512C67.4005 10.5641 65.8236 9.6422 64.0796 9.37015ZM41.9819 51.3141H36.5827C36.3347 51.3126 36.0929 51.3914 35.8932 51.5386C35.6935 51.6859 35.5466 51.8937 35.4744 52.1313C35.2404 52.8396 34.9558 53.5301 34.6227 54.1975C34.5106 54.4166 34.4706 54.6656 34.5084 54.9088C34.5461 55.152 34.6597 55.3771 34.8329 55.5518L38.6586 59.3701L33.6968 64.3368L29.8835 60.5061C29.7083 60.3358 29.4848 60.2237 29.2435 60.1852C29.0023 60.1467 28.7551 60.1836 28.5356 60.291C27.8687 60.6236 27.1792 60.9086 26.4721 61.1438C26.2349 61.2161 26.0273 61.3632 25.8802 61.5631C25.7332 61.7631 25.6545 62.0052 25.656 62.2535V67.6598H18.6585V62.2582C18.6599 62.0099 18.5812 61.7677 18.4342 61.5678C18.2871 61.3678 18.0796 61.2208 17.8423 61.1484C17.1346 60.9118 16.4445 60.6253 15.7772 60.291C15.5584 60.1788 15.3098 60.1387 15.0669 60.1765C14.8239 60.2143 14.5992 60.3281 14.4247 60.5015L10.6114 64.3368L5.65581 59.3732L9.48148 55.5549C9.65469 55.3802 9.7683 55.1551 9.80605 54.9119C9.84381 54.6687 9.80379 54.4197 9.6917 54.2006C9.35861 53.5332 9.07397 52.8427 8.84001 52.1344C8.76818 51.8957 8.62107 51.6868 8.42071 51.5389C8.22035 51.3911 7.97753 51.3122 7.72863 51.3141H2.3325V44.3105H7.72863C7.97661 44.3119 8.21843 44.2332 8.41812 44.0859C8.61781 43.9387 8.76469 43.7309 8.83692 43.4933C9.07088 42.785 9.35551 42.0944 9.68861 41.4271C9.80069 41.208 9.84072 40.959 9.80296 40.7158C9.76521 40.4725 9.6516 40.2475 9.47839 40.0728L5.65581 36.2545L10.6114 31.2924L14.4247 35.1231C14.5992 35.2965 14.8239 35.4103 15.0669 35.4481C15.3098 35.4859 15.5584 35.4458 15.7772 35.3336C16.4441 35.0009 17.1337 34.716 17.8408 34.4808C18.078 34.4085 18.2856 34.2614 18.4326 34.0614C18.5797 33.8615 18.6583 33.6194 18.6569 33.371V27.9632H23.5661L21.5258 32.3882C21.1706 33.1527 20.9875 33.9859 20.9894 34.829V37.3751C18.8712 37.6085 16.8739 38.481 15.2623 39.877C13.6507 41.273 12.501 43.1265 11.9655 45.1918C11.43 47.257 11.534 49.4365 12.2639 51.4412C12.9937 53.4459 14.3148 55.1811 16.0521 56.4168C17.7894 57.6525 19.8607 58.3302 21.9914 58.3602C24.1222 58.3902 26.2117 57.771 27.9829 56.5847C29.7542 55.3984 31.1235 53.701 31.9093 51.7176C32.6951 49.7343 32.8603 47.5586 32.383 45.4791H41.9819V51.3141ZM26.8214 45.4791H29.9871C30.2104 46.2375 30.3243 47.0239 30.3256 47.8146C30.3276 49.3823 29.8794 50.9175 29.0343 52.2372C28.1892 53.5569 26.983 54.6054 25.5593 55.2577C24.1357 55.91 22.5547 56.1387 21.0049 55.9163C19.4551 55.694 18.0018 55.03 16.8184 54.0037C15.6349 52.9773 14.7712 51.6318 14.3302 50.1276C13.8892 48.6234 13.8895 47.024 14.3311 45.5199C14.7726 44.0159 15.6369 42.6708 16.8207 41.6449C18.0046 40.619 19.4581 39.9556 21.008 39.7338C21.0323 41.2642 21.6558 42.7237 22.7443 43.7983C23.8327 44.8728 25.2991 45.4764 26.8276 45.4791H26.8214ZM60.6388 34.9699V39.641C60.636 40.569 60.2665 41.4583 59.6111 42.1145C58.9558 42.7707 58.0677 43.1407 57.1408 43.1435H26.8214C25.8946 43.1407 25.0065 42.7707 24.3511 42.1145C23.6958 41.4583 23.3263 40.569 23.3235 39.641V34.9699C23.3263 34.0418 23.6958 33.1526 24.3511 32.4964C25.0065 31.8401 25.8946 31.4702 26.8214 31.4673H57.1408C58.0677 31.4702 58.9558 31.8401 59.6111 32.4964C60.2665 33.1526 60.636 34.0418 60.6388 34.9699ZM58.4284 29.2835C58.0041 29.1846 57.5703 29.1327 57.1347 29.1287H26.8214C26.3851 29.13 25.9506 29.1851 25.5277 29.2927L28.9684 21.8202C29.2485 21.2139 29.696 20.7004 30.258 20.3403C30.82 19.9802 31.4731 19.7886 32.1403 19.788H38.2629C38.8751 20.8533 39.7564 21.7385 40.8183 22.355C41.8803 22.9714 43.0854 23.2972 44.3129 23.2999H55.6709L58.4284 29.2835ZM62.9651 20.9581H44.3129C43.0905 20.9358 41.9258 20.434 41.0692 19.5606C40.2127 18.6871 39.7328 17.5119 39.7328 16.2878C39.7328 15.0637 40.2127 13.8885 41.0692 13.015C41.9258 12.1416 43.0905 11.6398 44.3129 11.6175C44.622 11.6175 44.9184 11.4945 45.137 11.2757C45.3556 11.0568 45.4784 10.76 45.4784 10.4505C45.4784 8.2827 46.3384 6.2037 47.8692 4.67084C49.4001 3.13798 51.4764 2.27684 53.6413 2.27684C55.8063 2.27684 57.8826 3.13798 59.4134 4.67084C60.9443 6.2037 61.8043 8.2827 61.8043 10.4505C61.8043 10.76 61.9271 11.0568 62.1457 11.2757C62.3642 11.4945 62.6607 11.6175 62.9698 11.6175C63.5894 11.6062 64.2051 11.7186 64.7809 11.9483C65.3567 12.1779 65.881 12.5201 66.3232 12.9549C66.7654 13.3897 67.1166 13.9084 67.3564 14.4806C67.5962 15.0529 67.7197 15.6672 67.7197 16.2878C67.7197 16.9084 67.5962 17.5227 67.3564 18.095C67.1166 18.6672 66.7654 19.1859 66.3232 19.6207C65.881 20.0555 65.3567 20.3977 64.7809 20.6273C64.2051 20.857 63.5894 20.9694 62.9698 20.9581H62.9651Z" fill="white"/>
<path d="M67.6403 59.706V25.6277C67.6403 25.318 67.5174 25.021 67.2987 24.802C67.08 24.583 66.7834 24.46 66.474 24.46C66.1647 24.46 65.8681 24.583 65.6494 24.802C65.4307 25.021 65.3078 25.318 65.3078 25.6277V59.706C64.8201 59.8804 64.3771 60.1611 64.0109 60.5278C63.6447 60.8945 63.3643 61.338 63.1901 61.8264H43.1467C42.8374 61.8264 42.5408 61.9494 42.3221 62.1684C42.1033 62.3874 41.9805 62.6845 41.9805 62.9942C41.9805 63.3039 42.1033 63.6009 42.3221 63.8199C42.5408 64.0389 42.8374 64.162 43.1467 64.162H63.1871C63.3829 64.7192 63.7166 65.2176 64.1569 65.6106C64.5973 66.0037 65.13 66.2785 65.7052 66.4096C66.2804 66.5406 66.8794 66.5235 67.4462 66.3599C68.0131 66.1962 68.5292 65.8914 68.9465 65.4739C69.3638 65.0564 69.6686 64.5397 69.8324 63.9723C69.9962 63.4048 70.0137 62.805 69.8832 62.229C69.7528 61.6529 69.4786 61.1193 69.0864 60.6781C68.6941 60.2369 68.1966 59.9025 67.6403 59.706ZM66.4748 64.162C66.2441 64.162 66.0186 64.0934 65.8268 63.965C65.6351 63.8365 65.4857 63.654 65.3976 63.4405C65.3095 63.227 65.2867 62.9921 65.3321 62.7656C65.3774 62.5391 65.4889 62.3311 65.6524 62.1681C65.8158 62.0051 66.0239 61.8943 66.2503 61.8498C66.4767 61.8053 66.7112 61.8291 66.924 61.9181C67.1369 62.0072 67.3186 62.1575 67.4461 62.35C67.5736 62.5425 67.6412 62.7686 67.6403 62.9996C67.6397 63.1529 67.6089 63.3045 67.5498 63.4458C67.4907 63.5872 67.4043 63.7155 67.2957 63.8234C67.187 63.9314 67.0582 64.0168 66.9165 64.0749C66.7749 64.133 66.6232 64.1626 66.4702 64.162H66.4748Z" fill="white"/>
<path d="M2.33287 10.2339V31.4659C2.33287 31.7756 2.45574 32.0726 2.67446 32.2916C2.89317 32.5106 3.18981 32.6336 3.49912 32.6336C3.80843 32.6336 4.10507 32.5106 4.32379 32.2916C4.5425 32.0726 4.66537 31.7756 4.66537 31.4659V10.2339C5.1531 10.0595 5.59607 9.77878 5.96228 9.41209C6.3285 9.0454 6.60882 8.60185 6.78302 8.11348H40.8075C41.1168 8.11348 41.4135 7.99045 41.6322 7.77145C41.8509 7.55245 41.9738 7.25542 41.9738 6.94571C41.9738 6.636 41.8509 6.33897 41.6322 6.11997C41.4135 5.90097 41.1168 5.77794 40.8075 5.77794H6.78302C6.58733 5.22047 6.25367 4.72178 5.81322 4.3285C5.37278 3.93522 4.83994 3.66018 4.26452 3.52909C3.68909 3.39801 3.08986 3.41516 2.52285 3.57894C1.95584 3.74273 1.43956 4.04779 1.02227 4.46562C0.604984 4.88345 0.300316 5.40041 0.136747 5.96816C-0.0268211 6.53591 -0.0439493 7.13592 0.0869639 7.7121C0.217877 8.28828 0.492557 8.82182 0.885326 9.26284C1.2781 9.70385 1.77613 10.0379 2.33287 10.2339ZM3.49835 5.77794C3.72886 5.77794 3.95419 5.84638 4.14585 5.97461C4.33752 6.10284 4.4869 6.2851 4.57511 6.49835C4.66332 6.71159 4.6864 6.94623 4.64143 7.17261C4.59646 7.39898 4.48546 7.60692 4.32247 7.77013C4.15947 7.93334 3.9518 8.04448 3.72572 8.08951C3.49964 8.13454 3.2653 8.11143 3.05234 8.0231C2.83938 7.93478 2.65735 7.7852 2.52929 7.59329C2.40123 7.40138 2.33287 7.17575 2.33287 6.94494C2.33287 6.63543 2.45566 6.3386 2.67423 6.11974C2.8928 5.90089 3.18925 5.77794 3.49835 5.77794Z" fill="white"/>
<path d="M52.476 33.8014C52.1669 33.8014 51.8705 33.9243 51.6519 34.1432C51.4333 34.3621 51.3105 34.6589 51.3105 34.9684V39.6395C51.3105 39.9492 51.4334 40.2462 51.6521 40.4652C51.8708 40.6842 52.1675 40.8073 52.4768 40.8073C52.7861 40.8073 53.0827 40.6842 53.3015 40.4652C53.5202 40.2462 53.643 39.9492 53.643 39.6395V34.9684C53.643 34.815 53.6129 34.6631 53.5542 34.5214C53.4955 34.3798 53.4095 34.251 53.3011 34.1427C53.1928 34.0343 53.0641 33.9483 52.9225 33.8898C52.7809 33.8312 52.6292 33.8012 52.476 33.8014Z" fill="white"/>
<path d="M47.81 33.8014C47.5009 33.8014 47.2045 33.9243 46.9859 34.1432C46.7673 34.3621 46.6445 34.6589 46.6445 34.9684V39.6395C46.6445 39.9492 46.7674 40.2462 46.9861 40.4652C47.2048 40.6842 47.5015 40.8073 47.8108 40.8073C48.1201 40.8073 48.4167 40.6842 48.6354 40.4652C48.8542 40.2462 48.977 39.9492 48.977 39.6395V34.9684C48.977 34.815 48.9468 34.6631 48.8882 34.5214C48.8295 34.3798 48.7435 34.251 48.6351 34.1427C48.5267 34.0343 48.3981 33.9483 48.2565 33.8898C48.1149 33.8312 47.9632 33.8012 47.81 33.8014Z" fill="white"/>
<path d="M57.1391 33.8014C56.9861 33.8014 56.8345 33.8316 56.6931 33.8902C56.5517 33.9489 56.4232 34.0348 56.315 34.1432C56.2068 34.2516 56.1209 34.3802 56.0624 34.5218C56.0038 34.6634 55.9736 34.8151 55.9736 34.9684V39.6395C55.9736 39.9492 56.0965 40.2462 56.3152 40.4652C56.5339 40.6842 56.8306 40.8073 57.1399 40.8073C57.4492 40.8073 57.7458 40.6842 57.9645 40.4652C58.1833 40.2462 58.3061 39.9492 58.3061 39.6395V34.9684C58.3061 34.815 58.2759 34.6631 58.2173 34.5214C58.1586 34.3798 58.0726 34.251 57.9642 34.1427C57.8558 34.0343 57.7272 33.9483 57.5856 33.8898C57.444 33.8312 57.2923 33.8012 57.1391 33.8014Z" fill="white"/>
</svg>
