<svg width="70" height="70" viewBox="0 0 70 70" fill="none" xmlns="http://www.w3.org/2000/svg">
<path d="M64.2998 45.7325C65.3794 44.7842 66.1294 43.517 66.441 42.1142C66.7526 40.7115 66.6098 39.2459 66.0332 37.9297C65.4566 36.6135 64.4762 35.5149 63.2337 34.7929C61.9913 34.071 60.5514 33.7631 59.1223 33.9138C57.6933 34.0646 56.3493 34.6661 55.2848 35.6315C54.2204 36.5968 53.4907 37.8758 53.2015 39.2833C52.9122 40.6909 53.0783 42.154 53.6758 43.4608C54.2732 44.7677 55.2711 45.8505 56.5248 46.5526C55.3862 47.2775 54.4297 48.2546 53.7293 49.4085C53.029 50.5623 52.6036 51.8619 52.4862 53.2066L52.0306 58.7033H46.2894C45.4032 58.7216 44.5595 59.0865 43.9393 59.7197C43.3191 60.3528 42.9717 61.2039 42.9717 62.0902C42.9717 62.9766 43.3191 63.8276 43.9393 64.4608C44.5595 65.094 45.4032 65.4589 46.2894 65.4772H50.8054V69.9932H69.999V53.9327C69.9952 52.1486 69.4477 50.408 68.4295 48.9429C67.4112 47.4779 65.9707 46.358 64.2998 45.7325ZM59.8373 36.1335C60.7305 36.1335 61.6036 36.3983 62.3463 36.8946C63.0889 37.3908 63.6677 38.0961 64.0095 38.9213C64.3513 39.7465 64.4408 40.6545 64.2665 41.5305C64.0923 42.4065 63.6622 43.2112 63.0306 43.8428C62.399 44.4743 61.5944 44.9044 60.7183 45.0787C59.8423 45.2529 58.9343 45.1635 58.1091 44.8217C57.2839 44.4799 56.5786 43.9011 56.0824 43.1584C55.5862 42.4158 55.3213 41.5426 55.3213 40.6495C55.3213 39.4514 55.797 38.3023 56.6438 37.4547C57.4906 36.6071 58.6392 36.1303 59.8373 36.1292V36.1335ZM67.741 67.7468H53.0634V65.4845H53.4611C54.8715 65.4908 56.2326 64.9663 57.274 64.0152C58.3155 63.0641 58.9609 61.756 59.0822 60.3508L59.8257 52.0392L57.5764 51.8353L56.8214 60.1469C56.7489 60.9878 56.3634 61.7709 55.7411 62.3412C55.1189 62.9115 54.3052 63.2274 53.4611 63.2265H46.2894C46.1377 63.2319 45.9865 63.2067 45.8448 63.1524C45.7031 63.0981 45.5738 63.0158 45.4646 62.9105C45.3553 62.8051 45.2685 62.6788 45.2092 62.5391C45.1498 62.3994 45.1192 62.2492 45.1192 62.0975C45.1192 61.9457 45.1498 61.7955 45.2092 61.6558C45.2685 61.5161 45.3553 61.3899 45.4646 61.2845C45.5738 61.1791 45.7031 61.0968 45.8448 61.0425C45.9865 60.9882 46.1377 60.9631 46.2894 60.9685H52.0334C52.599 60.9704 53.1446 60.7592 53.5614 60.377C53.9783 59.9947 54.2358 59.4694 54.2828 58.9058L54.7384 53.396C54.8544 51.7042 55.6261 50.1244 56.8892 48.9929C58.1524 47.8614 59.8072 47.2675 61.5016 47.3377C63.1959 47.4078 64.796 48.1364 65.9613 49.3684C67.1267 50.6004 67.7652 52.2385 67.741 53.9341V67.7468Z" fill="white"/>
<path d="M23.7096 58.7105L17.967 58.7192L17.5113 53.2095C17.3934 51.865 16.9678 50.5656 16.2675 49.4119C15.5672 48.2581 14.611 47.2808 13.4727 46.5556C14.7299 45.8539 15.731 44.7702 16.3311 43.4615C16.9312 42.1529 17.0991 40.6871 16.8105 39.2766C16.5219 37.8661 15.7918 36.5841 14.726 35.6163C13.6601 34.6485 12.3138 34.0451 10.8821 33.8935C9.45038 33.742 8.00759 34.0501 6.7627 34.7733C5.51782 35.4965 4.53547 36.5972 3.95797 37.916C3.38046 39.2349 3.23777 40.7033 3.55057 42.1086C3.86337 43.5139 4.61541 44.7832 5.69777 45.7325C4.02714 46.3583 2.58688 47.4783 1.56893 48.9433C0.550983 50.4083 0.00369413 52.1488 0 53.9327V70.0005H19.1936V65.4845H23.7096C24.1603 65.4938 24.6083 65.4131 25.0274 65.2471C25.4464 65.0811 25.8282 64.8331 26.1502 64.5176C26.4722 64.2022 26.728 63.8257 26.9027 63.4101C27.0774 62.9945 27.1673 62.5483 27.1673 62.0975C27.1673 61.6468 27.0774 61.2005 26.9027 60.785C26.728 60.3694 26.4722 59.9929 26.1502 59.6774C25.8282 59.362 25.4464 59.114 25.0274 58.948C24.6083 58.782 24.1603 58.7012 23.7096 58.7105ZM10.1617 36.1292C11.0547 36.1301 11.9274 36.3956 12.6694 36.8924C13.4115 37.3891 13.9897 38.0947 14.3308 38.92C14.6719 39.7453 14.7607 40.6531 14.586 41.5289C14.4113 42.4046 13.9808 43.2089 13.3491 43.84C12.7173 44.4711 11.9127 44.9008 11.0368 45.0747C10.1609 45.2486 9.25308 45.1589 8.42814 44.817C7.60321 44.4751 6.89817 43.8962 6.40214 43.1537C5.9061 42.4111 5.64136 41.5382 5.64136 40.6452C5.64251 39.4471 6.11926 38.2984 6.96686 37.4516C7.81446 36.6049 8.96356 36.1292 10.1617 36.1292ZM23.7096 63.2265H16.5436C15.6976 63.2304 14.8811 62.9157 14.2564 62.3452C13.6316 61.7746 13.2445 60.9899 13.1718 60.1469L12.4168 51.8353L10.1675 52.0393L10.9225 60.3509C11.0438 61.756 11.6893 63.0641 12.7307 64.0152C13.7722 64.9663 15.1333 65.4908 16.5436 65.4845H16.9356V67.7425H2.25799V53.9327C2.22616 52.2322 2.8612 50.5868 4.02722 49.3485C5.19324 48.1102 6.7976 47.3776 8.49699 47.3073C10.1964 47.2369 11.8558 47.8346 13.1201 48.9722C14.3844 50.1099 15.1533 51.6973 15.262 53.3947L15.7177 58.9131C15.766 59.4751 16.024 59.9985 16.4405 60.379C16.857 60.7596 17.4014 60.9695 17.9655 60.9671H23.7096C23.8613 60.9617 24.0125 60.9868 24.1542 61.0411C24.2959 61.0954 24.4252 61.1777 24.5344 61.2831C24.6436 61.3885 24.7305 61.5148 24.7898 61.6544C24.8492 61.7941 24.8797 61.9443 24.8797 62.0961C24.8797 62.2478 24.8492 62.398 24.7898 62.5377C24.7305 62.6774 24.6436 62.8037 24.5344 62.9091C24.4252 63.0145 24.2959 63.0967 24.1542 63.151C24.0125 63.2053 23.8613 63.232 23.7096 63.2265Z" fill="white"/>
<path d="M45.2623 40.8333C45.3795 40.5773 45.4879 40.3198 45.5849 40.0594L48.5487 39.2494V33.0092L45.5849 32.1991C45.4879 31.9402 45.3809 31.6827 45.2623 31.4252L46.7869 28.755L44.9947 26.9628C45.1013 26.6416 45.1579 26.306 45.1625 25.9676C45.1605 25.3604 44.9947 24.7649 44.6826 24.2441C44.3705 23.7232 43.9236 23.2962 43.3891 23.0081L46.1446 17.5027C46.7604 16.2631 47.1605 14.9277 47.3279 13.5537H49.0391L53.0647 20.264L56.7895 14.0542C56.9059 13.8603 57.0826 13.7099 57.2927 13.6261C57.5027 13.5422 57.7344 13.5295 57.9524 13.5899C58.1703 13.6503 58.3624 13.7805 58.4993 13.9605C58.6363 14.1405 58.7104 14.3604 58.7104 14.5865V22.5842H60.9626V14.5822C60.9623 13.8625 60.7261 13.1627 60.2903 12.59C59.8544 12.0173 59.2429 11.6031 58.5493 11.411C57.8557 11.2189 57.1183 11.2593 56.4499 11.5261C55.7815 11.7929 55.2189 12.2714 54.8483 12.8883L53.0604 15.8696L50.312 11.2899H47.38C47.1758 8.23161 45.8181 5.36484 43.5814 3.26909C41.3447 1.17334 38.3957 0.00492247 35.3306 0H34.671C31.6059 0.00492247 28.6569 1.17334 26.4202 3.26909C24.1835 5.36484 22.8258 8.23161 22.6216 11.2899H19.6852L16.9369 15.8696L15.1476 12.8898C14.777 12.2729 14.2146 11.7945 13.5463 11.5277C12.878 11.2608 12.1407 11.2203 11.4472 11.4123C10.7537 11.6042 10.1422 12.0181 9.70622 12.5906C9.27025 13.1631 9.03386 13.8626 9.0332 14.5822V22.5799H11.2912V14.5822C11.2912 14.356 11.3653 14.1361 11.5023 13.9561C11.6392 13.7761 11.8313 13.646 12.0493 13.5856C12.2672 13.5252 12.4989 13.5379 12.7089 13.6217C12.919 13.7056 13.0957 13.856 13.2121 14.0499L16.9369 20.2583L20.9625 13.5479H22.6737C22.8408 14.9219 23.2409 16.2574 23.857 17.4969L26.6125 23.0095C26.078 23.2976 25.6311 23.7246 25.319 24.2455C25.0069 24.7664 24.8411 25.3618 24.8391 25.969C24.8439 26.3074 24.9005 26.643 25.0069 26.9642L23.2089 28.755L24.7335 31.4267C24.6164 31.6827 24.5079 31.9402 24.411 32.2006L21.4471 33.0106V39.2494L24.411 40.0594C24.5079 40.3198 24.6164 40.5758 24.7335 40.8333L23.2089 43.5035L27.6208 47.9154L30.2968 46.3908C30.5528 46.5079 30.8103 46.6164 31.0707 46.7133L31.8807 49.6772H38.1195L38.9295 46.7133C39.1899 46.6164 39.4459 46.5079 39.7034 46.3908L42.3751 47.9154L46.7869 43.5035L45.2623 40.8333ZM39.5168 36.1293C39.5157 36.7773 39.3752 37.4175 39.1048 38.0064C38.8344 38.5953 38.4404 39.1191 37.9496 39.5422C37.4588 39.9653 36.8826 40.2779 36.2603 40.4586C35.638 40.6394 34.9841 40.684 34.343 40.5897C33.7019 40.4953 33.0886 40.264 32.5448 39.9116C32.001 39.5592 31.5394 39.0938 31.1914 38.5472C30.8434 38.0006 30.6171 37.3855 30.5278 36.7436C30.4386 36.1018 30.4886 35.4482 30.6743 34.8274C31.9584 35.6735 33.4623 36.1245 35.0001 36.1245C36.5378 36.1245 38.0418 35.6735 39.3258 34.8274C39.4528 35.2497 39.5171 35.6883 39.5168 36.1293ZM28.2268 24.8393H41.7748C41.9264 24.8339 42.0776 24.8591 42.2193 24.9134C42.3611 24.9677 42.4904 25.05 42.5996 25.1553C42.7088 25.2607 42.7957 25.387 42.855 25.5267C42.9143 25.6664 42.9449 25.8166 42.9449 25.9683C42.9449 26.1201 42.9143 26.2703 42.855 26.41C42.7957 26.5496 42.7088 26.6759 42.5996 26.7813C42.4904 26.8867 42.3611 26.969 42.2193 27.0233C42.0776 27.0776 41.9264 27.1027 41.7748 27.0973H28.2268C28.0752 27.1027 27.924 27.0776 27.7823 27.0233C27.6405 26.969 27.5112 26.8867 27.402 26.7813C27.2928 26.6759 27.2059 26.5496 27.1466 26.41C27.0873 26.2703 27.0567 26.1201 27.0567 25.9683C27.0567 25.8166 27.0873 25.6664 27.1466 25.5267C27.2059 25.387 27.2928 25.2607 27.402 25.1553C27.5112 25.05 27.6405 24.9677 27.7823 24.9134C27.924 24.8591 28.0752 24.8339 28.2268 24.8393ZM35.0008 33.8713C33.7001 33.8694 32.4398 33.4192 31.4323 32.5966C30.4247 31.774 29.7315 30.6293 29.4694 29.3553H40.5322C40.2701 30.6293 39.5769 31.774 38.5693 32.5966C37.5618 33.4192 36.3015 33.8694 35.0008 33.8713ZM24.8391 12.0899C24.8391 9.48113 25.8754 6.97926 27.7201 5.13461C29.5647 3.28996 32.0666 2.25365 34.6753 2.25365H35.3349C37.0112 2.25479 38.6593 2.68427 40.1229 3.50133C41.5864 4.31839 42.817 5.49592 43.6976 6.92216C44.5782 8.3484 45.0798 9.97602 45.1546 11.6506C45.2295 13.3251 44.8752 14.991 44.1253 16.4901L41.0776 22.5842H36.1305V16.7794C37.1948 16.5046 38.1223 15.8511 38.7392 14.9414C39.3561 14.0317 39.62 12.9282 39.4815 11.8378C39.343 10.7474 38.8116 9.74495 37.9868 9.01835C37.1621 8.29174 36.1007 7.89086 35.0015 7.89086C33.9024 7.89086 32.8409 8.29174 32.0162 9.01835C31.1915 9.74495 30.66 10.7474 30.5215 11.8378C30.383 12.9282 30.647 14.0317 31.2639 14.9414C31.8808 15.8511 32.8083 16.5046 33.8725 16.7794V22.5842H28.9255L25.8777 16.4901C25.1965 15.1232 24.8411 13.6171 24.8391 12.0899ZM35.0008 14.6777C34.5542 14.6777 34.1177 14.5452 33.7463 14.2971C33.375 14.049 33.0856 13.6964 32.9147 13.2838C32.7438 12.8712 32.6991 12.4172 32.7862 11.9792C32.8733 11.5411 33.0884 11.1388 33.4042 10.823C33.7199 10.5072 34.1223 10.2922 34.5603 10.2051C34.9983 10.1179 35.4523 10.1627 35.8649 10.3336C36.2775 10.5045 36.6301 10.7939 36.8783 11.1652C37.1264 11.5365 37.2588 11.9731 37.2588 12.4197C37.258 13.0183 37.0199 13.5922 36.5966 14.0155C36.1733 14.4387 35.5994 14.6769 35.0008 14.6777ZM41.9961 45.1005L39.7627 43.829L39.2145 44.1183C38.7197 44.381 38.2015 44.5969 37.6667 44.7634L37.0736 44.9457L36.3981 47.4221H33.6049L32.928 44.9457L32.3349 44.7634C31.7996 44.597 31.2809 44.3811 30.7857 44.1183L30.2375 43.829L28.0041 45.1019L26.0282 43.1274L27.3025 40.8926L27.0132 40.3444C26.7506 39.8496 26.5346 39.3315 26.3681 38.7966L26.1858 38.2036L23.7109 37.528V34.7319L26.1873 34.055L26.3695 33.4619C26.5359 32.9266 26.7519 32.4079 27.0147 31.9127L27.304 31.3645L26.031 29.1311L26.3695 28.7926C26.6156 28.9502 26.8811 29.0751 27.1593 29.1644C27.3356 30.6542 27.9343 32.0626 28.885 33.2232C28.3929 34.2558 28.1703 35.3961 28.238 36.5379C28.3056 37.6798 28.6612 38.7858 29.2718 39.7531C29.8823 40.7203 30.7278 41.5172 31.7294 42.0695C32.7311 42.6218 33.8563 42.9114 35.0001 42.9114C36.1439 42.9114 37.2691 42.6218 38.2707 42.0695C39.2724 41.5172 40.1179 40.7203 40.7284 39.7531C41.3389 38.7858 41.6946 37.6798 41.7622 36.5379C41.8298 35.3961 41.6072 34.2558 41.1152 33.2232C42.0661 32.0626 42.6653 30.6543 42.8423 29.1644C43.1204 29.0749 43.3859 28.95 43.6321 28.7926L43.9706 29.1311L42.6976 31.3645L42.9869 31.9127C43.2494 32.4081 43.4654 32.9267 43.6321 33.4619L43.8143 34.055L46.2907 34.7319V37.5251L43.8143 38.2021L43.6321 38.7952C43.4657 39.33 43.2497 39.8482 42.9869 40.3429L42.6976 40.8912L43.972 43.126L41.9961 45.1005Z" fill="white"/>
<path d="M58.71 29.3553H60.968V31.6133H58.71V29.3553Z" fill="white"/>
<path d="M58.71 24.8394H60.968V27.0973H58.71V24.8394Z" fill="white"/>
<path d="M9.0332 29.3553H11.2912V31.6133H9.0332V29.3553Z" fill="white"/>
<path d="M9.0332 24.8394H11.2912V27.0973H9.0332V24.8394Z" fill="white"/>
</svg>
