<svg width="70" height="70" viewBox="0 0 70 70" fill="none" xmlns="http://www.w3.org/2000/svg">
<path d="M25.6574 22.1666H24.4916C24.3336 22.1584 24.1757 22.1825 24.0273 22.2373C23.879 22.2922 23.7433 22.3766 23.6286 22.4855C23.5139 22.5944 23.4226 22.7255 23.3602 22.8709C23.2978 23.0162 23.2656 23.1727 23.2656 23.3309C23.2656 23.489 23.2978 23.6455 23.3602 23.7909C23.4226 23.9362 23.5139 24.0673 23.6286 24.1762C23.7433 24.2851 23.879 24.3696 24.0273 24.4244C24.1757 24.4792 24.3336 24.5033 24.4916 24.4951H25.6574C25.8154 24.5033 25.9733 24.4792 26.1217 24.4244C26.27 24.3696 26.4057 24.2851 26.5204 24.1762C26.6351 24.0673 26.7264 23.9362 26.7888 23.7909C26.8512 23.6455 26.8834 23.489 26.8834 23.3309C26.8834 23.1727 26.8512 23.0162 26.7888 22.8709C26.7264 22.7255 26.6351 22.5944 26.5204 22.4855C26.4057 22.3766 26.27 22.2922 26.1217 22.2373C25.9733 22.1825 25.8154 22.1584 25.6574 22.1666Z" fill="white"/>
<path d="M30.3215 22.1666H29.1557C28.9977 22.1584 28.8397 22.1825 28.6914 22.2373C28.543 22.2922 28.4074 22.3766 28.2927 22.4855C28.178 22.5944 28.0867 22.7255 28.0243 22.8709C27.9619 23.0162 27.9297 23.1727 27.9297 23.3309C27.9297 23.489 27.9619 23.6455 28.0243 23.7909C28.0867 23.9362 28.178 24.0673 28.2927 24.1762C28.4074 24.2851 28.543 24.3696 28.6914 24.4244C28.8397 24.4792 28.9977 24.5033 29.1557 24.4951H30.3215C30.4794 24.5033 30.6374 24.4792 30.7857 24.4244C30.9341 24.3696 31.0697 24.2851 31.1844 24.1762C31.2991 24.0673 31.3904 23.9362 31.4529 23.7909C31.5153 23.6455 31.5474 23.489 31.5474 23.3309C31.5474 23.1727 31.5153 23.0162 31.4529 22.8709C31.3904 22.7255 31.2991 22.5944 31.1844 22.4855C31.0697 22.3766 30.9341 22.2922 30.7857 22.2373C30.6374 22.1825 30.4794 22.1584 30.3215 22.1666Z" fill="white"/>
<path d="M34.9894 22.1666H33.8236C33.6657 22.1584 33.5077 22.1825 33.3594 22.2373C33.211 22.2922 33.0754 22.3766 32.9607 22.4855C32.846 22.5944 32.7547 22.7255 32.6922 22.8709C32.6298 23.0162 32.5977 23.1727 32.5977 23.3309C32.5977 23.489 32.6298 23.6455 32.6922 23.7909C32.7547 23.9362 32.846 24.0673 32.9607 24.1762C33.0754 24.2851 33.211 24.3696 33.3594 24.4244C33.5077 24.4792 33.6657 24.5033 33.8236 24.4951H34.9894C35.1474 24.5033 35.3054 24.4792 35.4537 24.4244C35.6021 24.3696 35.7377 24.2851 35.8524 24.1762C35.9671 24.0673 36.0584 23.9362 36.1208 23.7909C36.1832 23.6455 36.2154 23.489 36.2154 23.3309C36.2154 23.1727 36.1832 23.0162 36.1208 22.8709C36.0584 22.7255 35.9671 22.5944 35.8524 22.4855C35.7377 22.3766 35.6021 22.2922 35.4537 22.2373C35.3054 22.1825 35.1474 22.1584 34.9894 22.1666Z" fill="white"/>
<path d="M43.8065 37.5275L40.3075 35.199C40.1803 35.1062 40.0357 35.0401 39.8823 35.0047C39.7289 34.9693 39.57 34.9652 39.415 34.9928C39.26 35.0204 39.1122 35.079 38.9805 35.1652C38.8488 35.2513 38.7358 35.3633 38.6484 35.4942C38.5611 35.6251 38.5011 35.7724 38.4721 35.9271C38.4431 36.0818 38.4457 36.2408 38.4798 36.3945C38.5138 36.5482 38.5786 36.6934 38.6702 36.8214C38.7618 36.9495 38.8783 37.0576 39.0128 37.1394L41.0604 38.5024L39.0175 39.8654C38.883 39.9472 38.7664 40.0554 38.6748 40.1834C38.5832 40.3114 38.5185 40.4566 38.4844 40.6103C38.4504 40.764 38.4478 40.923 38.4768 41.0777C38.5058 41.2324 38.5657 41.3797 38.6531 41.5106C38.7405 41.6416 38.8534 41.7535 38.9852 41.8397C39.1169 41.9258 39.2647 41.9845 39.4197 42.012C39.5746 42.0396 39.7336 42.0356 39.887 42.0001C40.0403 41.9647 40.185 41.8986 40.3121 41.8058L43.8112 39.4773C43.9709 39.3708 44.102 39.2266 44.1926 39.0573C44.2832 38.8881 44.3306 38.6991 44.3306 38.5071C44.3306 38.3151 44.2832 38.1261 44.1926 37.9568C44.102 37.7876 43.9709 37.6433 43.8112 37.5368L43.8065 37.5275Z" fill="white"/>
<path d="M31.2972 35.517C31.2122 35.3896 31.1029 35.2801 30.9757 35.1949C30.8484 35.1096 30.7055 35.0503 30.5553 35.0204C30.4051 34.9904 30.2504 34.9903 30.1002 35.0201C29.9499 35.0499 29.807 35.1091 29.6796 35.1941L26.1806 37.5227C26.0208 37.6291 25.8898 37.7734 25.7992 37.9426C25.7085 38.1119 25.6611 38.3009 25.6611 38.4929C25.6611 38.6849 25.7085 38.8739 25.7992 39.0432C25.8898 39.2124 26.0208 39.3567 26.1806 39.4631L29.6796 41.7917C29.9369 41.9482 30.2447 41.9992 30.5387 41.9341C30.8328 41.869 31.0902 41.6927 31.2574 41.4422C31.4245 41.1917 31.4884 40.8863 31.4356 40.5898C31.3829 40.2933 31.2176 40.0287 30.9743 39.8512L28.9205 38.4976L30.9634 37.1346C31.0911 37.0499 31.2009 36.9408 31.2864 36.8136C31.3719 36.6864 31.4315 36.5436 31.4618 36.3934C31.4921 36.2432 31.4924 36.0884 31.4628 35.938C31.4333 35.7877 31.3743 35.6446 31.2894 35.517H31.2972Z" fill="white"/>
<path d="M36.4427 32.7012C36.2942 32.664 36.1398 32.6564 35.9884 32.6789C35.8369 32.7013 35.6914 32.7534 35.5601 32.8321C35.4288 32.9108 35.3142 33.0146 35.223 33.1376C35.1318 33.2606 35.0657 33.4003 35.0285 33.5488L32.7 42.88C32.6628 43.0286 32.6552 43.1829 32.6777 43.3344C32.7001 43.4858 32.7522 43.6314 32.8309 43.7627C32.9096 43.894 33.0134 44.0085 33.1364 44.0997C33.2593 44.1909 33.3991 44.257 33.5476 44.2942C33.6404 44.3181 33.7358 44.3301 33.8317 44.3299C34.0915 44.3297 34.3439 44.2427 34.5486 44.0827C34.7534 43.9226 34.8988 43.6988 34.9618 43.4467L37.2903 34.1154C37.3275 33.9669 37.3351 33.8125 37.3127 33.6611C37.2902 33.5096 37.2381 33.3641 37.1594 33.2328C37.0807 33.1014 36.9769 32.9869 36.8539 32.8957C36.731 32.8045 36.5912 32.7384 36.4427 32.7012Z" fill="white"/>
<path d="M55.9895 12.8357C54.6434 12.8356 53.3041 13.028 52.0124 13.4069C51.0922 9.58618 48.9131 6.18621 45.8259 3.7543C42.7388 1.32239 38.9231 0 34.9931 0C31.0631 0 27.2474 1.32239 24.1602 3.7543C21.0731 6.18621 18.894 9.58618 17.9738 13.4069C14.9262 12.5021 11.6614 12.6621 8.71686 13.8605C5.77236 15.059 3.32379 17.2245 1.77435 20.0004C0.224912 22.7763 -0.332998 25.9971 0.192494 29.1324C0.717986 32.2677 2.29555 35.1306 4.66539 37.2496V54.8286C4.66785 55.756 5.03723 56.6447 5.69285 57.3006C6.34847 57.9565 7.23703 58.3263 8.16441 58.3291H27.9943V62.9955H22.1621C21.2349 62.9984 20.3466 63.368 19.691 64.0235C19.0355 64.6791 18.6659 65.5674 18.663 66.4946V68.8231C18.663 69.1323 18.7859 69.4288 19.0045 69.6475C19.2231 69.8661 19.5197 69.9889 19.8289 69.9889H50.1573C50.4665 69.9889 50.7631 69.8661 50.9817 69.6475C51.2003 69.4288 51.3231 69.1323 51.3231 68.8231V66.4946C51.3203 65.5674 50.9507 64.6791 50.2951 64.0235C49.6396 63.368 48.7512 62.9984 47.8241 62.9955H41.9919V58.3291H61.8233C62.7504 58.3263 63.6388 57.9567 64.2943 57.3011C64.9499 56.6456 65.3195 55.7572 65.3223 54.8301V37.2388C67.4392 35.3529 68.9323 32.8676 69.6032 30.113C70.2741 27.3585 70.0911 24.465 69.0785 21.8169C68.0659 19.1688 66.2717 16.8914 63.9341 15.2872C61.5965 13.6831 58.8246 12.828 55.9895 12.8357ZM47.8241 65.3272C48.1333 65.3272 48.4299 65.45 48.6485 65.6686C48.8671 65.8873 48.9899 66.1838 48.9899 66.493V67.6588H20.9962V66.493C20.9962 66.3399 21.0264 66.1883 21.085 66.0469C21.1436 65.9054 21.2294 65.7769 21.3377 65.6686C21.4459 65.5604 21.5745 65.4745 21.7159 65.4159C21.8574 65.3573 22.009 65.3272 22.1621 65.3272H47.8241ZM30.3275 62.9986V58.3291H39.6587V62.9955L30.3275 62.9986ZM62.9891 54.8332C62.9891 55.1424 62.8663 55.439 62.6477 55.6576C62.429 55.8762 62.1325 55.9991 61.8233 55.9991H8.16441C7.85522 55.9991 7.55868 55.8762 7.34005 55.6576C7.12142 55.439 6.99859 55.1424 6.99859 54.8332V51.3295H62.9891V54.8332ZM47.8241 28.0007V48.9963H22.1621V28.0007H47.8241ZM22.1621 25.6721V22.1669C22.1621 21.8577 22.2849 21.5612 22.5035 21.3425C22.7221 21.1239 23.0187 21.0011 23.3279 21.0011H46.6583C46.9675 21.0011 47.264 21.1239 47.4827 21.3425C47.7013 21.5612 47.8241 21.8577 47.8241 22.1669V25.6659L22.1621 25.6721ZM57.1569 38.4403V31.984L58.6612 33.5007C58.8834 33.7071 59.1771 33.8193 59.4804 33.8137C59.7836 33.808 60.0729 33.6851 60.2874 33.4706C60.5019 33.2561 60.6249 32.9668 60.6305 32.6635C60.6361 32.3602 60.5239 32.0666 60.3175 31.8443L56.8154 28.3375C56.5952 28.1188 56.2975 27.9961 55.9872 27.9961C55.6769 27.9961 55.3792 28.1188 55.159 28.3375L51.66 31.8365C51.5513 31.9453 51.465 32.0744 51.4061 32.2165C51.3473 32.3586 51.317 32.5109 51.317 32.6647C51.317 32.8185 51.3473 32.9708 51.4061 33.1129C51.465 33.255 51.5513 33.3842 51.66 33.4929C51.7688 33.6017 51.8979 33.6879 52.04 33.7468C52.1821 33.8057 52.3344 33.836 52.4882 33.836C52.642 33.836 52.7943 33.8057 52.9364 33.7468C53.0785 33.6879 53.2076 33.6017 53.3164 33.4929L54.8206 31.9763V39.6636C54.8206 39.9728 54.9434 40.2693 55.1621 40.4879C55.3807 40.7066 55.6772 40.8294 55.9864 40.8294C58.4453 40.8271 60.8599 40.1753 62.986 38.9402V48.9948H50.1573V22.1669C50.1545 21.2398 49.7849 20.3515 49.1293 19.6959C48.4737 19.0403 47.5854 18.6707 46.6583 18.6679H23.3294C22.4023 18.6707 21.514 19.0403 20.8584 19.6959C20.2028 20.3515 19.8333 21.2398 19.8304 22.1669V48.9963H6.99859V38.9417C8.78148 39.9819 10.7739 40.6114 12.8308 40.7844V45.0239L11.3312 43.5025C11.1116 43.2829 10.8137 43.1595 10.503 43.1595C10.1924 43.1595 9.89451 43.2829 9.67486 43.5025C9.45521 43.7222 9.33181 44.0201 9.33181 44.3307C9.33181 44.6414 9.45521 44.9393 9.67486 45.1589L13.1739 48.6579C13.395 48.8748 13.6924 48.9962 14.0021 48.9962C14.3118 48.9962 14.6091 48.8748 14.8302 48.6579L18.3169 45.1589C18.5365 44.9393 18.6599 44.6414 18.6599 44.3307C18.6599 44.0201 18.5365 43.7222 18.3169 43.5025C18.0972 43.2829 17.7993 43.1595 17.4887 43.1595C17.178 43.1595 16.8801 43.2829 16.6605 43.5025L15.164 45.0239V39.6651C15.164 39.3559 15.0412 39.0594 14.8225 38.8407C14.6039 38.6221 14.3074 38.4993 13.9982 38.4993C12.2769 38.4967 10.5776 38.1132 9.02207 37.3762C7.46654 36.6393 6.09337 35.5673 5.00107 34.2371C3.90878 32.9068 3.12442 31.3513 2.70427 29.6821C2.28412 28.0129 2.23859 26.2714 2.57095 24.5826C2.90331 22.8937 3.60531 21.2993 4.62661 19.9138C5.6479 18.5283 6.96318 17.386 8.47808 16.5688C9.99298 15.7516 11.67 15.2798 13.3887 15.1873C15.1075 15.0947 16.8254 15.3837 18.4193 16.0335C18.5824 16.1009 18.7587 16.1304 18.9349 16.1198C19.1111 16.1092 19.2825 16.0587 19.4363 15.9721C19.5901 15.8856 19.7223 15.7652 19.8228 15.6202C19.9234 15.4751 19.9896 15.3091 20.0167 15.1347C20.5789 11.5657 22.3969 8.31468 25.1433 5.96707C27.8896 3.61945 31.384 2.32951 34.997 2.32951C38.61 2.32951 42.1043 3.61945 44.8507 5.96707C47.5971 8.31468 49.415 11.5657 49.9773 15.1347C50.0043 15.3091 50.0706 15.4751 50.1711 15.6202C50.2716 15.7652 50.4038 15.8856 50.5576 15.9721C50.7114 16.0587 50.8829 16.1092 51.0591 16.1198C51.2352 16.1304 51.4115 16.1009 51.5746 16.0335C53.1226 15.404 54.7878 15.1145 56.4575 15.1846C58.1271 15.2546 59.7622 15.6826 61.2521 16.4395C62.7419 17.1965 64.0517 18.2647 65.0928 19.5719C66.1339 20.8791 66.8819 22.3947 67.2863 24.0162C67.6907 25.6376 67.7419 27.327 67.4366 28.97C67.1313 30.613 66.4765 32.1711 65.5166 33.539C64.5566 34.9069 63.314 36.0526 61.8728 36.8985C60.4316 37.7444 58.8255 38.2707 57.1631 38.4418L57.1569 38.4403Z" fill="white"/>
<path d="M36.161 52.4954H33.8324C33.6745 52.4873 33.5165 52.5114 33.3681 52.5662C33.2198 52.621 33.0841 52.7054 32.9695 52.8144C32.8548 52.9233 32.7634 53.0544 32.701 53.1997C32.6386 53.3451 32.6064 53.5016 32.6064 53.6597C32.6064 53.8179 32.6386 53.9744 32.701 54.1197C32.7634 54.265 32.8548 54.3962 32.9695 54.5051C33.0841 54.614 33.2198 54.6984 33.3681 54.7533C33.5165 54.8081 33.6745 54.8322 33.8324 54.824H36.161C36.3189 54.8322 36.4769 54.8081 36.6252 54.7533C36.7736 54.6984 36.9092 54.614 37.0239 54.5051C37.1386 54.3962 37.2299 54.265 37.2923 54.1197C37.3547 53.9744 37.3869 53.8179 37.3869 53.6597C37.3869 53.5016 37.3547 53.3451 37.2923 53.1997C37.2299 53.0544 37.1386 52.9233 37.0239 52.8144C36.9092 52.7054 36.7736 52.621 36.6252 52.5662C36.4769 52.5114 36.3189 52.4873 36.161 52.4954Z" fill="white"/>
</svg>
