<svg width="70" height="70" viewBox="0 0 70 70" fill="none" xmlns="http://www.w3.org/2000/svg">
<path d="M64.3548 54.1935H38.2742C38.1492 53.6901 37.9106 53.2219 37.5765 52.8251L31.3408 45.5564C31.2349 45.4326 31.1035 45.3332 30.9556 45.265C30.8077 45.1968 30.6468 45.1614 30.4839 45.1613H18.0645V44.0322C18.0645 43.7328 17.9456 43.4456 17.7338 43.2339C17.5221 43.0221 17.2349 42.9032 16.9355 42.9032H1.12903C0.829594 42.9032 0.54242 43.0221 0.330686 43.2339C0.118951 43.4456 0 43.7328 0 44.0322V68.8709C0 69.1704 0.118951 69.4576 0.330686 69.6693C0.54242 69.881 0.829594 70 1.12903 70H10.1613C10.4607 70 10.7479 69.881 10.9596 69.6693C11.1714 69.4576 11.2903 69.1704 11.2903 68.8709V67.7419H16.9355C17.2349 67.7419 17.5221 67.623 17.7338 67.4112C17.9456 67.1995 18.0645 66.9123 18.0645 66.6129V65.4838H25.629L32.1187 69.8103C32.3033 69.9334 32.5201 69.9994 32.7419 70C32.8232 69.9997 32.9041 69.991 32.9835 69.974L69.1126 62.0708C69.3641 62.0157 69.5893 61.8762 69.7507 61.6756C69.9121 61.475 70 61.2252 70 60.9677V59.8387C69.9982 58.342 69.4029 56.9072 68.3446 55.8489C67.2863 54.7906 65.8515 54.1953 64.3548 54.1935ZM9.03226 67.7419H2.25806V45.1613H9.03226V67.7419ZM15.8065 65.4838H11.2903V45.1613H15.8065V65.4838ZM67.7419 60.0645L32.9677 67.6663L26.5932 63.4155C26.4078 63.2923 26.1903 63.2264 25.9677 63.2258H18.0645V47.4193H29.9645L35.8569 54.294C36.0325 54.4987 36.129 54.7594 36.129 55.029V56.4516C36.129 56.751 36.0101 57.0382 35.7983 57.2499C35.5866 57.4617 35.2994 57.5806 35 57.5806H33.6779C33.5295 57.5807 33.3824 57.5516 33.2453 57.4948C33.1081 57.438 32.9835 57.3548 32.8785 57.2498L27.895 52.2663L26.2985 53.8627L31.2821 58.8463C31.5959 59.162 31.9692 59.4124 32.3805 59.5827C32.7917 59.7531 33.2327 59.8401 33.6779 59.8387H35C35.8983 59.8387 36.7598 59.4818 37.395 58.8466C38.0302 58.2114 38.3871 57.3499 38.3871 56.4516H64.3548C65.2532 56.4516 66.1147 56.8084 66.7499 57.4436C67.3851 58.0788 67.7419 58.9404 67.7419 59.8387V60.0645Z" fill="white"/>
<path d="M68.871 33.871H66.6129V9.03226C66.6129 8.13394 66.256 7.27242 65.6208 6.63722C64.9856 6.00202 64.1241 5.64516 63.2258 5.64516H55.2616C55.2454 5.61751 55.2277 5.59075 55.2085 5.565L52.0156 2.37097C51.8039 2.15931 51.5168 2.0404 51.2174 2.0404C50.918 2.0404 50.6309 2.15931 50.4192 2.37097L49.2473 3.5429C48.6615 3.23667 48.0498 2.98278 47.4194 2.78419V1.12903C47.4194 0.829594 47.3004 0.54242 47.0887 0.330686C46.8769 0.118951 46.5898 0 46.2903 0H41.7742C41.4748 0 41.1876 0.118951 40.9758 0.330686C40.7641 0.54242 40.6452 0.829594 40.6452 1.12903V2.78419C40.0147 2.98278 39.403 3.23667 38.8173 3.5429L37.6453 2.37097C37.4336 2.15931 37.1465 2.0404 36.8471 2.0404C36.5477 2.0404 36.2606 2.15931 36.0489 2.37097L32.8548 5.565C32.8361 5.59078 32.8188 5.61753 32.8029 5.64516H24.8387C23.9404 5.64516 23.0789 6.00202 22.4437 6.63722C21.8085 7.27242 21.4516 8.13394 21.4516 9.03226V15.8065H1.12903C0.829594 15.8065 0.54242 15.9254 0.330686 16.1371C0.118951 16.3489 0 16.636 0 16.9355V30.4839C0 30.7833 0.118951 31.0705 0.330686 31.2822C0.54242 31.494 0.829594 31.6129 1.12903 31.6129H21.4516V33.871H19.1935C18.8941 33.871 18.6069 33.9899 18.3952 34.2017C18.1835 34.4134 18.0645 34.7006 18.0645 35V39.5161C18.0645 40.4144 18.4214 41.276 19.0566 41.9112C19.6918 42.5464 20.5533 42.9032 21.4516 42.9032H66.6129C67.5112 42.9032 68.3727 42.5464 69.0079 41.9112C69.6431 41.276 70 40.4144 70 39.5161V35C70 34.7006 69.881 34.4134 69.6693 34.2017C69.4576 33.9899 69.1704 33.871 68.871 33.871ZM64.3548 9.03226V33.871H62.0968V11.2903C62.0968 10.9909 61.9778 10.7037 61.7661 10.492C61.5544 10.2802 61.2672 10.1613 60.9677 10.1613H54.7965C54.5979 9.53084 54.344 8.91916 54.0377 8.33339L54.4679 7.90323H63.2258C63.5252 7.90323 63.8124 8.02218 64.0242 8.23391C64.2359 8.44565 64.3548 8.73282 64.3548 9.03226ZM29.3548 30.4839V16.9355C29.3548 16.636 29.2359 16.3489 29.0242 16.1371C28.8124 15.9254 28.5252 15.8065 28.2258 15.8065V12.4194H30.4839V15.8065C30.4839 16.1059 30.6028 16.3931 30.8146 16.6048C31.0263 16.8165 31.3135 16.9355 31.6129 16.9355H33.2681C33.4666 17.5659 33.7205 18.1776 34.0268 18.7634L32.8548 19.9353C32.6432 20.147 32.5243 20.4342 32.5243 20.7335C32.5243 21.0329 32.6432 21.32 32.8548 21.5318L36.0489 24.7258C36.2606 24.9375 36.5477 25.0564 36.8471 25.0564C37.1465 25.0564 37.4336 24.9375 37.6453 24.7258L38.8173 23.5539C39.403 23.8602 40.0147 24.1141 40.6452 24.3126V25.9677C40.6452 26.2672 40.7641 26.5544 40.9758 26.7661C41.1876 26.9778 41.4748 27.0968 41.7742 27.0968H46.2903C46.5898 27.0968 46.8769 26.9778 47.0887 26.7661C47.3004 26.5544 47.4194 26.2672 47.4194 25.9677V24.3126C48.0499 24.1137 48.6615 23.8594 49.2473 23.5527L50.4192 24.7258C50.6309 24.9375 50.918 25.0564 51.2174 25.0564C51.5168 25.0564 51.8039 24.9375 52.0156 24.7258L55.2097 21.5318C55.4213 21.32 55.5402 21.0329 55.5402 20.7335C55.5402 20.4342 55.4213 20.147 55.2097 19.9353L54.0389 18.7634C54.3447 18.1776 54.5982 17.5659 54.7965 16.9355H56.4516C56.7511 16.9355 57.0382 16.8165 57.25 16.6048C57.4617 16.3931 57.5806 16.1059 57.5806 15.8065V12.4194H59.8387V33.871H28.2258V31.6129C28.5252 31.6129 28.8124 31.494 29.0242 31.2822C29.2359 31.0705 29.3548 30.7833 29.3548 30.4839ZM35.2326 11.541C35.4577 10.5512 35.8499 9.60698 36.3921 8.74887C36.5288 8.53217 36.5877 8.27542 36.5592 8.0208C36.5307 7.76618 36.4164 7.52883 36.2352 7.34774L35.2506 6.36323L36.8471 4.76677L37.8316 5.75129C38.0127 5.93255 38.25 6.04682 38.5047 6.07534C38.7593 6.10386 39.016 6.04493 39.2327 5.90823C40.0909 5.36599 41.0351 4.97387 42.0248 4.74871C42.2745 4.69186 42.4974 4.55184 42.6571 4.35161C42.8167 4.15138 42.9035 3.90284 42.9032 3.64677V2.25806H45.1613V3.64677C45.161 3.90284 45.2479 4.15138 45.4075 4.35161C45.5671 4.55184 45.79 4.69186 46.0397 4.74871C47.0295 4.97387 47.9737 5.36599 48.8318 5.90823C49.0485 6.04493 49.3052 6.10386 49.5598 6.07534C49.8145 6.04682 50.0518 5.93255 50.2329 5.75129L51.2174 4.76677L52.8139 6.36323L51.8294 7.34774C51.6481 7.52883 51.5338 7.76618 51.5053 8.0208C51.4768 8.27542 51.5357 8.53217 51.6724 8.74887C52.2147 9.60698 52.6068 10.5512 52.8319 11.541C52.8888 11.7906 53.0288 12.0136 53.229 12.1732C53.4293 12.3328 53.6778 12.4196 53.9339 12.4194H55.3226V14.6774H53.9339C53.6778 14.6772 53.4293 14.764 53.229 14.9236C53.0288 15.0832 52.8888 15.3061 52.8319 15.5558C52.6068 16.5456 52.2147 17.4898 51.6724 18.3479C51.5357 18.5646 51.4768 18.8214 51.5053 19.076C51.5338 19.3306 51.6481 19.5679 51.8294 19.749L52.8139 20.7335L51.2174 22.33L50.2329 21.3455C50.0519 21.1645 49.8148 21.0504 49.5604 21.0219C49.306 20.9934 49.0495 21.0521 48.8329 21.1885C47.9746 21.7305 47.0305 22.1226 46.0408 22.3481C45.7911 22.4046 45.5681 22.5444 45.4083 22.7444C45.2484 22.9445 45.1614 23.1928 45.1613 23.4489V24.8387H42.9032V23.4489C42.9032 23.1928 42.8161 22.9445 42.6563 22.7444C42.4965 22.5444 42.2734 22.4046 42.0237 22.3481C41.034 22.1226 40.0899 21.7305 39.2316 21.1885C39.015 21.0521 38.7585 20.9934 38.5041 21.0219C38.2498 21.0504 38.0126 21.1645 37.8316 21.3455L36.8471 22.33L35.2506 20.7335L36.2352 19.749C36.4164 19.5679 36.5307 19.3306 36.5592 19.076C36.5877 18.8214 36.5288 18.5646 36.3921 18.3479C35.8499 17.4898 35.4577 16.5456 35.2326 15.5558C35.1757 15.3061 35.0357 15.0832 34.8355 14.9236C34.6352 14.764 34.3867 14.6772 34.1306 14.6774H32.7419V12.4194H34.1306C34.3867 12.4196 34.6352 12.3328 34.8355 12.1732C35.0357 12.0136 35.1757 11.7906 35.2326 11.541ZM23.7097 9.03226C23.7097 8.73282 23.8286 8.44565 24.0404 8.23391C24.2521 8.02218 24.5393 7.90323 24.8387 7.90323H33.5966L34.0268 8.33339C33.7205 8.91916 33.4666 9.53084 33.2681 10.1613H27.0968C26.7973 10.1613 26.5102 10.2802 26.2984 10.492C26.0867 10.7037 25.9677 10.9909 25.9677 11.2903V15.8065H23.7097V9.03226ZM2.25806 18.0645H27.0968V29.3548H2.25806V18.0645ZM23.7097 31.6129H25.9677V33.871H23.7097V31.6129ZM67.7419 39.5161C67.7419 39.8156 67.623 40.1027 67.4113 40.3145C67.1995 40.5262 66.9123 40.6452 66.6129 40.6452H21.4516C21.1522 40.6452 20.865 40.5262 20.6533 40.3145C20.4415 40.1027 20.3226 39.8156 20.3226 39.5161V36.129H67.7419V39.5161Z" fill="white"/>
<path d="M44.032 20.3227C45.3718 20.3227 46.6815 19.9254 47.7955 19.181C48.9096 18.4367 49.7778 17.3787 50.2905 16.1409C50.8033 14.903 50.9374 13.541 50.676 12.2269C50.4147 10.9128 49.7695 9.7058 48.8221 8.75841C47.8747 7.81102 46.6677 7.16584 45.3536 6.90446C44.0395 6.64308 42.6775 6.77723 41.4396 7.28995C40.2018 7.80267 39.1438 8.67094 38.3995 9.78495C37.6551 10.899 37.2578 12.2087 37.2578 13.5485C37.2596 15.3446 37.9739 17.0666 39.2439 18.3366C40.5139 19.6066 42.2359 20.3209 44.032 20.3227ZM44.032 9.03236C44.9252 9.03236 45.7984 9.29723 46.541 9.79346C47.2837 10.2897 47.8625 10.995 48.2044 11.8202C48.5462 12.6455 48.6356 13.5535 48.4614 14.4295C48.2871 15.3056 47.857 16.1103 47.2254 16.7419C46.5938 17.3735 45.7891 17.8036 44.9131 17.9778C44.037 18.1521 43.129 18.0627 42.3038 17.7208C41.4785 17.379 40.7732 16.8002 40.277 16.0575C39.7807 15.3148 39.5159 14.4417 39.5159 13.5485C39.5159 12.3507 39.9917 11.202 40.8386 10.3551C41.6856 9.50816 42.8343 9.03236 44.032 9.03236Z" fill="white"/>
<path d="M8.23426 19.5243L4.84717 22.9114C4.63551 23.1231 4.5166 23.4102 4.5166 23.7096C4.5166 24.009 4.63551 24.2961 4.84717 24.5078L8.23426 27.8949L9.83071 26.2985L7.24184 23.7096L9.83071 21.1207L8.23426 19.5243Z" fill="white"/>
<path d="M21.1209 19.5243L19.5244 21.1207L22.1133 23.7096L19.5244 26.2985L21.1209 27.8949L24.508 24.5078C24.7196 24.2961 24.8385 24.009 24.8385 23.7096C24.8385 23.4102 24.7196 23.1231 24.508 22.9114L21.1209 19.5243Z" fill="white"/>
<path d="M15.9261 18.6885L11.4102 27.7205L13.4298 28.7303L17.9458 19.6983L15.9261 18.6885Z" fill="white"/>
</svg>
