<svg width="70" height="70" viewBox="0 0 70 70" fill="none" xmlns="http://www.w3.org/2000/svg">
<path d="M35.0011 12.8335C30.6169 12.8335 26.3311 14.1336 22.6857 16.5693C19.0404 19.0051 16.1991 22.4671 14.5214 26.5176C12.8436 30.5681 12.4046 35.0252 13.2599 39.3252C14.1153 43.6252 16.2265 47.575 19.3266 50.6751C22.4267 53.7752 26.3765 55.8864 30.6765 56.7418C34.9765 57.5971 39.4336 57.1581 43.4841 55.4803C47.5346 53.8026 50.9966 50.9613 53.4324 47.316C55.8681 43.6706 57.1682 39.3848 57.1682 35.0006C57.1682 29.1215 54.8327 23.4832 50.6756 19.3261C46.5185 15.169 40.8802 12.8335 35.0011 12.8335ZM35.0011 54.8332C31.078 54.8332 27.243 53.6699 23.981 51.4903C20.719 49.3107 18.1767 46.2128 16.6753 42.5883C15.174 38.9638 14.7812 34.9755 15.5466 31.1278C16.3119 27.2801 18.2011 23.7457 20.9752 20.9716C23.7492 18.1976 27.2836 16.3084 31.1313 15.543C34.9791 14.7777 38.9674 15.1705 42.5919 16.6718C46.2164 18.1731 49.3143 20.7155 51.4938 23.9774C53.6734 27.2394 54.8367 31.0744 54.8367 34.9975C54.8367 37.6024 54.3237 40.1817 53.3268 42.5883C52.33 44.9949 50.8689 47.1816 49.027 49.0235C47.1851 50.8654 44.9984 52.3265 42.5919 53.3233C40.1853 54.3201 37.6059 54.8332 35.0011 54.8332Z" fill="white"/>
<path d="M68.8327 29.166H63.5717C62.8417 25.5054 61.3989 22.024 59.3254 18.9202L63.0468 15.1987C63.2606 14.9754 63.3816 14.6793 63.3856 14.3702C63.3832 14.0608 63.2619 13.7641 63.0468 13.5416L56.4553 6.95316C56.2298 6.74469 55.9339 6.62891 55.6268 6.62891C55.3197 6.62891 55.0238 6.74469 54.7983 6.95316L51.0768 10.6807C47.9738 8.6076 44.4936 7.16478 40.834 6.43438V1.16725C40.834 0.858469 40.7116 0.562265 40.4937 0.343494C40.2758 0.124723 39.9801 0.00121091 39.6713 0H30.3333C30.0237 0 29.7268 0.122978 29.5079 0.34188C29.289 0.560782 29.166 0.857677 29.166 1.16725V6.42827C25.5049 7.16016 22.0235 8.60508 18.9202 10.6807L15.2017 6.95316C14.9814 6.73457 14.6836 6.61191 14.3732 6.61191C14.0628 6.61191 13.765 6.73457 13.5447 6.95316L6.95316 13.5447C6.73457 13.765 6.61191 14.0628 6.61191 14.3732C6.61191 14.6836 6.73457 14.9814 6.95316 15.2017L10.6807 18.9202C8.6076 22.0231 7.16478 25.5034 6.43438 29.163H1.16726C1.01371 29.163 0.861679 29.1933 0.719862 29.2521C0.578045 29.311 0.449233 29.3972 0.340803 29.5059C0.232374 29.6146 0.146459 29.7437 0.0879785 29.8857C0.0294984 30.0276 -0.00039743 30.1797 3.98941e-06 30.3333V39.6713C3.98941e-06 39.9809 0.122982 40.2778 0.341884 40.4967C0.560786 40.7156 0.857681 40.8385 1.16726 40.8385H6.42828C7.16112 44.497 8.606 47.9757 10.6807 51.0768L6.95316 54.7983C6.73457 55.0186 6.61191 55.3164 6.61191 55.6268C6.61191 55.9372 6.73457 56.235 6.95316 56.4553L13.5447 63.0468C13.765 63.2654 14.0628 63.3881 14.3732 63.3881C14.6836 63.3881 14.9814 63.2654 15.2017 63.0468L18.9202 59.3254C22.0231 61.3985 25.5034 62.8413 29.163 63.5717V68.8327C29.163 69.1423 29.286 69.4392 29.5049 69.6581C29.7238 69.877 30.0207 70 30.3302 70H39.6713C39.9809 70 40.2778 69.877 40.4967 69.6581C40.7156 69.4392 40.8385 69.1423 40.8385 68.8327V63.5717C44.4981 62.8413 47.9784 61.3985 51.0814 59.3254L54.8028 63.0468C55.024 63.264 55.3215 63.3856 55.6314 63.3856C55.9413 63.3856 56.2388 63.264 56.4599 63.0468L63.0468 56.4553C63.2619 56.2328 63.3832 55.9362 63.3856 55.6268C63.3816 55.3177 63.2606 55.0216 63.0468 54.7983L59.3254 51.0768C61.3985 47.9738 62.8413 44.4936 63.5717 40.834H68.8327C69.1415 40.834 69.4377 40.7116 69.6565 40.4937C69.8753 40.2758 69.9988 39.9801 70 39.6713V30.3333C70 30.0237 69.877 29.7268 69.6581 29.5079C69.4392 29.289 69.1423 29.166 68.8327 29.166ZM67.6655 38.4995H62.6028C62.3268 38.4983 62.0594 38.595 61.8479 38.7724C61.6364 38.9498 61.4947 39.1964 61.4478 39.4684C60.797 43.4627 59.2303 47.2521 56.8703 50.5397C56.7085 50.7636 56.6313 51.0377 56.6525 51.3132C56.6738 51.5887 56.792 51.8477 56.9863 52.0442L60.575 55.6268L55.6268 60.575L52.0457 56.9802C51.8492 56.7859 51.5902 56.6677 51.3147 56.6464C51.0392 56.6252 50.7652 56.7024 50.5412 56.8642C47.2536 59.2242 43.4642 60.7909 39.4699 61.4417C39.1979 61.4886 38.9513 61.6303 38.774 61.8418C38.5966 62.0533 38.4999 62.3207 38.501 62.5967V67.6594H31.5005V62.6028C31.5017 62.3268 31.405 62.0594 31.2276 61.8479C31.0502 61.6364 30.8036 61.4947 30.5316 61.4478C26.5373 60.797 22.748 59.2303 19.4603 56.8703C19.2364 56.7085 18.9623 56.6313 18.6868 56.6525C18.4113 56.6738 18.1523 56.792 17.9558 56.9863L14.3732 60.575L9.42651 55.6268L13.0198 52.0457C13.2141 51.8492 13.3323 51.5902 13.3536 51.3147C13.3748 51.0392 13.2976 50.7652 13.1358 50.5412C10.7758 47.2536 9.20912 43.4642 8.55832 39.4699C8.51142 39.1979 8.36966 38.9513 8.1582 38.7739C7.94675 38.5966 7.67928 38.4999 7.40328 38.501H2.33298V31.5005H7.39717C7.67186 31.4999 7.93751 31.4023 8.14739 31.2251C8.35726 31.0479 8.49791 30.8023 8.54459 30.5316C9.19538 26.5373 10.7621 22.7479 13.122 19.4603C13.2839 19.2364 13.3611 18.9623 13.3398 18.6868C13.3186 18.4113 13.2003 18.1523 13.0061 17.9558L9.42651 14.3732L14.3732 9.42651L17.9543 13.0198C18.1508 13.2141 18.4098 13.3323 18.6853 13.3536C18.9608 13.3748 19.2348 13.2976 19.4588 13.1358C22.7464 10.7758 26.5358 9.20911 30.5301 8.55832C30.8021 8.51142 31.0487 8.36966 31.2261 8.1582C31.4034 7.94674 31.5001 7.67927 31.499 7.40327V2.33298H38.4995V7.39717C38.4983 7.67317 38.595 7.94064 38.7724 8.1521C38.9498 8.36355 39.1964 8.50532 39.4684 8.55222C43.4627 9.20301 47.2521 10.7697 50.5397 13.1297C50.7636 13.2915 51.0377 13.3687 51.3132 13.3475C51.5887 13.3262 51.8477 13.208 52.0442 13.0137L55.6253 9.42041L60.575 14.3732L56.9817 17.9543C56.7875 18.1508 56.6692 18.4098 56.648 18.6853C56.6267 18.9608 56.7039 19.2348 56.8658 19.4588C59.2257 22.7464 60.7924 26.5358 61.4432 30.5301C61.4901 30.8021 61.6319 31.0487 61.8433 31.226C62.0548 31.4034 62.3223 31.5001 62.5983 31.499H67.6609L67.6655 38.4995Z" fill="white"/>
<path d="M40.776 34.1723L41.0904 33.858C42.3418 34.1895 43.6606 34.1684 44.9009 33.7971C46.1411 33.4257 47.2545 32.7186 48.1178 31.7538C48.9812 30.7891 49.5609 29.6044 49.7928 28.3307C50.0247 27.057 49.8999 25.7439 49.432 24.5368C49.3624 24.3554 49.2486 24.1942 49.1009 24.0679C48.9532 23.9416 48.7762 23.8541 48.5862 23.8135C48.3962 23.7729 48.199 23.7804 48.0125 23.8353C47.8261 23.8902 47.6563 23.9907 47.5186 24.1279L45.0682 26.5783L43.8323 26.1694L43.4233 24.9335L45.8738 22.483C46.011 22.3453 46.1116 22.1754 46.1665 21.9889C46.2214 21.8024 46.2288 21.6051 46.1881 21.415C46.1484 21.2251 46.0613 21.0484 45.9348 20.9014C45.8083 20.7544 45.6467 20.6418 45.4649 20.5742C44.2583 20.107 42.9461 19.9823 41.6731 20.2141C40.4002 20.4458 39.216 21.0249 38.2515 21.8874C37.2871 22.7499 36.5798 23.8622 36.2078 25.1015C35.8358 26.3407 35.8136 27.6587 36.1437 28.9098L33.356 31.6975L29.5765 27.918C29.7295 27.7591 29.8355 27.561 29.8829 27.3455C29.9303 27.1301 29.9172 26.9058 29.8451 26.6973L28.957 24.1797C28.8654 23.9224 28.6882 23.7042 28.4551 23.5618L24.3826 21.1464C24.1609 21.0161 23.9024 20.9626 23.6471 20.9944C23.3919 21.0261 23.1543 21.1412 22.9713 21.3219L21.3142 22.9789C21.1336 23.162 21.0184 23.3996 20.9867 23.6548C20.955 23.91 21.0084 24.1686 21.1388 24.3903L23.5556 28.452C23.6981 28.6852 23.9162 28.8624 24.1736 28.954L26.7049 29.8405C26.828 29.8863 26.9582 29.91 27.0894 29.9107C27.4008 29.9074 27.6983 29.7819 27.918 29.5613L31.6974 33.3408L28.9097 36.1437C27.6583 35.8122 26.3395 35.8333 25.0992 36.2046C23.859 36.576 22.7456 37.2831 21.8823 38.2479C21.0189 39.2126 20.4392 40.3973 20.2073 41.671C19.9754 42.9447 20.1002 44.2578 20.5681 45.4649C20.6357 45.6467 20.7483 45.8084 20.8953 45.9349C21.0423 46.0613 21.219 46.1485 21.4088 46.1882C21.599 46.2279 21.796 46.22 21.9823 46.1652C22.1687 46.1103 22.3386 46.0102 22.4769 45.8738L24.9274 43.4234L26.1633 43.8323L26.5722 45.0682L24.1278 47.5248C23.9906 47.6625 23.89 47.8324 23.8351 48.0189C23.7802 48.2054 23.7728 48.4027 23.8135 48.5929C23.8532 48.7827 23.9403 48.9594 24.0668 49.1064C24.1933 49.2534 24.355 49.366 24.5368 49.4336C25.3486 49.7457 26.2105 49.9075 27.0803 49.9112C28.1551 49.9103 29.2154 49.6625 30.1793 49.1871C31.1433 48.7116 31.9851 48.0211 32.64 47.1688C33.2949 46.3165 33.7453 45.3252 33.9564 44.2714C34.1676 43.2175 34.1339 42.1292 33.858 41.0904L34.1723 40.7761L41.2536 47.8574C41.6872 48.291 42.202 48.635 42.7685 48.8696C43.3351 49.1043 43.9423 49.2251 44.5555 49.2251C45.1687 49.2251 45.7759 49.1043 46.3425 48.8696C46.909 48.635 47.4238 48.291 47.8574 47.8574C48.291 47.4238 48.6349 46.909 48.8696 46.3425C49.1043 45.776 49.225 45.1687 49.225 44.5555C49.225 43.9423 49.1043 43.3351 48.8696 42.7686C48.6349 42.202 48.291 41.6873 47.8574 41.2537L40.776 34.1723ZM26.7873 27.4053L25.3409 26.8927L23.6136 23.9753L23.9753 23.6137L26.8926 25.3409L27.4053 26.7874L26.7873 27.4053ZM31.6989 39.9476C31.543 40.1103 31.4361 40.3138 31.3908 40.5346C31.3454 40.7555 31.3634 40.9846 31.4426 41.1957C31.7699 42.0441 31.845 42.9691 31.6587 43.8592C31.4725 44.7493 31.0329 45.5666 30.3928 46.2126C29.5886 47.0157 28.5184 47.497 27.3839 47.566L28.7495 46.2126C28.901 46.0565 29.0071 45.8621 29.0565 45.6503C29.106 45.4385 29.0969 45.2173 29.0303 45.0102L28.2018 42.5369C28.1453 42.3653 28.0494 42.2093 27.9216 42.0816C27.7939 41.9538 27.6379 41.8579 27.4663 41.8014L24.993 40.9729C24.8716 40.9365 24.7458 40.917 24.6191 40.9149C24.3091 40.9141 24.0113 41.0358 23.7906 41.2537L22.4372 42.6193C22.5058 41.4842 22.9872 40.4135 23.7906 39.6088C24.4366 38.9688 25.2539 38.5292 26.144 38.3429C27.0341 38.1567 27.9591 38.2317 28.8075 38.5591C29.0186 38.6383 29.2477 38.6563 29.4685 38.6109C29.6894 38.5655 29.8929 38.4587 30.0556 38.3027L33.3575 35.0009L35.0023 36.6457L31.6989 39.9476ZM38.3027 30.0541C38.4585 29.8913 38.5652 29.6878 38.6106 29.467C38.6559 29.2462 38.6381 29.0171 38.559 28.806C38.2317 27.9576 38.1567 27.0326 38.3429 26.1425C38.5292 25.2524 38.9688 24.4352 39.6088 23.7891C40.4135 22.9857 41.4842 22.5043 42.6192 22.4357L41.2536 23.7891C41.1022 23.9453 40.9961 24.1396 40.9466 24.3514C40.8972 24.5632 40.9062 24.7844 40.9729 24.9915L41.8014 27.4648C41.8578 27.6364 41.9538 27.7924 42.0815 27.9202C42.2093 28.0479 42.3652 28.1438 42.5368 28.2003L45.0102 29.0288C45.2172 29.0954 45.4385 29.1045 45.6503 29.055C45.8621 29.0056 46.0564 28.8995 46.2125 28.748L47.5659 27.384C47.4973 28.519 47.016 29.5897 46.2125 30.3944C45.5665 31.0344 44.7492 31.474 43.8591 31.6603C42.969 31.8465 42.0441 31.7715 41.1956 31.4442C40.9846 31.3651 40.7555 31.3473 40.5347 31.3926C40.3139 31.438 40.1104 31.5447 39.9475 31.7005L36.6456 35.0009L35.0008 33.3438L38.3027 30.0541ZM46.2125 46.2126C45.7662 46.634 45.1755 46.8688 44.5616 46.8688C43.9477 46.8688 43.357 46.634 42.9107 46.2126L35.8293 39.1328L37.4742 37.4757L39.1327 35.8294L46.2141 42.9107C46.6479 43.3507 46.8911 43.9437 46.8911 44.5616C46.8911 45.1795 46.6464 45.7726 46.2125 46.2126Z" fill="white"/>
</svg>
