<svg width="16" height="16" viewBox="0 0 16 16" fill="none" xmlns="http://www.w3.org/2000/svg">
    <g clip-path="url(#vsqn4r5afa)">
        <path d="M8.667.667A.667.667 0 0 1 9.334 0 6.674 6.674 0 0 1 16 6.667a.667.667 0 1 1-1.333 0 5.34 5.34 0 0 0-5.333-5.334.667.667 0 0 1-.667-.666zM9.334 4A2.667 2.667 0 0 1 12 6.667a.667.667 0 0 0 1.334 0 4.004 4.004 0 0 0-4-4 .667.667 0 1 0 0 1.333zm6.062 7.16a2.067 2.067 0 0 1 0 2.918l-.607.7C9.329 20.004-3.958 6.72 1.189 1.243l.767-.667A2.054 2.054 0 0 1 4.84.604c.021.02 1.256 1.625 1.256 1.625a2.067 2.067 0 0 1-.004 2.855l-.772.97a8.52 8.52 0 0 0 4.62 4.63l.977-.776a2.067 2.067 0 0 1 2.854-.004s1.604 1.235 1.625 1.255zm-.918.969s-1.595-1.228-1.616-1.248a.733.733 0 0 0-1.032 0c-.018.018-1.363 1.09-1.363 1.09a.666.666 0 0 1-.653.101A10.006 10.006 0 0 1 3.934 6.2a.667.667 0 0 1 .096-.667s1.072-1.345 1.09-1.362a.733.733 0 0 0 0-1.033c-.021-.02-1.248-1.617-1.248-1.617a.733.733 0 0 0-1.007.026l-.767.667c-3.761 4.523 7.753 15.398 11.716 11.653l.608-.7a.747.747 0 0 0 .056-1.038z" fill="#000"/>
    </g>
    <defs>
        <clipPath id="vsqn4r5afa">
            <path fill="#fff" d="M0 0h16v16H0z"/>
        </clipPath>
    </defs>
</svg>
