<svg width="27" height="27" viewBox="0 0 27 27" fill="none" xmlns="http://www.w3.org/2000/svg">
    <g clip-path="url(#bg9n3i644a)" fill="#2C64F6">
        <path d="M6.908 18.559a4.255 4.255 0 1 0 0-8.51 4.255 4.255 0 0 0 0 8.51zM20.092 8.517a4.255 4.255 0 1 0 0-8.51 4.255 4.255 0 0 0 0 8.51z"/>
        <path fill-rule="evenodd" clip-rule="evenodd" d="M25.117 19.775a.941.941 0 0 1 1.883.002l-.004 3.768a3.452 3.452 0 0 1-3.452 3.448h-6.906a.942.942 0 0 1 0-1.882h6.906a1.57 1.57 0 0 0 1.569-1.568l.004-3.768zM1.888 7.223a.942.942 0 0 1-1.883-.002l.004-3.768A3.451 3.451 0 0 1 3.46.004h9.41a.942.942 0 0 1 0 1.883H3.46a1.57 1.57 0 0 0-1.57 1.568l-.003 3.768zM10.985 18.009a6.902 6.902 0 0 1 2.829 5.574c0 .978-.617 1.83-1.75 2.417-1.251.647-3.202.994-5.156.994-1.956 0-3.907-.347-5.158-.994C.616 25.413 0 24.56 0 23.583a6.903 6.903 0 0 1 2.83-5.574 5.497 5.497 0 0 0 4.078 1.805 5.493 5.493 0 0 0 4.077-1.805zM24.171 7.967a6.903 6.903 0 0 1 2.83 5.574c0 .978-.617 1.83-1.75 2.416-1.252.648-3.203.995-5.158.995-1.955 0-3.905-.347-5.157-.995-1.133-.586-1.75-1.438-1.75-2.416a6.902 6.902 0 0 1 2.83-5.574 5.494 5.494 0 0 0 4.077 1.805c1.615 0 3.069-.696 4.078-1.805z"/>
    </g>
    <defs>
        <clipPath id="bg9n3i644a">
            <path fill="#fff" d="M0 0h27v27H0z"/>
        </clipPath>
    </defs>
</svg>
