<svg width="78" height="30" viewBox="0 0 78 30" fill="none" xmlns="http://www.w3.org/2000/svg">
<path d="M77.6167 13.6424L64.4352 0.460779C63.9616 -0.0921367 63.1295 -0.156592 62.5766 0.317028C62.0237 0.790536 61.9592 1.62268 62.4328 2.1756C62.477 2.22714 62.525 2.27529 62.5766 2.31935L73.5041 13.2601H1.31812C0.590185 13.2601 0 13.8503 0 14.5783C0 15.3064 0.590185 15.8964 1.31812 15.8964H73.5041L62.5766 26.8239C62.0237 27.2974 61.9592 28.1296 62.4328 28.6825C62.9064 29.2354 63.7385 29.2999 64.2914 28.8262C64.3429 28.7821 64.3911 28.734 64.4352 28.6825L77.6168 15.5009C78.1278 14.9869 78.1278 14.1566 77.6167 13.6424Z" fill="white"/>
</svg>
